<svg xmlns="http://www.w3.org/2000/svg" width="78" height="76" viewBox="0 0 39 38">
  <metadata><?xpacket begin="﻿" id="W5M0MpCehiHzreSzNTczkc9d"?>
<x:xmpmeta xmlns:x="adobe:ns:meta/" x:xmptk="Adobe XMP Core 5.6-c140 79.160451, 2017/05/06-01:08:21        ">
   <rdf:RDF xmlns:rdf="http://www.w3.org/1999/02/22-rdf-syntax-ns#">
      <rdf:Description rdf:about=""/>
   </rdf:RDF>
</x:xmpmeta>
                                                                                                    
                                                                                                    
                                                                                                    
                                                                                                    
                                                                                                    
                                                                                                    
                                                                                                    
                                                                                                    
                                                                                                    
                                                                                                    
                                                                                                    
                                                                                                    
                                                                                                    
                                                                                                    
                                                                                                    
                                                                                                    
                                                                                                    
                                                                                                    
                                                                                                    
                                                                                                    
                           
<?xpacket end="w"?></metadata>
<defs>
    <style>
      .cls-1 {
        fill: #199dff;
        fill-rule: evenodd;
      }
    </style>
  </defs>
  <path class="cls-1" d="M567,366.993A4.066,4.066,0,0,0,571.112,371h30.776A4.065,4.065,0,0,0,606,366.993V337.006A4.065,4.065,0,0,0,601.888,333H571.112A4.065,4.065,0,0,0,567,337.006v29.987Zm34.888,2.105H571.112a2.14,2.14,0,0,1-2.16-2.105v-5.008l7.395-7.205,6.32,6.157a0.988,0.988,0,0,0,1.378,0l11.412-11.119,8.591,8.37v8.805A2.14,2.14,0,0,1,601.888,369.1Zm-30.776-34.2h30.776a2.14,2.14,0,0,1,2.16,2.1v18.488l-7.906-7.7a0.99,0.99,0,0,0-1.378,0l-11.412,11.119-6.319-6.157a0.99,0.99,0,0,0-1.379,0l-6.7,6.53V337.006A2.14,2.14,0,0,1,571.112,334.9Zm7.977,13.324a4.839,4.839,0,1,0-4.965-4.837A4.908,4.908,0,0,0,579.089,348.226Zm0-7.772a2.936,2.936,0,1,1-3.012,2.935A2.977,2.977,0,0,1,579.089,340.454Z" transform="translate(-567 -333)"/>
</svg>
