<svg xmlns="http://www.w3.org/2000/svg" width="94" height="94" viewBox="0 0 47 47">
  <metadata><?xpacket begin="﻿" id="W5M0MpCehiHzreSzNTczkc9d"?>
<x:xmpmeta xmlns:x="adobe:ns:meta/" x:xmptk="Adobe XMP Core 5.6-c140 79.160451, 2017/05/06-01:08:21        ">
   <rdf:RDF xmlns:rdf="http://www.w3.org/1999/02/22-rdf-syntax-ns#">
      <rdf:Description rdf:about=""/>
   </rdf:RDF>
</x:xmpmeta>
                                                                                                    
                                                                                                    
                                                                                                    
                                                                                                    
                                                                                                    
                                                                                                    
                                                                                                    
                                                                                                    
                                                                                                    
                                                                                                    
                                                                                                    
                                                                                                    
                                                                                                    
                                                                                                    
                                                                                                    
                                                                                                    
                                                                                                    
                                                                                                    
                                                                                                    
                                                                                                    
                           
<?xpacket end="w"?></metadata>
<defs>
    <style>
      .cls-1 {
        fill: #199dff;
        fill-rule: evenodd;
      }
    </style>
  </defs>
  <path id="Forma_1" data-name="Forma 1" class="cls-1" d="M1154.41,302.445h-3.86V298.59a4.589,4.589,0,0,0-4.59-4.59h-29.37a4.6,4.6,0,0,0-4.59,4.59v24.256h0v5.118a4.6,4.6,0,0,0,4.59,4.589h3.86v3.856a4.589,4.589,0,0,0,4.59,4.59h29.37a4.6,4.6,0,0,0,4.59-4.59V307.035A4.6,4.6,0,0,0,1154.41,302.445Zm-40.57-3.855a2.752,2.752,0,0,1,2.75-2.754h29.37a2.761,2.761,0,0,1,2.76,2.754V314.5l-4.43-4.432a3.882,3.882,0,0,0-5.48,0l-8.51,8.5-4.46-4.466a3.882,3.882,0,0,0-5.48,0l-6.52,6.519V298.59h0Zm2.75,32.129a2.753,2.753,0,0,1-2.75-2.754v-4.738l7.81-7.818a2.055,2.055,0,0,1,2.89,0l5.11,5.115a0.919,0.919,0,0,0,1.3,0l9.16-9.154a2.042,2.042,0,0,1,2.88,0l5.73,5.73v10.865a2.762,2.762,0,0,1-2.76,2.754h-29.37Zm40.57,5.691h0a2.752,2.752,0,0,1-2.75,2.754h-29.37a2.761,2.761,0,0,1-2.76-2.754v-3.856h23.68a4.589,4.589,0,0,0,4.59-4.589V316.72h0V304.281h3.86a2.753,2.753,0,0,1,2.75,2.754V336.41Zm-25.88-36.491a3.672,3.672,0,1,0,3.67,3.672A3.671,3.671,0,0,0,1131.28,299.919Zm0,5.507a1.836,1.836,0,1,1,1.83-1.835A1.836,1.836,0,0,1,1131.28,305.426Zm23.13,30.525H1127.7a0.918,0.918,0,1,0,0,1.836h26.71A0.918,0.918,0,1,0,1154.41,335.951Zm-29.35,0h-0.03a0.918,0.918,0,0,0,0,1.836h0.03A0.918,0.918,0,1,0,1125.06,335.951Zm-5.62-38.738h-2.85a0.918,0.918,0,1,0,0,1.836h2.85A0.918,0.918,0,1,0,1119.44,297.213Zm2.66,0h-0.02a0.918,0.918,0,1,0,0,1.836h0.02A0.918,0.918,0,1,0,1122.1,297.213Z" transform="translate(-1112 -294)"/>
</svg>
