<svg xmlns="http://www.w3.org/2000/svg" width="113.979" height="114" viewBox="0 0 113.979 114">
  <g id="Group_558" data-name="Group 558" transform="translate(61.363 -245.749)" opacity="0.45">
    <path id="Path_593" data-name="Path 593" d="M-10.775,312.418a31.936,31.936,0,0,0,22.647-9.365,32.063,32.063,0,0,0,0-45.292,32.063,32.063,0,0,0-45.292,0,32.063,32.063,0,0,0,0,45.292A31.934,31.934,0,0,0-10.775,312.418Zm-20.98-52.992a29.579,29.579,0,0,1,20.98-8.677,29.58,29.58,0,0,1,20.983,8.677,29.707,29.707,0,0,1,0,41.963,29.711,29.711,0,0,1-41.963,0A29.707,29.707,0,0,1-31.755,259.426Z" transform="translate(25.167 3.586)" fill="#f05269"/>
    <path id="Path_594" data-name="Path 594" d="M-61.019,353.462l5.941,5.943a1.176,1.176,0,0,0,.834.344,1.176,1.176,0,0,0,.834-.344l44.862-44.866a37.923,37.923,0,0,0,22.942,7.7,37.991,37.991,0,0,0,27.041-11.2,38.284,38.284,0,0,0,0-54.08,37.984,37.984,0,0,0-27.041-11.2,37.987,37.987,0,0,0-27.039,11.2,38.265,38.265,0,0,0-3.506,49.976L-61.019,351.8A1.178,1.178,0,0,0-61.019,353.462Zm50.037-94.845A35.648,35.648,0,0,1,14.392,248.1a35.645,35.645,0,0,1,25.376,10.514,35.928,35.928,0,0,1,0,50.751,35.643,35.643,0,0,1-25.376,10.511,35.645,35.645,0,0,1-25.374-10.511A35.928,35.928,0,0,1-10.982,258.617Zm-3.7,50.169c.652.763,1.309,1.524,2.032,2.246s1.476,1.38,2.242,2.035l-43.84,43.84-4.276-4.276Z" transform="translate(0)" fill="#f05269"/>
    <g id="Group_553" data-name="Group 553" transform="translate(3.099 269.748)">
      <path id="Path_595" data-name="Path 595" d="M-33.987,257a1.078,1.078,0,0,1,1.06-1.057h10.7c3.217,0,5.821.937,7.408,2.527a6.133,6.133,0,0,1,1.832,4.476v.08a7.041,7.041,0,0,1-4.844,6.756c3.419.895,6.431,2.847,6.431,6.8v.08c0,4.764-4.071,7.775-10.215,7.775H-32.927a1.078,1.078,0,0,1-1.06-1.057Zm11.519,12.089c4.274,0,7.325-2.074,7.325-5.863v-.078c0-3.136-2.564-5.251-7.123-5.251h-9.6v11.192Zm.935,13.386c4.884,0,7.978-2.235,7.978-5.818v-.08c0-3.5-3.052-5.536-8.67-5.536H-31.87v11.434Z" transform="translate(33.987 -255.941)" fill="#f05269"/>
    </g>
  </g>
</svg>
