<svg xmlns="http://www.w3.org/2000/svg" width="128.903" height="102.247" viewBox="0 0 128.903 102.247">
  <g id="Group_595" data-name="Group 595" opacity="0.45">
    <g id="Group_589" data-name="Group 589" transform="translate(0 85.933)">
      <path id="Path_684" data-name="Path 684" d="M-85.211-131.626H-192.627a10.754,10.754,0,0,1-10.742-10.742l0-2.889a2.687,2.687,0,0,1,2.685-2.683H-77.152a2.689,2.689,0,0,1,1.9.787,2.693,2.693,0,0,1,.784,1.9l0,2.887A10.752,10.752,0,0,1-85.211-131.626ZM-198-142.569v.2A5.376,5.376,0,0,0-192.627-137H-85.211a5.376,5.376,0,0,0,5.371-5.371v-.2Z" transform="translate(203.369 147.94)" fill="#f05269"/>
    </g>
    <g id="Group_590" data-name="Group 590" transform="translate(8.059 18.798)">
      <path id="Path_685" data-name="Path 685" d="M-138.163-167.569h-59.52a2.686,2.686,0,0,1-2.685-2.685,2.685,2.685,0,0,1,2.685-2.685h59.52a2.685,2.685,0,0,1,2.685,2.685A2.686,2.686,0,0,1-138.163-167.569Z" transform="translate(200.368 172.94)" fill="#f05269"/>
    </g>
    <g id="Group_591" data-name="Group 591" transform="translate(21.486 29.486)">
      <path id="Path_686" data-name="Path 686" d="M-133.6-107.142a2.686,2.686,0,0,1-2.685-2.685v-5.857a8.165,8.165,0,0,0-5.014-7.541l-11.518-4.831a8.053,8.053,0,0,1-4.952-7.444,2.891,2.891,0,0,1,.755-1.95c3.072-3.177,3.3-9.74,3.274-16.76a9.4,9.4,0,0,0-9.4-9.38,9.4,9.4,0,0,0-9.4,9.369c-.024,7.047.207,13.623,3.276,16.8a2.679,2.679,0,0,1,.752,1.864,8.056,8.056,0,0,1-4.963,7.506l-11.507,4.828A8.159,8.159,0,0,0-190-115.684v5.857a2.685,2.685,0,0,1-2.685,2.685,2.686,2.686,0,0,1-2.685-2.685v-5.857a13.514,13.514,0,0,1,8.306-12.49l11.523-4.836a2.661,2.661,0,0,0,1.531-1.692c-3.636-4.694-3.931-11.913-3.9-19.526a14.771,14.771,0,0,1,14.77-14.732,14.771,14.771,0,0,1,14.77,14.74c.03,7.589-.263,14.8-3.9,19.488a2.7,2.7,0,0,0,1.531,1.721l11.52,4.834a13.52,13.52,0,0,1,8.306,12.493v5.857A2.685,2.685,0,0,1-133.6-107.142Z" transform="translate(195.368 168.96)" fill="#f05269"/>
    </g>
    <g id="Group_592" data-name="Group 592" transform="translate(8.059 8.056)">
      <path id="Path_687" data-name="Path 687" d="M-197.683-93.692a2.686,2.686,0,0,1-2.685-2.685V-166.2a10.754,10.754,0,0,1,10.742-10.742H-131.9a2.685,2.685,0,0,1,2.685,2.685,2.686,2.686,0,0,1-2.685,2.685h-57.723A5.376,5.376,0,0,0-195-166.2v69.821A2.685,2.685,0,0,1-197.683-93.692Z" transform="translate(200.368 176.94)" fill="#f05269"/>
    </g>
    <g id="Group_593" data-name="Group 593" transform="translate(115.476 38.799)">
      <path id="Path_688" data-name="Path 688" d="M-157.683-112.987a2.686,2.686,0,0,1-2.685-2.685v-47.134a2.686,2.686,0,0,1,2.685-2.685A2.685,2.685,0,0,1-155-162.807v47.134A2.685,2.685,0,0,1-157.683-112.987Z" transform="translate(160.368 165.492)" fill="#f05269"/>
    </g>
    <g id="Group_594" data-name="Group 594" transform="translate(67.138 0)">
      <path id="Path_689" data-name="Path 689" d="M-162.868-123.546a2.689,2.689,0,0,1-2.194-1.139,2.688,2.688,0,0,1-.15-2.855l2.591-4.654c-9.662-4.477-15.747-12.941-15.747-22.235,0-14.069,13.854-25.511,30.882-25.511S-116.6-168.5-116.6-154.429s-13.851,25.511-30.882,25.511c-.2,0-.405-.005-.607-.016-3.65,2.728-7.782,4.256-14.332,5.349A2.745,2.745,0,0,1-162.868-123.546Zm15.382-51.023c-14.066,0-25.511,9.034-25.511,20.141,0,7.9,5.924,15.108,15.095,18.366a2.7,2.7,0,0,1,1.614,1.584,2.69,2.69,0,0,1-.166,2.256l-1.157,2.073a19.371,19.371,0,0,0,6.963-3.6,2.707,2.707,0,0,1,1.8-.6l.537.027c.274.016.548.032.824.032,14.069,0,25.511-9.036,25.511-20.141S-133.417-174.569-147.486-174.569Z" transform="translate(178.368 179.94)" fill="#f05269"/>
    </g>
  </g>
</svg>
