<svg xmlns="http://www.w3.org/2000/svg" width="117.958" height="113.08" viewBox="0 0 117.958 113.08">
  <path id="Path_576" data-name="Path 576" d="M1646.176,2286.723a40.424,40.424,0,0,0-80.77,0,40.416,40.416,0,0,0,40.385,69.92,40.416,40.416,0,0,0,40.385-69.92Zm-18.609,31.23a40.442,40.442,0,0,0-17.855-30.808,36.585,36.585,0,0,1,32.715,1.73A36.608,36.608,0,0,1,1627.567,2317.953Zm-58.411-29.078a36.585,36.585,0,0,1,32.715-1.73,40.443,40.443,0,0,0-17.856,30.808A36.608,36.608,0,0,1,1569.156,2288.875Zm36.635.274a36.659,36.659,0,0,1,18.082,31.213,36.577,36.577,0,0,1-36.165,0A36.658,36.658,0,0,1,1605.792,2289.149Zm0,39.782a40.179,40.179,0,0,0,17.865-4.168,36.7,36.7,0,0,1-17.864,27.553,36.7,36.7,0,0,1-17.864-27.553A40.178,40.178,0,0,0,1605.791,2328.932Zm0-77.066a36.691,36.691,0,0,1,36.417,32.61,40.364,40.364,0,0,0-36.417.347,40.366,40.366,0,0,0-36.417-.348A36.691,36.691,0,0,1,1605.791,2251.865Zm-18.553,105.507a36.627,36.627,0,0,1-21.776-66.088,40.453,40.453,0,0,0,18.5,31.231,40.431,40.431,0,0,0,17.912,31.8A36.427,36.427,0,0,1,1587.239,2357.373Zm37.105,0a36.426,36.426,0,0,1-14.632-3.052,40.431,40.431,0,0,0,17.911-31.8,40.455,40.455,0,0,0,18.5-31.23,36.627,36.627,0,0,1-21.776,66.087Z" transform="translate(-1546.812 -2248.079)" fill="#f36f21" opacity="0.45"/>
</svg>
