<svg xmlns="http://www.w3.org/2000/svg" width="119.681" height="119.681" viewBox="0 0 119.681 119.681">
  <g id="Group_529" data-name="Group 529" opacity="0.6">
    <path id="Path_552" data-name="Path 552" d="M1019.569,1077a46.72,46.72,0,0,1-46.668-46.667,46.246,46.246,0,0,1,9.544-28.283,1.922,1.922,0,1,1,3.056,2.332,42.433,42.433,0,0,0-8.756,25.951,42.858,42.858,0,0,0,56.125,40.718,1.922,1.922,0,0,1,1.193,3.654A46.624,46.624,0,0,1,1019.569,1077Z" transform="translate(-961.906 -972.519)" fill="#3fb549"/>
    <path id="Path_553" data-name="Path 553" d="M1231.77,1219.4a1.922,1.922,0,0,1-.909-3.617,43.057,43.057,0,0,0,16.094-15.026,1.922,1.922,0,0,1,3.255,2.045,46.905,46.905,0,0,1-17.534,16.37A1.914,1.914,0,0,1,1231.77,1219.4Z" transform="translate(-1153.002 -1120.189)" fill="#3fb549"/>
    <path id="Path_554" data-name="Path 554" d="M1301.468,1060.8a1.923,1.923,0,0,1-1.758-2.7,40.136,40.136,0,0,0,3.371-16.763,42.735,42.735,0,0,0-6.27-22.322,1.922,1.922,0,0,1,3.279-2.007,46.575,46.575,0,0,1,6.836,24.328,43.846,43.846,0,0,1-3.7,18.315A1.922,1.922,0,0,1,1301.468,1060.8Z" transform="translate(-1202.596 -983.522)" fill="#3fb549"/>
    <path id="Path_555" data-name="Path 555" d="M1098.958,950.08a1.916,1.916,0,0,1-1.385-.589,43.654,43.654,0,0,0-31.375-13.136,42.867,42.867,0,0,0-27.445,9.949,1.922,1.922,0,1,1-2.465-2.949,46.718,46.718,0,0,1,29.91-10.844,47.516,47.516,0,0,1,34.145,14.315,1.922,1.922,0,0,1-1.385,3.255Z" transform="translate(-1008.535 -921.36)" fill="#3fb549"/>
    <path id="Path_556" data-name="Path 556" d="M1038.519,1014a1.922,1.922,0,0,1-1.457-3.175l27.829-32.363V934.422a1.922,1.922,0,1,1,3.844,0V979.17a1.923,1.923,0,0,1-.465,1.253l-28.293,32.9A1.917,1.917,0,0,1,1038.519,1014Z" transform="translate(-1009.279 -921.352)" fill="#3fb549"/>
    <path id="Path_557" data-name="Path 557" d="M1186.487,1129.948a1.913,1.913,0,0,1-1.075-.33l-37.067-25.072a1.922,1.922,0,0,1,.986-3.512l43.979-2.094a1.922,1.922,0,1,1,.183,3.84l-38.208,1.82,32.281,21.835a1.922,1.922,0,0,1-1.079,3.514Z" transform="translate(-1091.76 -1045.136)" fill="#3fb549"/>
    <path id="Path_558" data-name="Path 558" d="M943.583,891.563h-12.3a1.281,1.281,0,0,1,0-2.563h12.3a1.281,1.281,0,0,1,0,2.563Z" transform="translate(-930 -889)" fill="#3fb549"/>
    <path id="Path_559" data-name="Path 559" d="M964.085,938.653a1.278,1.278,0,0,1-.976-.451L942.99,914.563H931.281a1.281,1.281,0,0,1,0-2.563h12.3a1.281,1.281,0,0,1,.976.451l20.5,24.09a1.281,1.281,0,0,1-.975,2.112Z" transform="translate(-930 -906.106)" fill="#3fb549"/>
    <path id="Path_560" data-name="Path 560" d="M1342.583,891.563h-12.3a1.281,1.281,0,0,1,0-2.563h12.3a1.281,1.281,0,1,1,0,2.563Z" transform="translate(-1226.746 -889)" fill="#3fb549"/>
    <path id="Path_561" data-name="Path 561" d="M1342.583,914.563h-12.3a1.281,1.281,0,0,1,0-2.563h12.3a1.281,1.281,0,0,1,0,2.563Z" transform="translate(-1226.746 -906.106)" fill="#3fb549"/>
    <path id="Path_562" data-name="Path 562" d="M1352.583,1214.563h-12.3a1.281,1.281,0,1,1,0-2.563h12.3a1.281,1.281,0,1,1,0,2.563Z" transform="translate(-1234.183 -1129.223)" fill="#3fb549"/>
    <path id="Path_563" data-name="Path 563" d="M1352.583,1237.563h-12.3a1.281,1.281,0,1,1,0-2.563h12.3a1.281,1.281,0,1,1,0,2.563Z" transform="translate(-1234.183 -1146.328)" fill="#3fb549"/>
    <path id="Path_564" data-name="Path 564" d="M1290.145,1325.563h-14.864a1.281,1.281,0,0,1,0-2.563h14.864a1.281,1.281,0,1,1,0,2.563Z" transform="translate(-1185.841 -1211.776)" fill="#3fb549"/>
    <path id="Path_565" data-name="Path 565" d="M1290.145,1348.563h-14.864a1.281,1.281,0,0,1,0-2.563h14.864a1.281,1.281,0,1,1,0,2.563Z" transform="translate(-1185.841 -1228.882)" fill="#3fb549"/>
    <path id="Path_566" data-name="Path 566" d="M1229.915,1267.552a1.279,1.279,0,0,1-1.01-.492l-15.633-19.99a1.281,1.281,0,1,1,2.019-1.579l15.633,19.99a1.281,1.281,0,0,1-1.009,2.071Z" transform="translate(-1140.474 -1153.766)" fill="#3fb549"/>
    <path id="Path_567" data-name="Path 567" d="M1306.07,1179.608a1.276,1.276,0,0,1-.916-.385l-11.789-12.045a1.281,1.281,0,0,1,1.831-1.792l11.789,12.045a1.281,1.281,0,0,1-.915,2.178Z" transform="translate(-1199.972 -1094.268)" fill="#3fb549"/>
    <path id="Path_568" data-name="Path 568" d="M1263.073,943.266a1.282,1.282,0,0,1-1.1-1.941l17.223-28.7a1.281,1.281,0,0,1,2.2,1.319l-17.223,28.7A1.281,1.281,0,0,1,1263.073,943.266Z" transform="translate(-1176.762 -906.105)" fill="#3fb549"/>
  </g>
</svg>
