<svg xmlns="http://www.w3.org/2000/svg" width="103.396" height="103.399" viewBox="0 0 103.396 103.399">
  <g id="Group_749" data-name="Group 749" transform="translate(-2695.891 -2838.465)" opacity="0.5">
    <g id="Group_748" data-name="Group 748" transform="translate(2698.398 2840.974)">
      <path id="Path_853" data-name="Path 853" d="M2723.866,2843.055c-.093-.1-.188-.189-.281-.274-1.928-1.773-6.924-1.839-8.139-1.8a11.7,11.7,0,0,0-6.868,2.667,28.549,28.549,0,0,0-2.215,1.948c-.121.121-.245.242-.37.37-3.032,3.1-6.939,8.672-7.539,17.845-.8,12.23,7.4,24.616,8.544,26.353,10.663,17.987,21.917,28.852,40.592,40.593,1.737,1.144,14.123,9.346,26.353,8.543,9.171-.6,14.74-4.507,17.844-7.539.127-.127.248-.248.369-.372a27.205,27.205,0,0,0,1.95-2.216,11.731,11.731,0,0,0,2.666-6.868c.036-1.211-.028-6.208-1.8-8.136-.089-.095-.178-.188-.273-.28a9.21,9.21,0,0,0-2.973-1.74l-18.942-6.509c-2.425-1-5.1-.426-7.4,1.883s-4.585,4.488-5.362,5.362a3.58,3.58,0,0,1-4.687,1.083c-13.907-7.848-23.939-16.531-31.548-31.544a3.583,3.583,0,0,1,1.087-4.687c.873-.778,3.053-3.054,5.362-5.362s2.88-4.979,1.882-7.4l-6.509-18.942a9.151,9.151,0,0,0-1.74-2.971Z" transform="translate(-2698.399 -2840.974)" fill="none" stroke="#5a99d2" stroke-linecap="round" stroke-linejoin="round" stroke-width="5"/>
    </g>
  </g>
</svg>
