<svg xmlns="http://www.w3.org/2000/svg" width="112.375" height="101.84" viewBox="0 0 112.375 101.84">
  <g id="Group_396" data-name="Group 396" transform="translate(-28 -274)" opacity="0.45">
    <g id="Group_392" data-name="Group 392" transform="translate(28 312.629)">
      <path id="Path_358" data-name="Path 358" d="M50.826,351.653a22.826,22.826,0,1,1,22.826-22.826A22.851,22.851,0,0,1,50.826,351.653Zm0-42.141a19.315,19.315,0,1,0,19.315,19.315A19.337,19.337,0,0,0,50.826,309.512Z" transform="translate(-28 -288.441)" fill="#5a99d2"/>
      <path id="Path_359" data-name="Path 359" d="M40.456,329.723A15.725,15.725,0,0,1,36.5,328.1l1.761-3.038a12.17,12.17,0,0,0,3.075,1.257Z" transform="translate(-21.579 -274.032)" fill="#5a99d2"/>
      <path id="Path_360" data-name="Path 360" d="M41,334.8v-3.512A12.306,12.306,0,0,0,53.291,319H56.8A15.821,15.821,0,0,1,41,334.8Z" transform="translate(-18.174 -278.615)" fill="#5a99d2"/>
      <path id="Path_361" data-name="Path 361" d="M72.789,336.385H69.277V313.559a14.05,14.05,0,0,0-27.09-5.227L32.3,328.564l-3.154-1.543,9.838-20.115a17.558,17.558,0,0,1,33.807,6.653Z" transform="translate(-27.136 -296)" fill="#5a99d2"/>
    </g>
    <g id="Group_393" data-name="Group 393" transform="translate(74.81 310.873)">
      <path id="Path_362" data-name="Path 362" d="M63.779,312.559a8.779,8.779,0,1,1,8.779-8.779A8.789,8.789,0,0,1,63.779,312.559Zm0-14.047a5.268,5.268,0,1,0,5.268,5.268A5.274,5.274,0,0,0,63.779,298.512Z" transform="translate(-54.401 -295)" fill="#5a99d2"/>
      <rect id="Rectangle_201" data-name="Rectangle 201" width="5" height="4" transform="translate(6.708 6.967)" fill="#5a99d2"/>
      <path id="Path_363" data-name="Path 363" d="M72.218,312.162a29.527,29.527,0,0,0-8.181-1.65,29.406,29.406,0,0,0-8.181,1.65l-1.2-3.3A32.614,32.614,0,0,1,64.037,307a32.614,32.614,0,0,1,9.378,1.861Z" transform="translate(-54.659 -285.93)" fill="#5a99d2"/>
    </g>
    <g id="Group_394" data-name="Group 394" transform="translate(94.723 312.629)">
      <path id="Path_364" data-name="Path 364" d="M88.826,351.653a22.826,22.826,0,1,1,22.826-22.826A22.851,22.851,0,0,1,88.826,351.653Zm0-42.141a19.315,19.315,0,1,0,19.315,19.315A19.337,19.337,0,0,0,88.826,309.512Z" transform="translate(-66 -288.441)" fill="#5a99d2"/>
      <path id="Path_365" data-name="Path 365" d="M78.456,329.723a15.725,15.725,0,0,1-3.961-1.622l1.761-3.038a12.17,12.17,0,0,0,3.075,1.257Z" transform="translate(-59.579 -274.032)" fill="#5a99d2"/>
      <path id="Path_366" data-name="Path 366" d="M79,334.8v-3.512A12.306,12.306,0,0,0,91.291,319H94.8A15.821,15.821,0,0,1,79,334.8Z" transform="translate(-56.174 -278.615)" fill="#5a99d2"/>
      <path id="Path_367" data-name="Path 367" d="M69.512,336.385H66V313.559a17.561,17.561,0,0,1,33.86-6.535l9.785,20-3.155,1.543-9.838-20.115a14.052,14.052,0,0,0-27.14,5.11Z" transform="translate(-66 -296)" fill="#5a99d2"/>
    </g>
    <g id="Group_395" data-name="Group 395" transform="translate(36.779 274)">
      <path id="Path_368" data-name="Path 368" d="M124.829,311.956c-8.065-6.723-23.048-10.13-44.529-10.13s-36.464,3.406-44.529,10.13L33.143,309.7l15.8-26.338,1.062-.8A123.939,123.939,0,0,1,80.3,279a123.939,123.939,0,0,1,30.292,3.568l1.062.8,15.8,26.338ZM80.3,298.315c17.854,0,31.142,2.226,40.3,6.776l-11.582-19.3A121.377,121.377,0,0,0,80.3,282.512a121.377,121.377,0,0,0-28.715,3.276L40,305.09C49.158,300.541,62.447,298.315,80.3,298.315Z" transform="translate(-32.892 -270.221)" fill="#5a99d2"/>
      <path id="Path_369" data-name="Path 369" d="M47.549,287.836l-3.2-1.45,4.585-9.933a7.023,7.023,0,0,1,12.356,4.57v3.512H57.781v-3.512a3.51,3.51,0,0,0-6.026-2.449Z" transform="translate(-24.419 -274)" fill="#5a99d2"/>
      <path id="Path_370" data-name="Path 370" d="M79.743,287.836l-4.205-9.262a3.51,3.51,0,0,0-6.026,2.449v3.512H66v-3.512a7.023,7.023,0,0,1,12.356-4.57l.265.418,4.319,9.515Z" transform="translate(-8.056 -274)" fill="#5a99d2"/>
      <rect id="Rectangle_202" data-name="Rectangle 202" width="5" height="15" transform="translate(44.738 14.84)" fill="#5a99d2"/>
      <rect id="Rectangle_203" data-name="Rectangle 203" width="5" height="4" transform="translate(37.738 16.84)" fill="#5a99d2"/>
      <path id="Path_371" data-name="Path 371" d="M36.512,303.558H33v-5.995l2.27-2.27,2.483,2.483-1.241,1.242Z" transform="translate(-33 -257.905)" fill="#5a99d2"/>
      <path id="Path_372" data-name="Path 372" d="M89.046,303.558H85.534v-4.54l-1.241-1.242,2.483-2.483,2.27,2.27Z" transform="translate(5.771 -257.905)" fill="#5a99d2"/>
    </g>
  </g>
</svg>
