<svg xmlns="http://www.w3.org/2000/svg" width="129.661" height="106.135" viewBox="0 0 129.661 106.135">
  <g id="Group_400" data-name="Group 400" transform="translate(-148.237 -34)" opacity="0.6">
    <g id="Group_398" data-name="Group 398" transform="translate(148.237 52.37)">
      <g id="Group_397" data-name="Group 397">
        <path id="Path_373" data-name="Path 373" d="M193.534,100.068a26.534,26.534,0,1,1,26.534-26.534A26.562,26.562,0,0,1,193.534,100.068Zm0-48.986a22.452,22.452,0,1,0,22.452,22.452A22.478,22.478,0,0,0,193.534,51.082Z" transform="translate(-128.703 -38.836)" fill="#3fb549"/>
        <path id="Path_374" data-name="Path 374" d="M213.067,112.4c-36.121,0-63.675-32.014-64.83-33.378V76.38c1.155-1.363,28.71-33.38,64.83-33.38s63.675,32.016,64.83,33.38v2.639C276.743,80.382,249.188,112.4,213.067,112.4ZM152.544,77.7c5.613,6.029,30.361,30.616,60.524,30.616S267.978,83.727,273.591,77.7c-5.613-6.029-30.361-30.616-60.524-30.616S158.157,71.669,152.544,77.7Z" transform="translate(-148.237 -43)" fill="#3fb549"/>
      </g>
      <path id="Path_375" data-name="Path 375" d="M191.425,58.152l-7.566-7.566-7.566,7.566,2.886,2.886,2.639-2.639V88.17H185.9V58.4l2.639,2.639Z" transform="translate(-119.029 -35.103)" fill="#3fb549"/>
      <path id="Path_376" data-name="Path 376" d="M184.777,58v4.082h3.237L181.293,68.8l2.886,2.886,6.721-6.721v3.237h4.082V58Z" transform="translate(-113.823 -27.384)" fill="#3fb549"/>
      <path id="Path_377" data-name="Path 377" d="M189.772,72.885l-10.8-10.8h3.237V58H172V68.205h4.082V64.968l10.8,10.8Z" transform="translate(-123.498 -27.384)" fill="#3fb549"/>
    </g>
    <g id="Group_399" data-name="Group 399" transform="translate(177.642 34)">
      <rect id="Rectangle_204" data-name="Rectangle 204" width="4.082" height="12.246" transform="translate(33.384)" fill="#3fb549"/>
      <rect id="Rectangle_205" data-name="Rectangle 205" width="4.082" height="12.247" transform="translate(16.403 1.842) rotate(-10)" fill="#3fb549"/>
      <rect id="Rectangle_206" data-name="Rectangle 206" width="4.081" height="12.247" transform="translate(0 6.606) rotate(-20.001)" fill="#3fb549"/>
      <rect id="Rectangle_207" data-name="Rectangle 207" width="12.247" height="4.08" transform="matrix(0.174, -0.985, 0.985, 0.174, 48.3, 13.194)" fill="#3fb549"/>
      <rect id="Rectangle_208" data-name="Rectangle 208" width="12.246" height="4.081" transform="translate(62.829 16.718) rotate(-70.007)" fill="#3fb549"/>
      <rect id="Rectangle_209" data-name="Rectangle 209" width="4.082" height="12.246" transform="translate(33.384 93.889)" fill="#3fb549"/>
      <rect id="Rectangle_210" data-name="Rectangle 210" width="12.247" height="4.082" transform="translate(16.402 104.293) rotate(-79.992)" fill="#3fb549"/>
      <rect id="Rectangle_211" data-name="Rectangle 211" width="12.247" height="4.081" transform="translate(0.001 99.53) rotate(-70.007)" fill="#3fb549"/>
      <rect id="Rectangle_212" data-name="Rectangle 212" width="4.08" height="12.247" transform="matrix(0.985, -0.174, 0.174, 0.985, 48.302, 92.941)" fill="#3fb549"/>
      <rect id="Rectangle_213" data-name="Rectangle 213" width="4.081" height="12.246" transform="matrix(0.94, -0.342, 0.342, 0.94, 62.829, 89.417)" fill="#3fb549"/>
    </g>
  </g>
</svg>
