<svg xmlns="http://www.w3.org/2000/svg" width="107.644" height="101.993" viewBox="0 0 107.644 101.993">
  <g id="Group_524" data-name="Group 524" opacity="0.6">
    <g id="Group_523" data-name="Group 523" transform="translate(0)">
      <g id="Group_522" data-name="Group 522">
        <g id="Group_521" data-name="Group 521" transform="translate(0.037)">
          <path id="Path_497" data-name="Path 497" d="M391.013,2364.3H295.884a6.246,6.246,0,0,1-6.239-6.239v-68.8a6.246,6.246,0,0,1,6.239-6.239h95.129a6.246,6.246,0,0,1,6.239,6.239v68.8A6.246,6.246,0,0,1,391.013,2364.3Zm-95.129-77.436a2.4,2.4,0,0,0-2.395,2.395v68.8a2.4,2.4,0,0,0,2.395,2.4h95.129a2.4,2.4,0,0,0,2.395-2.4v-68.8a2.4,2.4,0,0,0-2.395-2.395Z" transform="translate(-289.645 -2283.018)" fill="#f36f21"/>
          <path id="Path_498" data-name="Path 498" d="M434.893,2609.715h-10.5a11.44,11.44,0,0,1-11.427-11.427v-9.269h-18v9.269a11.44,11.44,0,0,1-11.427,11.427h-10.6a1.922,1.922,0,0,1,0-3.844h10.6a7.591,7.591,0,0,0,7.583-7.583V2587.1a1.922,1.922,0,0,1,1.922-1.922h21.843a1.922,1.922,0,0,1,1.922,1.922v11.191a7.591,7.591,0,0,0,7.582,7.583h10.5a1.922,1.922,0,0,1,0,3.844Z" transform="translate(-350.162 -2507.74)" fill="#f36f21"/>
          <path id="Path_499" data-name="Path 499" d="M455.17,2669.844H414.422a1.922,1.922,0,1,1,0-3.844H455.17a1.922,1.922,0,1,1,0,3.844Z" transform="translate(-381.015 -2567.851)" fill="#f36f21"/>
        </g>
        <path id="Path_500" data-name="Path 500" d="M395.214,2542.844H291.422a1.922,1.922,0,0,1,0-3.844H395.214a1.922,1.922,0,0,1,0,3.844Z" transform="translate(-289.5 -2473.398)" fill="#f36f21"/>
      </g>
      <path id="Path_501" data-name="Path 501" d="M371.9,2394.838a1.922,1.922,0,0,1-1.352-3.288l3.238-3.206a3.095,3.095,0,0,0-2.2-5.291h-4.647a6.99,6.99,0,0,1-6.936-7.028v-.369a6.748,6.748,0,0,1,6.936-6.7H371.6a3.039,3.039,0,0,0,2.868-1.96,3.162,3.162,0,0,0-.666-3.5l-.027-.028-3.225-3.349a6.961,6.961,0,0,1,.043-9.87l.047-.044.025-.023a6.986,6.986,0,0,1,9.785.048l3.421,3.4a3.134,3.134,0,0,0,5.344-2.206v-4.657A6.771,6.771,0,0,1,396.13,2340h.062a6.745,6.745,0,0,1,6.863,6.771v4.584a3.153,3.153,0,0,0,5.377,2.2l3.334-3.3a6.892,6.892,0,0,1,4.909-2.036h.007a6.926,6.926,0,0,1,4.933,2.046,1.936,1.936,0,0,1,.158.179,7,7,0,0,1-.164,9.732l-3.253,3.3a3.169,3.169,0,0,0-.682,3.511,3.039,3.039,0,0,0,2.869,1.961h4.536a6.748,6.748,0,0,1,6.936,6.7v.369a6.991,6.991,0,0,1-6.936,7.028h-4.522a3.1,3.1,0,0,0-2.2,5.3l3.24,3.191a1.922,1.922,0,1,1-2.7,2.739l-3.247-3.2a6.939,6.939,0,0,1,4.9-11.872h4.522a3.143,3.143,0,0,0,3.092-3.184v-.369a2.882,2.882,0,0,0-3.092-2.854h-4.536a6.86,6.86,0,0,1-6.422-4.338,7.025,7.025,0,0,1,1.509-7.689l3.253-3.3a3.158,3.158,0,0,0,.02-4.459c-.042-.042-.081-.084-.118-.129a3.1,3.1,0,0,0-2.1-.813h0a3.082,3.082,0,0,0-2.2.914l-3.334,3.3a7,7,0,0,1-11.935-4.925v-4.584a2.876,2.876,0,0,0-3.019-2.927h-.062a2.935,2.935,0,0,0-3.07,2.927v4.657a6.978,6.978,0,0,1-11.9,4.931l-3.421-3.4a3.131,3.131,0,0,0-4.4-.013l-.047.044-.021.019a3.117,3.117,0,0,0,.007,4.406l.027.028,3.226,3.349a7.025,7.025,0,0,1,1.489,7.672,6.86,6.86,0,0,1-6.421,4.336h-4.665a2.882,2.882,0,0,0-3.092,2.854v.369a3.143,3.143,0,0,0,3.092,3.184h4.647a6.939,6.939,0,0,1,4.911,11.863l-3.241,3.209A1.916,1.916,0,0,1,371.9,2394.838Zm23.826-9.521a9.446,9.446,0,1,1,9.446-9.446A9.457,9.457,0,0,1,395.727,2385.317Zm0-15.049a5.6,5.6,0,1,0,5.6,5.6A5.609,5.609,0,0,0,395.727,2370.269Z" transform="translate(-341.933 -2325.397)" fill="#f36f21"/>
    </g>
    <path id="Path_502" data-name="Path 502" d="M341.784,2411.845a5.662,5.662,0,1,1,5.662-5.662A5.668,5.668,0,0,1,341.784,2411.845Zm0-7.479a1.818,1.818,0,1,0,1.818,1.817A1.819,1.819,0,0,0,341.784,2404.366Z" transform="translate(-324.174 -2370.408)" fill="#f36f21"/>
    <path id="Path_503" data-name="Path 503" d="M623.274,2411.845a5.662,5.662,0,1,1,5.662-5.662A5.668,5.668,0,0,1,623.274,2411.845Zm0-7.479a1.818,1.818,0,1,0,1.818,1.817A1.819,1.819,0,0,0,623.274,2404.366Z" transform="translate(-533.525 -2370.408)" fill="#f36f21"/>
    <path id="Path_504" data-name="Path 504" d="M543.082,2328.38a5.662,5.662,0,1,1,5.662-5.662A5.668,5.668,0,0,1,543.082,2328.38Zm0-7.479a1.818,1.818,0,1,0,1.818,1.818A1.82,1.82,0,0,0,543.082,2320.9Z" transform="translate(-473.884 -2308.333)" fill="#f36f21"/>
    <path id="Path_505" data-name="Path 505" d="M423.395,2328.38a5.662,5.662,0,1,1,5.662-5.662A5.668,5.668,0,0,1,423.395,2328.38Zm0-7.479a1.818,1.818,0,1,0,1.818,1.818A1.82,1.82,0,0,0,423.395,2320.9Z" transform="translate(-384.87 -2308.333)" fill="#f36f21"/>
  </g>
</svg>
