<svg xmlns="http://www.w3.org/2000/svg" width="90.686" height="122.153" viewBox="0 0 90.686 122.153">
  <g id="_1" data-name="1" transform="translate(0 0)" opacity="0.45">
    <g id="Group_619" data-name="Group 619" transform="translate(0 0)">
      <path id="Path_709" data-name="Path 709" d="M966.247-189.068H879.765a2.1,2.1,0,0,1-2.1-2.1V-309.12a2.1,2.1,0,0,1,2.1-2.1h66.83a2.1,2.1,0,0,1,1.486.616l19.653,19.668a2.1,2.1,0,0,1,.616,1.486v5.545a2.1,2.1,0,0,1-2.1,2.1,2.1,2.1,0,0,1-2.1-2.1v-4.676l-18.424-18.437H881.868V-193.27h82.279v-80.79a2.1,2.1,0,0,1,2.1-2.1,2.1,2.1,0,0,1,2.1,2.1v82.891A2.1,2.1,0,0,1,966.247-189.068Z" transform="translate(-877.664 311.221)" fill="#3fb549"/>
    </g>
    <g id="Group_620" data-name="Group 620" transform="translate(66.828 0)">
      <path id="Path_710" data-name="Path 710" d="M941.279-287.351H925.6a2.1,2.1,0,0,1-2.1-2.1,2.1,2.1,0,0,1,2.1-2.1H936.21l-12.483-12.493v7.585a2.1,2.1,0,0,1-2.1,2.1,2.1,2.1,0,0,1-2.1-2.1v-12.66a2.1,2.1,0,0,1,1.3-1.941,2.1,2.1,0,0,1,2.289.457l19.653,19.668a2.1,2.1,0,0,1,.455,2.289A2.1,2.1,0,0,1,941.279-287.351Z" transform="translate(-919.523 311.221)" fill="#3fb549"/>
    </g>
    <g id="Group_621" data-name="Group 621" transform="translate(66.828 9.833)">
      <path id="Path_711" data-name="Path 711" d="M925.6-291.025h-3.975a2.1,2.1,0,0,1-2.1-2.1v-9.836a2.1,2.1,0,0,1,2.1-2.1,2.1,2.1,0,0,1,2.1,2.1v7.735H925.6a2.1,2.1,0,0,1,2.1,2.1A2.1,2.1,0,0,1,925.6-291.025Z" transform="translate(-919.523 305.062)" fill="#3fb549"/>
    </g>
    <g id="Group_622" data-name="Group 622" transform="translate(14.343 28.775)">
      <path id="Path_712" data-name="Path 712" d="M946.546-266.415H888.751a2.1,2.1,0,0,1-2.1-2.1V-291.1a2.1,2.1,0,0,1,2.1-2.1h57.795a2.1,2.1,0,0,1,2.1,2.1v22.581A2.1,2.1,0,0,1,946.546-266.415Zm-55.694-4.2h53.593V-289H890.852Z" transform="translate(-886.648 293.198)" fill="#3fb549"/>
    </g>
    <g id="Group_623" data-name="Group 623" transform="translate(14.343 63.146)">
      <path id="Path_713" data-name="Path 713" d="M946.546-267.218h-.01l-57.795-.249a2.1,2.1,0,0,1-2.093-2.111,2.108,2.108,0,0,1,2.112-2.091l57.8.249a2.1,2.1,0,0,1,2.091,2.111A2.1,2.1,0,0,1,946.546-267.218Z" transform="translate(-886.648 271.669)" fill="#3fb549"/>
    </g>
    <g id="Group_624" data-name="Group 624" transform="translate(14.343 65.475)">
      <path id="Path_714" data-name="Path 714" d="M888.751-264.142a2.1,2.1,0,0,1-2.1-2.1v-1.868a2.1,2.1,0,0,1,2.1-2.1,2.1,2.1,0,0,1,2.1,2.1v1.868A2.1,2.1,0,0,1,888.751-264.142Z" transform="translate(-886.648 270.21)" fill="#3fb549"/>
    </g>
    <g id="Group_625" data-name="Group 625" transform="translate(72.139 63.395)">
      <path id="Path_715" data-name="Path 715" d="M924.951-263.364a2.1,2.1,0,0,1-2.1-2.1v-3.947a2.1,2.1,0,0,1,2.1-2.1,2.1,2.1,0,0,1,2.1,2.1v3.947A2.1,2.1,0,0,1,924.951-263.364Z" transform="translate(-922.85 271.513)" fill="#3fb549"/>
    </g>
    <g id="Group_626" data-name="Group 626" transform="translate(43.241 64.647)">
      <path id="Path_716" data-name="Path 716" d="M906.85-263.832a2.1,2.1,0,0,1-2.1-2.1v-2.695a2.1,2.1,0,0,1,2.1-2.1,2.1,2.1,0,0,1,2.1,2.1v2.695A2.1,2.1,0,0,1,906.85-263.832Z" transform="translate(-904.749 270.729)" fill="#3fb549"/>
    </g>
    <g id="Group_627" data-name="Group 627" transform="translate(43.241 52.952)">
      <path id="Path_717" data-name="Path 717" d="M906.85-271.087a2.1,2.1,0,0,1-2.1-2.1v-2.765a2.1,2.1,0,0,1,2.1-2.1,2.1,2.1,0,0,1,2.1,2.1v2.765A2.1,2.1,0,0,1,906.85-271.087Z" transform="translate(-904.749 278.054)" fill="#3fb549"/>
    </g>
    <g id="Group_628" data-name="Group 628" transform="translate(43.241 86.546)">
      <path id="Path_718" data-name="Path 718" d="M906.85-244.227a2.1,2.1,0,0,1-2.1-2.1v-8.583a2.1,2.1,0,0,1,2.1-2.1,2.1,2.1,0,0,1,2.1,2.1v8.583A2.1,2.1,0,0,1,906.85-244.227Z" transform="translate(-904.749 257.012)" fill="#3fb549"/>
    </g>
    <g id="Group_629" data-name="Group 629" transform="translate(72.139 86.546)">
      <path id="Path_719" data-name="Path 719" d="M924.951-244.227a2.1,2.1,0,0,1-2.1-2.1v-8.583a2.1,2.1,0,0,1,2.1-2.1,2.1,2.1,0,0,1,2.1,2.1v8.583A2.1,2.1,0,0,1,924.951-244.227Z" transform="translate(-922.85 257.012)" fill="#3fb549"/>
    </g>
    <g id="Group_630" data-name="Group 630" transform="translate(8.572 75.002)">
      <path id="Path_720" data-name="Path 720" d="M896.678-248.5H885.136a2.1,2.1,0,0,1-2.1-2.1v-11.544a2.1,2.1,0,0,1,2.1-2.1h11.543a2.1,2.1,0,0,1,2.1,2.1V-250.6A2.1,2.1,0,0,1,896.678-248.5Zm-9.442-4.2h7.341v-7.342h-7.341Z" transform="translate(-883.033 264.243)" fill="#3fb549"/>
    </g>
    <g id="Group_631" data-name="Group 631" transform="translate(37.47 95.121)">
      <path id="Path_721" data-name="Path 721" d="M909.006-235.9a7.882,7.882,0,0,1-7.872-7.872,7.882,7.882,0,0,1,7.872-7.872,7.883,7.883,0,0,1,7.874,7.872A7.883,7.883,0,0,1,909.006-235.9Zm0-11.543a3.673,3.673,0,0,0-3.669,3.67,3.673,3.673,0,0,0,3.669,3.67,3.674,3.674,0,0,0,3.67-3.67A3.674,3.674,0,0,0,909.006-247.439Z" transform="translate(-901.134 251.641)" fill="#3fb549"/>
    </g>
    <g id="Group_632" data-name="Group 632" transform="translate(66.367 95.121)">
      <path id="Path_722" data-name="Path 722" d="M927.108-235.9a7.883,7.883,0,0,1-7.874-7.872,7.883,7.883,0,0,1,7.874-7.872,7.883,7.883,0,0,1,7.874,7.872A7.883,7.883,0,0,1,927.108-235.9Zm0-11.543a3.674,3.674,0,0,0-3.67,3.67,3.674,3.674,0,0,0,3.67,3.67,3.674,3.674,0,0,0,3.67-3.67A3.674,3.674,0,0,0,927.108-247.439Z" transform="translate(-919.234 251.641)" fill="#3fb549"/>
    </g>
    <g id="Group_633" data-name="Group 633" transform="translate(37.47 74.994)">
      <path id="Path_723" data-name="Path 723" d="M943.676-248.486H903.235a2.1,2.1,0,0,1-2.1-2.1v-11.56a2.1,2.1,0,0,1,2.1-2.1h40.441a2.1,2.1,0,0,1,2.1,2.1v11.56A2.1,2.1,0,0,1,943.676-248.486Zm-38.338-4.2h36.237v-7.358H905.338Z" transform="translate(-901.134 264.248)" fill="#3fb549"/>
    </g>
    <g id="Group_634" data-name="Group 634" transform="translate(20.384 80.775)">
      <path id="Path_724" data-name="Path 724" d="M901.713-256.427h-9.18a2.1,2.1,0,0,1-2.1-2.1,2.1,2.1,0,0,1,2.1-2.1h9.18a2.1,2.1,0,0,1,2.1,2.1A2.1,2.1,0,0,1,901.713-256.427Z" transform="translate(-890.432 260.627)" fill="#3fb549"/>
    </g>
  </g>
</svg>
