<svg xmlns="http://www.w3.org/2000/svg" width="143.562" height="109.526" viewBox="0 0 143.562 109.526">
  <g id="Group_556" data-name="Group 556" transform="translate(-322.3 -130.433)" opacity="0.45">
    <path id="Path_603" data-name="Path 603" d="M338.8,169.494h10.009a1.308,1.308,0,0,0,1.309-1.309V148.093a1.306,1.306,0,0,0-1.309-1.309H338.8a1.308,1.308,0,0,0-1.309,1.309v20.091A1.31,1.31,0,0,0,338.8,169.494Zm1.309-20.091H347.5v17.473h-7.391Z" transform="translate(24.574 26.458)" fill="#3fb549"/>
    <path id="Path_604" data-name="Path 604" d="M345.216,166.154h10.012a1.308,1.308,0,0,0,1.309-1.309V150.157a1.306,1.306,0,0,0-1.309-1.309H345.216a1.308,1.308,0,0,0-1.309,1.309v14.688A1.31,1.31,0,0,0,345.216,166.154Zm1.309-14.688h7.394v12.07h-7.394Z" transform="translate(34.963 29.798)" fill="#3fb549"/>
    <path id="Path_605" data-name="Path 605" d="M351.637,180.513h10.012a1.308,1.308,0,0,0,1.309-1.309V141.283a1.306,1.306,0,0,0-1.309-1.309H351.637a1.308,1.308,0,0,0-1.309,1.309V179.2A1.31,1.31,0,0,0,351.637,180.513Zm1.309-37.921h7.394v35.3h-7.394Z" transform="translate(45.353 15.438)" fill="#3fb549"/>
    <path id="Path_606" data-name="Path 606" d="M358.057,171.086h10.012a1.308,1.308,0,0,0,1.309-1.309V147.109a1.306,1.306,0,0,0-1.309-1.309H358.057a1.308,1.308,0,0,0-1.309,1.309v22.668A1.31,1.31,0,0,0,358.057,171.086Zm1.309-22.668h7.394v20.05h-7.394Z" transform="translate(55.741 24.866)" fill="#3fb549"/>
    <path id="Path_607" data-name="Path 607" d="M419.923,194.154a1.31,1.31,0,0,0,.927,2.236,1.3,1.3,0,0,0,.924-.385l5.032-5.035a1.305,1.305,0,0,0,0-1.851l-5.032-5.032a1.309,1.309,0,0,0-1.851,1.851l2.8,2.8H339.081V140.655l2.8,2.8a1.309,1.309,0,0,0,1.851-1.851l-5.035-5.032a1.305,1.305,0,0,0-1.851,0l-5.035,5.032a1.309,1.309,0,0,0,1.851,1.851l2.8-2.8v49.391a1.308,1.308,0,0,0,1.309,1.309h84.95Z" transform="translate(14.77 9.309)" fill="#3fb549"/>
    <path id="Path_608" data-name="Path 608" d="M323.609,220.758h69.163v16.583H376.409a1.309,1.309,0,0,0,0,2.618h35.345a1.309,1.309,0,0,0,0-2.618H395.39V220.758h69.163a1.309,1.309,0,0,0,1.309-1.309V131.742a1.309,1.309,0,0,0-1.309-1.309H323.609a1.308,1.308,0,0,0-1.309,1.309v87.707A1.308,1.308,0,0,0,323.609,220.758Zm1.309-87.707H463.244V218.14H324.918Z" transform="translate(0 0)" fill="#3fb549"/>
  </g>
</svg>
