<svg xmlns="http://www.w3.org/2000/svg" width="106.638" height="107.05" viewBox="0 0 106.638 107.05">
  <g id="_8" data-name="8" transform="translate(0.96 0.96)" opacity="0.5">
    <g id="Group_744" data-name="Group 744" transform="translate(7.649 8.464)">
      <path id="Path_841" data-name="Path 841" d="M2701.5,2822.035l-3.724.95,4.847-19.018,64.528-64.528" transform="translate(-2697.776 -2734.871)" fill="none" stroke="#3fb549" stroke-linecap="round" stroke-linejoin="round" stroke-width="1.92"/>
      <path id="Path_842" data-name="Path 842" d="M2774.526,2744.851,2710,2809.379l-8.025,2.045" transform="translate(-2690.98 -2726.113)" fill="none" stroke="#3fb549" stroke-linecap="round" stroke-linejoin="round" stroke-width="1.92"/>
      <line id="Line_98" data-name="Line 98" x2="9.373" y2="9.373" transform="translate(74.173 9.365)" fill="none" stroke="#3fb549" stroke-linecap="round" stroke-linejoin="round" stroke-width="1.92"/>
      <path id="Path_843" data-name="Path 843" d="M2738.439,2756.431l2.9-2.9a5.7,5.7,0,0,0,0-8.064l-6.106-6.107a5.705,5.705,0,0,0-8.065,0l-2.9,2.9" transform="translate(-2654.895 -2737.694)" fill="none" stroke="#3fb549" stroke-linecap="round" stroke-linejoin="round" stroke-width="1.92"/>
      <line id="Line_99" data-name="Line 99" x1="57.88" y2="57.88" transform="translate(18.581 11.653)" fill="none" stroke="#3fb549" stroke-linecap="round" stroke-linejoin="round" stroke-width="1.92"/>
      <line id="Line_100" data-name="Line 100" x2="6.559" y2="6.559" transform="translate(6.747 70.531)" fill="none" stroke="#3fb549" stroke-linecap="round" stroke-linejoin="round" stroke-width="1.92"/>
    </g>
    <line id="Line_101" data-name="Line 101" x1="27.723" y1="27.723" transform="translate(49.277 69.697)" fill="none" stroke="#3fb549" stroke-linecap="round" stroke-linejoin="round" stroke-width="1.92"/>
    <path id="Path_844" data-name="Path 844" d="M2723.562,2755.377l29.549,29.563-20.406,20.406" transform="translate(-2648.393 -2700.614)" fill="none" stroke="#3fb549" stroke-linecap="round" stroke-linejoin="round" stroke-width="1.92"/>
    <path id="Path_845" data-name="Path 845" d="M2723,2783.032l-28.15-28.151,20.406-20.42,34.32,34.333" transform="translate(-2694.854 -2734.462)" fill="none" stroke="#3fb549" stroke-linecap="round" stroke-linejoin="round" stroke-width="1.92"/>
    <line id="Line_102" data-name="Line 102" x1="3.74" y2="3.74" transform="translate(91.547 75.539)" fill="none" stroke="#3fb549" stroke-linecap="round" stroke-linejoin="round" stroke-width="1.92"/>
    <line id="Line_103" data-name="Line 103" x1="3.739" y2="3.74" transform="translate(83.285 67.277)" fill="none" stroke="#3fb549" stroke-linecap="round" stroke-linejoin="round" stroke-width="1.92"/>
    <line id="Line_104" data-name="Line 104" x1="3.74" y2="3.739" transform="translate(75.023 59.016)" fill="none" stroke="#3fb549" stroke-linecap="round" stroke-linejoin="round" stroke-width="1.92"/>
    <line id="Line_105" data-name="Line 105" x1="3.74" y2="3.74" transform="translate(41.975 25.968)" fill="none" stroke="#3fb549" stroke-linecap="round" stroke-linejoin="round" stroke-width="1.92"/>
    <line id="Line_106" data-name="Line 106" x1="6.041" y2="6.041" transform="translate(31.413 17.706)" fill="none" stroke="#3fb549" stroke-linecap="round" stroke-linejoin="round" stroke-width="1.92"/>
    <line id="Line_107" data-name="Line 107" x1="3.739" y2="3.74" transform="translate(25.452 9.444)" fill="none" stroke="#3fb549" stroke-linecap="round" stroke-linejoin="round" stroke-width="1.92"/>
    <line id="Line_108" data-name="Line 108" x1="6.041" y2="6.041" transform="translate(80.983 67.277)" fill="none" stroke="#3fb549" stroke-linecap="round" stroke-linejoin="round" stroke-width="1.92"/>
  </g>
</svg>
