<svg xmlns="http://www.w3.org/2000/svg" width="888.414" height="525.873" viewBox="0 0 888.414 525.873">
  <g id="Group_743" data-name="Group 743" transform="translate(-113.001 -1426.127)">
    <path id="Path_635" data-name="Path 635" d="M200.028,357.665H362.194A22.932,22.932,0,0,0,385.1,334.758l-.036-69.522a9.545,9.545,0,0,1,9.545-9.55h24.74L404.694,270.34a2.009,2.009,0,0,0,2.842,2.842L425.621,255.1h0l1.42-1.42-1.42-1.421h0L407.536,234.17a2.009,2.009,0,1,0-2.842,2.842l14.655,14.655h-24.74a13.564,13.564,0,0,0-13.564,13.571l.036,69.521a18.909,18.909,0,0,1-18.887,18.887H200.028a18.909,18.909,0,0,1-18.887-18.887V172.593a18.909,18.909,0,0,1,18.887-18.887H362.194a18.909,18.909,0,0,1,18.887,18.887V242a2.01,2.01,0,0,0,4.019,0v-69.41a22.932,22.932,0,0,0-22.906-22.906H200.028a22.932,22.932,0,0,0-22.906,22.906V334.759A22.932,22.932,0,0,0,200.028,357.665Z" transform="translate(-64.121 1276.44)" fill="#f66560"/>
    <path id="Path_636" data-name="Path 636" d="M650.721,228.189a2.009,2.009,0,0,0,2.009-2.009V172.593a18.909,18.909,0,0,1,18.888-18.887H833.783a18.909,18.909,0,0,1,18.888,18.887V242a2.01,2.01,0,0,0,4.019,0v-69.41a22.932,22.932,0,0,0-22.907-22.906H671.618a22.932,22.932,0,0,0-22.906,22.906v53.586A2.009,2.009,0,0,0,650.721,228.189Z" transform="translate(-308.644 1276.44)" fill="#ebc355"/>
    <path id="Path_637" data-name="Path 637" d="M1305.373,149.687H1143.207a22.932,22.932,0,0,0-22.906,22.906v53.586a2.01,2.01,0,0,0,4.019,0V172.593a18.909,18.909,0,0,1,18.887-18.887h162.166a18.908,18.908,0,0,1,18.887,18.887V334.759a18.908,18.908,0,0,1-18.887,18.887h-70.54a2.01,2.01,0,0,0,0,4.019h70.54a22.932,22.932,0,0,0,22.906-22.906V172.593A22.932,22.932,0,0,0,1305.373,149.687Z" transform="translate(-553.166 1276.44)" fill="#87d457"/>
    <path id="Path_638" data-name="Path 638" d="M1613.207,667.184A22.932,22.932,0,0,0,1590.3,690.09V760.5a2.01,2.01,0,1,0,4.019,0V690.09a18.909,18.909,0,0,1,18.887-18.887h53.539a2.009,2.009,0,0,0,0-4.019Z" transform="translate(-796.864 1008.115)" fill="#08bfc5"/>
    <path id="Path_639" data-name="Path 639" d="M1730.116,667.184h-53.5a2.009,2.009,0,0,0,0,4.019h53.5A18.908,18.908,0,0,1,1749,690.09V852.256a18.908,18.908,0,0,1-18.887,18.887H1567.951a18.909,18.909,0,0,1-18.887-18.887V782.727a13.579,13.579,0,0,0-13.564-13.564h-24.788l14.655-14.655a2.009,2.009,0,0,0-2.842-2.842l-18.084,18.084h0l-1.42,1.42,1.42,1.42h0l18.084,18.085a2.01,2.01,0,0,0,2.842-2.842l-14.655-14.654H1535.5a9.555,9.555,0,0,1,9.545,9.545v69.529a22.932,22.932,0,0,0,22.906,22.906h162.166a22.932,22.932,0,0,0,22.906-22.906V690.09A22.932,22.932,0,0,0,1730.116,667.184Z" transform="translate(-751.608 1008.115)" fill="#08bfc5"/>
    <path id="Path_640" data-name="Path 640" d="M1226.216,506.517a13.579,13.579,0,0,0-13.564-13.564h-69.445a18.909,18.909,0,0,1-18.887-18.887v-53.7a2.01,2.01,0,0,0-4.019,0v53.7a22.932,22.932,0,0,0,22.906,22.906h69.445a9.555,9.555,0,0,1,9.545,9.545" transform="translate(-553.166 1137.133)" fill="#87d457"/>
    <g id="Group_572" data-name="Group 572" transform="translate(525.193 1675.299)">
      <path id="Path_641" data-name="Path 641" d="M1281.1,886.891a2.009,2.009,0,0,0-2.009,2.009v53.7a18.909,18.909,0,0,1-18.887,18.887H1098.042a18.908,18.908,0,0,1-18.888-18.886l.036-69.522a13.564,13.564,0,0,0-13.564-13.571h-24.74l14.655-14.655a2.009,2.009,0,0,0-2.842-2.842l-18.084,18.084h0l-1.42,1.42,1.42,1.42h0l18.084,18.085a2.01,2.01,0,0,0,2.842-2.842l-14.655-14.654h24.74a9.544,9.544,0,0,1,9.545,9.55l-.036,69.523a22.932,22.932,0,0,0,22.907,22.906h162.165a22.932,22.932,0,0,0,22.906-22.906V888.9A2.009,2.009,0,0,0,1281.1,886.891Z" transform="translate(-1033.193 -757.528)" fill="#8f4a81"/>
      <path id="Path_642" data-name="Path 642" d="M1326.269,745.686a2.009,2.009,0,0,0,2.009-2.009V690.09a22.932,22.932,0,0,0-22.906-22.906H1143.208A22.932,22.932,0,0,0,1120.3,690.09V759.5a2.01,2.01,0,1,0,4.019,0V690.09a18.909,18.909,0,0,1,18.887-18.887h162.165a18.909,18.909,0,0,1,18.887,18.887v53.586A2.01,2.01,0,0,0,1326.269,745.686Z" transform="translate(-1078.359 -667.184)" fill="#8f4a81"/>
    </g>
    <path id="Path_643" data-name="Path 643" d="M1783.694,648.453l-.153,24.178L1768.97,658.06a2.009,2.009,0,1,0-2.842,2.842l17.706,17.707a2.017,2.017,0,0,0,.673.673l1.126,1.126L1805.14,660.9a2.009,2.009,0,0,0-2.842-2.842L1787.559,672.8l.153-24.346" transform="translate(-887.726 1017.827)" fill="#87d457"/>
    <path id="Path_644" data-name="Path 644" d="M1652.408,634.355a13.579,13.579,0,0,0-13.564-13.564H1504.59v4.019h134.254a9.556,9.556,0,0,1,9.545,9.545Z" transform="translate(-752.422 1032.17)" fill="#87d457"/>
    <path id="Path_645" data-name="Path 645" d="M1332.192,600.967a13.579,13.579,0,0,0,13.564,13.564H1415.2v-4.019h-69.445a9.556,9.556,0,0,1-9.545-9.545Z" transform="translate(-663.032 1042.449)" fill="#87d457"/>
    <g id="Group_573" data-name="Group 573" transform="translate(340.068 1510.022)">
      <path id="Path_646" data-name="Path 646" d="M671.638,492.953a18.908,18.908,0,0,1-18.908-18.908V420.472a2.08,2.08,0,0,0-1.83-2.106,2.009,2.009,0,0,0-2.189,2v53.678a22.926,22.926,0,0,0,22.926,22.927h52.351a.021.021,0,0,0,.021-.021v-3.978a.021.021,0,0,0-.021-.021Z" transform="translate(-648.712 -372.889)" fill="#ebc355"/>
      <path id="Path_647" data-name="Path 647" d="M1037.926,342.6h0l-18.084-18.085a2.01,2.01,0,0,0-2.842,2.842l14.62,14.619a.021.021,0,0,1-.015.035H1007.18a13.9,13.9,0,0,0-9.024,3.2,13.5,13.5,0,0,0-4.807,10.367l.036,69.521A18.909,18.909,0,0,1,974.5,443.989H920.117a.021.021,0,0,0-.021.021v3.978a.021.021,0,0,0,.021.021H974.5A22.932,22.932,0,0,0,997.4,425.1l-.036-69.32a9.792,9.792,0,0,1,2.045-6.116,9.511,9.511,0,0,1,7.5-3.637H1031.6a.021.021,0,0,1,.015.035l-14.528,14.528a2.1,2.1,0,0,0,0,3.015,2.01,2.01,0,0,0,2.755-.082l18.084-18.085h0l1.406-1.406a.022.022,0,0,0,0-.029Z" transform="translate(-789.426 -323.925)" fill="#ebc355"/>
      <line id="Line_76" data-name="Line 76" y1="4.019" transform="translate(130.67 120.064)" fill="#ebc355"/>
      <path id="Path_648" data-name="Path 648" d="M805.1,573.283" transform="translate(-729.798 -453.219)" fill="#ebc355"/>
    </g>
    <g id="Group_574" data-name="Group 574" transform="translate(340.068 1618.912)">
      <path id="Path_649" data-name="Path 649" d="M947.033,629.368a22.932,22.932,0,0,0-22.907-22.906l-69.305.036a9.825,9.825,0,0,1-6.54-2.389,9.5,9.5,0,0,1-3.227-7.155V557.768l14.578,14.578a2.087,2.087,0,0,0,2.988,0,2.01,2.01,0,0,0-.068-2.77L844.466,551.5h0l-1.42-1.42-1.42,1.42h0l-18.084,18.084a2.01,2.01,0,0,0,.146,2.975,2.068,2.068,0,0,0,2.757-.194l14.594-14.594v38.9a13.93,13.93,0,0,0,3.638,9.527,13.484,13.484,0,0,0,9.933,4.319l69.521-.036a18.909,18.909,0,0,1,18.887,18.888v53.54a2.009,2.009,0,0,0,2.009,2.01h0a2.01,2.01,0,0,0,2.009-2.01Z" transform="translate(-739.055 -550.075)" fill="#0071bc"/>
      <path id="Path_650" data-name="Path 650" d="M852.671,852.255a18.887,18.887,0,0,1-18.888,18.888H671.618a18.888,18.888,0,0,1-18.888-18.888V690.09A18.888,18.888,0,0,1,671.618,671.2h69.323a2.067,2.067,0,0,0,2.086-1.812,2.01,2.01,0,0,0-2-2.207h-69.41a22.906,22.906,0,0,0-22.906,22.906V852.255a22.906,22.906,0,0,0,22.906,22.906H833.783a22.906,22.906,0,0,0,22.906-22.907V798.688a2.009,2.009,0,0,0-2.009-2.009h0a2.009,2.009,0,0,0-2.009,2.009Z" transform="translate(-648.712 -610.797)" fill="#0071bc"/>
    </g>
    <path id="Path_651" data-name="Path 651" d="M805.1,573.283a2.01,2.01,0,1,1,0,4.019" transform="translate(-389.73 1056.803)" fill="#ebc355"/>
    <path id="Path_652" data-name="Path 652" d="M917.932,573.283a2.01,2.01,0,0,0,0,4.019" transform="translate(-447.194 1056.803)" fill="#ebc355"/>
    <g id="Group_566" data-name="Group 566" transform="translate(137 1572)">
      <text id="Research" fill="#555" font-size="30" font-family="ITCAvantGardePro-Bold, ITC Avant Garde Gothic Pro" font-weight="700"><tspan x="0" y="22">Research</tspan></text>
    </g>
    <g id="Group_571" data-name="Group 571" transform="translate(358 1821)">
      <text id="Re-Engage" fill="#555" font-size="30" font-family="ITCAvantGardePro-Bold, ITC Avant Garde Gothic Pro" font-weight="700"><tspan x="0" y="22">Re-Engage</tspan></text>
    </g>
    <g id="Group_567" data-name="Group 567" transform="translate(367 1572)">
      <text id="Identify" fill="#555" font-size="30" font-family="ITCAvantGardePro-Bold, ITC Avant Garde Gothic Pro" font-weight="700"><tspan x="0" y="22">Identify</tspan></text>
    </g>
    <g id="Group_570" data-name="Group 570" transform="translate(595 1821)">
      <text id="Convert" fill="#555" font-size="30" font-family="ITCAvantGardePro-Bold, ITC Avant Garde Gothic Pro" font-weight="700"><tspan x="0" y="22">Convert</tspan></text>
    </g>
    <g id="Group_568" data-name="Group 568" transform="translate(585 1572)">
      <text id="Connect" fill="#555" font-size="30" font-family="ITCAvantGardePro-Bold, ITC Avant Garde Gothic Pro" font-weight="700"><tspan x="0" y="22">Connect</tspan></text>
    </g>
    <g id="Group_569" data-name="Group 569" transform="translate(830 1821)">
      <text id="Value_Add" data-name="Value Add" transform="translate(-14)" fill="#555" font-size="30" font-family="ITCAvantGardePro-Bold, ITC Avant Garde Gothic Pro" font-weight="700"><tspan x="0" y="22">Value Add</tspan></text>
    </g>
    <g id="Group_582" data-name="Group 582" opacity="0.75">
      <g id="Group_575" data-name="Group 575" transform="translate(-223.535 1222.894)">
        <path id="Path_653" data-name="Path 653" d="M416.9,291.6l-1.963,1.963-6.861-6.863a27.327,27.327,0,1,0-1.961,1.965l6.86,6.86-1.963,1.963,17.453,17.453,5.888-5.888Zm-29.069-1.421a21.762,21.762,0,1,1,15.388-6.373A21.62,21.62,0,0,1,387.836,290.183Z" fill="#4d4d4d"/>
        <path id="Path_654" data-name="Path 654" d="M375.663,256.248l1.962,1.963a14.458,14.458,0,0,1,20.422,0l1.962-1.963A17.235,17.235,0,0,0,375.663,256.248Z" fill="#4d4d4d"/>
      </g>
      <g id="Group_577" data-name="Group 577" transform="translate(-450.689 1220.851)">
        <path id="Path_655" data-name="Path 655" d="M897.2,269.225l.634-3.144v-.143c0-16.271-10.641-26.9-26.806-27.748-8.2-.415-16.268,2.4-21.62,7.757s-7.959,12.755-7.5,21.35c.3,5.616,3.505,10.721,6.079,14.821.411.655.809,1.291,1.178,1.9v11.94l-10.478,10.3,3.593,3.652L854.291,298.1V282.616l-.352-.6c-.486-.828-1.035-1.7-1.611-2.621-2.376-3.787-5.071-8.08-5.3-12.372-.381-7.1,1.7-13.138,6.008-17.456a22.751,22.751,0,0,1,17.41-6.258c13.357.7,21.435,9.12,21.633,22.545l-.432,4.273L897.264,282l-5.91,2.452-1.145,11.309-17.536-1.366-.388,5.108,10.182.791V313.2h5.123V300.691l7.246.563,1.382-13.24,8.135-3.342Z" fill="#4d4d4d"/>
        <path id="Path_656" data-name="Path 656" d="M872.425,270.526c2.213-.22,3.658-1.916,3.856-4.422l.085-.533a2.466,2.466,0,0,1,2.048-2.164l4.229-.7a5.33,5.33,0,0,0,3.95-3.134A4.72,4.72,0,0,0,886.2,255c-3.335-4.955-8.341-7.642-14.878-7.982s-12.8,2.2-16.457,6.656a15.337,15.337,0,0,0-3.06,6.161l-.012,0-.007.068a17.875,17.875,0,0,0-.056,7.717c0,2.106.749,3.582,2.059,4.234l0,.006h.013a3.734,3.734,0,0,0,1.675.375c.156,0,.319-.008.491-.025l.126-.013a7.325,7.325,0,0,1,3.662,2.149c2.016,2.379,1.185,6.1,1.179,6.133l2.525.431c.034-.2,1.046-4.9-1.736-8.205a6.786,6.786,0,0,0-1.114-.972l5.9-.605a8.875,8.875,0,0,0-1.078,4.874,25.962,25.962,0,0,1-.393,5.225l2.513.5a28.5,28.5,0,0,0,.442-5.719c0-3.373.047-4.613,3.422-5.379ZM856.843,255.3c.039-.047.086-.087.126-.134a5.4,5.4,0,0,0,1.134,1.457l1.743-1.876a3.09,3.09,0,0,1-.811-1.551,16.784,16.784,0,0,1,5.671-2.864A14.593,14.593,0,0,0,864,254.4l2.561.045a10.063,10.063,0,0,1,1.287-4.751,20.034,20.034,0,0,1,2.31-.147c.344,0,.687.008,1.031.025.315.017.608.062.914.09l-.777,1.654,2.319,1.091,1.1-2.339a16.214,16.214,0,0,1,3.111,1.041c-1.656,2.361-1.843,5.892-.806,7.781l2.247-1.23a5.818,5.818,0,0,1,.812-5.3,15.159,15.159,0,0,1,3.968,4.07,2.192,2.192,0,0,1,.165,2.131,2.738,2.738,0,0,1-2.022,1.614l-4.23.7a5.144,5.144,0,0,0-3.019,1.745,8.263,8.263,0,0,0-3.96-3.762c.352-.993.958-2.574,1.513-3.962l-2.379-.95c-.77,1.926-1.235,3.16-1.522,3.979a23,23,0,0,0-6.644-.933v2.562c4.784,0,10.98,2.542,11.852,5.685v.008l-.085.533c-.165,2.051-1.221,2.156-1.574,2.191l-11.523,1.184a5.3,5.3,0,0,1,1.776-2.482,5.21,5.21,0,0,1,4.081-.771l.436-2.526a7.753,7.753,0,0,0-6.026,1.228,8.129,8.129,0,0,0-3,4.832l-2.205.226-.233.01c-.354,0-1.183,0-1.183-2.054l-.025-.287a17.123,17.123,0,0,1-.291-4.887,8.392,8.392,0,0,1,3.231,1.652l1.526-2.056a8.929,8.929,0,0,0-4.225-2.318A12.648,12.648,0,0,1,856.843,255.3Z" fill="#4d4d4d"/>
      </g>
      <g id="Group_579" data-name="Group 579" transform="translate(612.999 1454)">
        <g id="Group_581" data-name="Group 581">
          <path id="Path_659" data-name="Path 659" d="M1012.78,767.208V751.643a7.183,7.183,0,0,0-.739-14.331h0a7.183,7.183,0,0,0-.739,14.331v15.566m.739-16.968a5.725,5.725,0,1,1,5.725-5.725h0A5.732,5.732,0,0,1,1012.042,750.24Z" transform="translate(-964.622 -737.312)" fill="#4d4d4d" stroke="#4d4d4d" stroke-miterlimit="10" stroke-width="2"/>
          <path id="Path_660" data-name="Path 660" d="M1011.3,809.277h0v15.564a7.2,7.2,0,1,0,1.477,0V809.277m4.987,22.695a5.725,5.725,0,1,1-5.725-5.725h0a5.732,5.732,0,0,1,5.725,5.722Z" transform="translate(-964.622 -744.415)" fill="#4d4d4d" stroke="#4d4d4d" stroke-miterlimit="10" stroke-width="2"/>
          <path id="Path_661" data-name="Path 661" d="M997.072,773.076l-11.006-11.006a7.284,7.284,0,1,0-1.045,1.045l11.006,11.006M976.458,761.6a5.637,5.637,0,1,1,.05.051Z" transform="translate(-961.493 -738.583)" fill="#4d4d4d" stroke="#4d4d4d" stroke-miterlimit="10" stroke-width="2"/>
          <path id="Path_662" data-name="Path 662" d="M1025.968,804.061l11.006,11.006a7.2,7.2,0,1,0,1.045-1.045l-11.006-11.006m19.573,12.521a5.726,5.726,0,1,1-8.1,0A5.727,5.727,0,0,1,1046.585,815.537Z" transform="translate(-966.707 -743.797)" fill="#4d4d4d" stroke="#4d4d4d" stroke-miterlimit="10" stroke-width="2"/>
          <path id="Path_663" data-name="Path 663" d="M990.2,788.351H974.587a7.2,7.2,0,1,0,0,1.477H990.2m-22.743,4.987a5.725,5.725,0,1,1,5.725-5.725h0a5.731,5.731,0,0,1-5.724,5.725Z" transform="translate(-960.218 -741.711)" fill="#4d4d4d" stroke="#4d4d4d" stroke-miterlimit="10" stroke-width="2"/>
          <path id="Path_664" data-name="Path 664" d="M1032.228,789.828h15.566a7.2,7.2,0,1,0,0-1.477h-15.566m22.693,6.464a5.725,5.725,0,1,1,5.725-5.725h0A5.733,5.733,0,0,1,1054.921,794.815Z" transform="translate(-967.325 -741.711)" fill="#4d4d4d" stroke="#4d4d4d" stroke-miterlimit="10" stroke-width="2"/>
          <path id="Path_665" data-name="Path 665" d="M996.043,803.016l-11.006,11.007a7.2,7.2,0,1,0,1.045,1.045l11.006-11.006m-12.519,19.573a5.722,5.722,0,1,1,0-8.1A5.722,5.722,0,0,1,984.569,823.634Z" transform="translate(-961.508 -743.797)" fill="#4d4d4d" stroke="#4d4d4d" stroke-miterlimit="10" stroke-width="2"/>
          <path id="Path_666" data-name="Path 666" d="M1026.978,774.169l.035-.035,11.006-11.006a7.166,7.166,0,1,0-1.047-1.045l-11,11.006m12.521-19.573a5.6,5.6,0,1,1-.022.021Z" transform="translate(-966.707 -738.596)" fill="#4d4d4d" stroke="#4d4d4d" stroke-miterlimit="10" stroke-width="2"/>
        </g>
      </g>
      <path id="Path_661-2" data-name="Path 661" d="M1011.529,800.3a11.681,11.681,0,1,0-11.681-11.681A11.693,11.693,0,0,0,1011.529,800.3Zm0-18.8a7.123,7.123,0,1,1-7.122,7.123A7.133,7.133,0,0,1,1011.529,781.5Z" transform="translate(-351.13 712.777)" fill="#4d4d4d"/>
    </g>
    <g id="Group_583" data-name="Group 583" opacity="0.75">
      <path id="Path_657" data-name="Path 657" d="M918.813,758.6l-5.535-2.2L911,750.494a1.418,1.418,0,0,0-2.326-.493l-6.96,6.958a1.413,1.413,0,0,0-.32,1.512l2.1,5.434-3.033,2.932a28.362,28.362,0,1,0-32.7,45.741l-6.186,15.089,5.25,2.15L873,814.731a28.234,28.234,0,0,0,6.778,1.122v12.7h5.674V815.548a28.339,28.339,0,0,0,3.928-.872l6.206,15.141,5.251-2.15-6.224-15.184a28.319,28.319,0,0,0,7.814-43.608l2.936-2.839,5.441,2.163a1.419,1.419,0,0,0,1.527-.316l6.959-6.96a1.419,1.419,0,0,0-.48-2.321Zm-14.442-.289,4.766-4.765,1.376,3.567-4.81,4.65Zm-3.408,29.22a19.954,19.954,0,1,1-6.63-14.777l-3.781,3.655a14.536,14.536,0,0,0-9.465-3.554,14.677,14.677,0,1,0,14.677,14.676,14.527,14.527,0,0,0-3.239-9.083l3.792-3.666A19.782,19.782,0,0,1,900.963,787.533Zm-16.871-4.877a5.688,5.688,0,0,0-3.005-.869,5.746,5.746,0,1,0,5.746,5.745,5.685,5.685,0,0,0-.775-2.831l4.431-4.283a11.726,11.726,0,0,1,2.438,7.115,11.84,11.84,0,1,1-11.84-11.839,11.723,11.723,0,0,1,7.422,2.691Zm26.9-17.438-3.383-1.345,4.891-4.729,3.265,1.3Z" transform="translate(-244.699 958.413)" fill="#4d4d4d"/>
      <g id="Group_580" data-name="Group 580" transform="translate(-470.273 1479.87)">
        <g id="Group_579-2" data-name="Group 579">
          <path id="Path_658" data-name="Path 658" d="M1370.182,241.912l.062-2.782-2.781.06a52.239,52.239,0,0,0-35.936,15.354l-.48.48L1318,249.14l-.411.411-11.879,11.879-4.439,4.439,1.881,1.882,5.029-5.028,10.1,5.285,9.659,9.66.92.919-7.436,7.435,1.882,1.882,7.436-7.435.962.962,9.659,9.659,5.286,10.1-5.028,5.028,1.882,1.882,4.439-4.439,12.291-12.29-5.891-13.042.484-.485A52.222,52.222,0,0,0,1370.182,241.912Zm-51.6,10.41,10.452,4.714-8.925,8.925-9.955-5.211Zm27.193,15.037-3.764-3.764L1331.7,273.9l-6-6.005,9.59-9.591a46.917,46.917,0,0,1,29.419-13.646,46.9,46.9,0,0,1-13.646,29.419l-9.591,9.591-6-6.005Zm11.273,23.43-8.428,8.427-5.211-9.954,8.92-8.921Z" fill="#4d4d4d"/>
          <path id="Path_659-2" data-name="Path 659" d="M1330.732,289.643a70.37,70.37,0,0,1-21.444,10.392A79.62,79.62,0,0,1,1319.7,278.57l1.532-2.176-4.354-3.065-1.532,2.179a83.335,83.335,0,0,0-12.44,27.656l-.826,3.876,3.9-.7a74.236,74.236,0,0,0,27.9-12.406l2.144-1.576-3.151-4.291Z" fill="#4d4d4d"/>
          <path id="Path_660-2" data-name="Path 660" d="M1357.8,258.651a7.081,7.081,0,1,0-7.08,7.081A7.088,7.088,0,0,0,1357.8,258.651Zm-11.5,0a4.419,4.419,0,1,1,4.419,4.419A4.425,4.425,0,0,1,1346.3,258.651Z" fill="#4d4d4d"/>
        </g>
      </g>
      <g id="Group_583-2" data-name="Group 583" transform="translate(-648.225 1190.535)">
        <path id="Path_662-2" data-name="Path 662" d="M1097.069,547.419h-4.75a3.225,3.225,0,0,1-3-2.032l-.253-.637a3.181,3.181,0,0,1,.722-3.462l3.352-3.353a6.831,6.831,0,0,0,0-9.655l-5.043-5.051a6.832,6.832,0,0,0-9.656,0l-3.137,3.13a3.281,3.281,0,0,1-2.3.952,3.065,3.065,0,0,1-1.234-.256q-.429-.187-.864-.364a3.166,3.166,0,0,1-1.954-2.967v-4.431a6.836,6.836,0,0,0-6.828-6.828h-7.133a6.835,6.835,0,0,0-6.829,6.828v4.431a3.161,3.161,0,0,1-1.954,2.967c-.3.118-.579.238-.864.364a3.061,3.061,0,0,1-1.233.255,3.284,3.284,0,0,1-2.3-.951l-3.139-3.13a6.827,6.827,0,0,0-9.655,0h0l-5.043,5.043a6.832,6.832,0,0,0,0,9.657l3.352,3.353a3.182,3.182,0,0,1,.721,3.462c-.086.212-.171.425-.254.637a3.219,3.219,0,0,1-3,2.032h-4.752a6.836,6.836,0,0,0-6.828,6.828v7.142a6.834,6.834,0,0,0,6.828,6.827h5.191a3.2,3.2,0,0,1,2.959,1.938l.127.3a3.211,3.211,0,0,1-.674,3.577l-3.673,3.672a6.83,6.83,0,0,0,0,9.656l5.045,5.045a6.832,6.832,0,0,0,9.654,0l3.893-3.891a3.182,3.182,0,0,1,2.267-.937,3.393,3.393,0,0,1,1.3.259,3.22,3.22,0,0,1,2.024,2.994v5.5a6.835,6.835,0,0,0,6.829,6.827h7.134a6.834,6.834,0,0,0,6.827-6.827v-5.507a3.28,3.28,0,0,1,5.594-2.316l3.891,3.891a6.834,6.834,0,0,0,9.656,0l5.044-5.045a6.832,6.832,0,0,0,0-9.654l-3.674-3.676a3.21,3.21,0,0,1-.675-3.577l.13-.3a3.2,3.2,0,0,1,2.959-1.937h5.188a6.833,6.833,0,0,0,6.828-6.828v-7.134A6.834,6.834,0,0,0,1097.069,547.419Zm-11.449,21.313-.115.268a6.78,6.78,0,0,0,1.425,7.551l3.674,3.673a3.247,3.247,0,0,1,0,4.583l-5.045,5.044a3.248,3.248,0,0,1-4.582,0l-3.891-3.892a6.749,6.749,0,0,0-4.805-1.991,6.969,6.969,0,0,0-2.648.525,6.788,6.788,0,0,0-4.264,6.319v5.5a3.244,3.244,0,0,1-3.24,3.24h-7.134a3.242,3.242,0,0,1-3.241-3.24v-5.5a6.928,6.928,0,0,0-6.9-6.856,6.77,6.77,0,0,0-4.816,2l-3.891,3.891a3.245,3.245,0,0,1-4.581,0l-5.045-5.045a3.239,3.239,0,0,1,0-4.58h0l3.672-3.674a6.77,6.77,0,0,0,1.426-7.55l-.113-.265a6.788,6.788,0,0,0-6.26-4.12h-5.191a3.245,3.245,0,0,1-3.24-3.24v-7.134a3.246,3.246,0,0,1,3.24-3.241h4.753a6.836,6.836,0,0,0,6.348-4.329l.223-.565a6.758,6.758,0,0,0-1.505-7.363l-3.353-3.352a3.243,3.243,0,0,1,0-4.581l5.045-5.045a3.24,3.24,0,0,1,4.582,0h0l3.138,3.139a6.891,6.891,0,0,0,4.841,2,6.62,6.62,0,0,0,2.665-.552c.253-.112.507-.219.766-.324a6.737,6.737,0,0,0,4.2-6.3V519.3a3.243,3.243,0,0,1,3.242-3.24h7.133a3.243,3.243,0,0,1,3.24,3.24v4.431a6.738,6.738,0,0,0,4.2,6.3c.258.1.514.212.769.324a6.586,6.586,0,0,0,2.662.552,6.888,6.888,0,0,0,4.842-2l3.13-3.129a3.238,3.238,0,0,1,4.58,0v0l5.045,5.045a3.245,3.245,0,0,1,0,4.581l-3.352,3.352a6.766,6.766,0,0,0-1.507,7.362l.227.565a6.833,6.833,0,0,0,6.347,4.33h4.75a3.244,3.244,0,0,1,3.24,3.24v7.133a3.244,3.244,0,0,1-3.24,3.24h-5.188a6.786,6.786,0,0,0-6.255,4.115Z" fill="#4d4d4d" stroke="#4d4d4d" stroke-miterlimit="10" stroke-width="2"/>
        <path id="Path_663-2" data-name="Path 663" d="M1060.225,536.075a1.8,1.8,0,0,0-1.788-1.789,22.953,22.953,0,0,0-20.24,33.756,1.436,1.436,0,0,0,.2.286,6.48,6.48,0,1,0,5.389-2.832,6.566,6.566,0,0,0-2.588.537,19.36,19.36,0,0,1,17.243-28.157A1.8,1.8,0,0,0,1060.225,536.075Zm-14.466,33.82a2.867,2.867,0,1,1-2.022-.836,2.866,2.866,0,0,1,2.022.836Z" fill="#4d4d4d" stroke="#4d4d4d" stroke-miterlimit="10" stroke-width="2"/>
        <path id="Path_664-2" data-name="Path 664" d="M1078.5,546.15a6.408,6.408,0,1,0-5.115,2.565,6.327,6.327,0,0,0,2.236-.412,19.362,19.362,0,0,1-17.184,28.275,1.793,1.793,0,1,0,0,3.587,22.952,22.952,0,0,0,20.241-33.753A1.612,1.612,0,0,0,1078.5,546.15Zm-7.137-1.859a2.866,2.866,0,1,1,2.022.836A2.837,2.837,0,0,1,1071.363,544.291Z" fill="#4d4d4d" stroke="#4d4d4d" stroke-miterlimit="10" stroke-width="2"/>
      </g>
    </g>
  </g>
</svg>
