<svg xmlns="http://www.w3.org/2000/svg" width="107.513" height="108.08" viewBox="0 0 107.513 108.08">
  <g id="Group_750" data-name="Group 750" transform="translate(-2583.24 -2837.086)" opacity="0.5">
    <path id="Path_854" data-name="Path 854" d="M2642.162,2873.978l-11.649-4.7-2.214-.893-2.222-.9-21.151-8.54,8.958,22.184.883,2.185.878,2.178,4.317,10.689,5.326-12.027,11.971,13.65,3.06-3.468,3.469-3.059-13.652-11.97Z" transform="translate(44.466 44.863)" fill="none" stroke="#f36f21" stroke-linecap="round" stroke-linejoin="round" stroke-width="5"/>
    <path id="Path_855" data-name="Path 855" d="M2649.127,2938.408a50.226,50.226,0,1,1,34.9-33.6" transform="translate(-0.001)" fill="none" stroke="#f36f21" stroke-linecap="round" stroke-linejoin="round" stroke-width="5"/>
    <path id="Path_856" data-name="Path 856" d="M2633.064,2913.966a35.3,35.3,0,1,1,26.594-25.17" transform="translate(10.436 10.434)" fill="none" stroke="#f36f21" stroke-linecap="round" stroke-linejoin="round" stroke-width="5"/>
    <path id="Path_857" data-name="Path 857" d="M2616.414,2888.037c-.591.057-1.188.083-1.792.083a19.652,19.652,0,1,1,19.65-19.654,19.863,19.863,0,0,1-.3,3.46" transform="translate(21.394 21.391)" fill="none" stroke="#f36f21" stroke-linecap="round" stroke-linejoin="round" stroke-width="5"/>
  </g>
</svg>
