<svg xmlns="http://www.w3.org/2000/svg" width="128.408" height="107.029" viewBox="0 0 128.408 107.029">
  <g id="_14" data-name="14" opacity="0.45">
    <g id="Group_670" data-name="Group 670" transform="translate(0 0)">
      <path id="Path_760" data-name="Path 760" d="M885.054-217.239h-124.2a2.1,2.1,0,0,1-2.1-2.1v-85.949a2.1,2.1,0,0,1,2.1-2.1h124.2a2.1,2.1,0,0,1,2.1,2.1,2.1,2.1,0,0,1-2.1,2.1h-122.1v81.747h120v-73.7a2.1,2.1,0,0,1,2.1-2.1,2.1,2.1,0,0,1,2.1,2.1v75.8A2.1,2.1,0,0,1,885.054-217.239Z" transform="translate(-758.748 307.39)" fill="#8b6fe6"/>
    </g>
    <g id="Group_671" data-name="Group 671" transform="translate(45.804 85.949)">
      <path id="Path_761" data-name="Path 761" d="M822.138-232.475h-32.6a2.1,2.1,0,0,1-2.1-2.1v-16.878a2.1,2.1,0,0,1,2.1-2.1h32.6a2.1,2.1,0,0,1,2.1,2.1,2.1,2.1,0,0,1-2.1,2.1h-30.5v12.676h28.394v-8.881a2.1,2.1,0,0,1,2.1-2.1,2.1,2.1,0,0,1,2.1,2.1v10.982A2.1,2.1,0,0,1,822.138-232.475Z" transform="translate(-787.438 253.555)" fill="#8b6fe6"/>
    </g>
    <g id="Group_672" data-name="Group 672" transform="translate(34.124 102.827)">
      <path id="Path_762" data-name="Path 762" d="M838.182-238.781H782.223a2.1,2.1,0,0,1-2.1-2.1,2.1,2.1,0,0,1,2.1-2.1h55.959a2.1,2.1,0,0,1,2.1,2.1A2.1,2.1,0,0,1,838.182-238.781Z" transform="translate(-780.122 242.983)" fill="#8b6fe6"/>
    </g>
    <g id="Group_673" data-name="Group 673" transform="translate(0 71.58)">
      <path id="Path_763" data-name="Path 763" d="M875.321-258.353H760.849a2.1,2.1,0,0,1-2.1-2.1,2.1,2.1,0,0,1,2.1-2.1H875.321a2.1,2.1,0,0,1,2.1,2.1A2.1,2.1,0,0,1,875.321-258.353Z" transform="translate(-758.748 262.555)" fill="#8b6fe6"/>
    </g>
    <g id="Group_674" data-name="Group 674" transform="translate(90.083 11.15)">
      <path id="Path_764" data-name="Path 764" d="M839.4-247H817.274a2.1,2.1,0,0,1-2.1-2.1v-49.2a2.1,2.1,0,0,1,2.1-2.1H839.4a2.1,2.1,0,0,1,2.1,2.1v49.2A2.1,2.1,0,0,1,839.4-247Zm-20.023-4.2H837.3v-45H819.377Z" transform="translate(-815.173 300.406)" fill="#8b6fe6"/>
    </g>
    <g id="Group_675" data-name="Group 675" transform="translate(12.817 11.15)">
      <path id="Path_765" data-name="Path 765" d="M771.412-296.2h-2.534a2.1,2.1,0,0,1-2.1-2.1,2.1,2.1,0,0,1,2.1-2.1h2.534a2.1,2.1,0,0,1,2.1,2.1A2.1,2.1,0,0,1,771.412-296.2Z" transform="translate(-766.776 300.406)" fill="#8b6fe6"/>
    </g>
    <g id="Group_676" data-name="Group 676" transform="translate(12.817 19.712)">
      <path id="Path_766" data-name="Path 766" d="M771.412-290.842h-2.534a2.1,2.1,0,0,1-2.1-2.1,2.1,2.1,0,0,1,2.1-2.1h2.534a2.1,2.1,0,0,1,2.1,2.1A2.1,2.1,0,0,1,771.412-290.842Z" transform="translate(-766.776 295.043)" fill="#8b6fe6"/>
    </g>
    <g id="Group_677" data-name="Group 677" transform="translate(12.817 28.273)">
      <path id="Path_767" data-name="Path 767" d="M771.412-285.479h-2.534a2.1,2.1,0,0,1-2.1-2.1,2.1,2.1,0,0,1,2.1-2.1h2.534a2.1,2.1,0,0,1,2.1,2.1A2.1,2.1,0,0,1,771.412-285.479Z" transform="translate(-766.776 289.681)" fill="#8b6fe6"/>
    </g>
    <g id="Group_678" data-name="Group 678" transform="translate(12.817 36.835)">
      <path id="Path_768" data-name="Path 768" d="M771.412-280.116h-2.534a2.1,2.1,0,0,1-2.1-2.1,2.1,2.1,0,0,1,2.1-2.1h2.534a2.1,2.1,0,0,1,2.1,2.1A2.1,2.1,0,0,1,771.412-280.116Z" transform="translate(-766.776 284.318)" fill="#8b6fe6"/>
    </g>
    <g id="Group_679" data-name="Group 679" transform="translate(12.817 45.397)">
      <path id="Path_769" data-name="Path 769" d="M771.412-274.753h-2.534a2.1,2.1,0,0,1-2.1-2.1,2.1,2.1,0,0,1,2.1-2.1h2.534a2.1,2.1,0,0,1,2.1,2.1A2.1,2.1,0,0,1,771.412-274.753Z" transform="translate(-766.776 278.955)" fill="#8b6fe6"/>
    </g>
    <g id="Group_680" data-name="Group 680" transform="translate(98.067 19.35)">
      <path id="Path_770" data-name="Path 770" d="M828.433-291.068h-6.158a2.1,2.1,0,0,1-2.1-2.1,2.1,2.1,0,0,1,2.1-2.1h6.158a2.1,2.1,0,0,1,2.1,2.1A2.1,2.1,0,0,1,828.433-291.068Z" transform="translate(-820.174 295.27)" fill="#8b6fe6"/>
    </g>
    <g id="Group_681" data-name="Group 681" transform="translate(98.067 27.727)">
      <path id="Path_771" data-name="Path 771" d="M828.433-285.821h-6.158a2.1,2.1,0,0,1-2.1-2.1,2.1,2.1,0,0,1,2.1-2.1h6.158a2.1,2.1,0,0,1,2.1,2.1A2.1,2.1,0,0,1,828.433-285.821Z" transform="translate(-820.174 290.023)" fill="#8b6fe6"/>
    </g>
    <g id="Group_682" data-name="Group 682" transform="translate(98.067 36.105)">
      <path id="Path_772" data-name="Path 772" d="M828.433-280.575h-6.158a2.1,2.1,0,0,1-2.1-2.1,2.1,2.1,0,0,1,2.1-2.1h6.158a2.1,2.1,0,0,1,2.1,2.1A2.1,2.1,0,0,1,828.433-280.575Z" transform="translate(-820.174 284.775)" fill="#8b6fe6"/>
    </g>
    <g id="Group_683" data-name="Group 683" transform="translate(98.067 44.482)">
      <path id="Path_773" data-name="Path 773" d="M828.433-275.326h-6.158a2.1,2.1,0,0,1-2.1-2.1,2.1,2.1,0,0,1,2.1-2.1h6.158a2.1,2.1,0,0,1,2.1,2.1A2.1,2.1,0,0,1,828.433-275.326Z" transform="translate(-820.174 279.528)" fill="#8b6fe6"/>
    </g>
    <g id="Group_684" data-name="Group 684" transform="translate(98.067 52.859)">
      <path id="Path_774" data-name="Path 774" d="M828.433-270.079h-6.158a2.1,2.1,0,0,1-2.1-2.1,2.1,2.1,0,0,1,2.1-2.1h6.158a2.1,2.1,0,0,1,2.1,2.1A2.1,2.1,0,0,1,828.433-270.079Z" transform="translate(-820.174 274.281)" fill="#8b6fe6"/>
    </g>
    <g id="Group_685" data-name="Group 685" transform="translate(26.068 60.725)">
      <path id="Path_775" data-name="Path 775" d="M829.79-265.152H777.179a2.1,2.1,0,0,1-2.1-2.1,2.1,2.1,0,0,1,2.1-2.1H829.79a2.1,2.1,0,0,1,2.1,2.1A2.1,2.1,0,0,1,829.79-265.152Z" transform="translate(-775.076 269.354)" fill="#8b6fe6"/>
    </g>
    <g id="Group_686" data-name="Group 686" transform="translate(26.068 11.15)">
      <path id="Path_776" data-name="Path 776" d="M829.79-296.2H777.179a2.1,2.1,0,0,1-2.1-2.1,2.1,2.1,0,0,1,2.1-2.1H829.79a2.1,2.1,0,0,1,2.1,2.1A2.1,2.1,0,0,1,829.79-296.2Z" transform="translate(-775.076 300.406)" fill="#8b6fe6"/>
    </g>
    <g id="Group_687" data-name="Group 687" transform="translate(59.86 40.475)">
      <path id="Path_777" data-name="Path 777" d="M798.344-269.8a2.093,2.093,0,0,1-1.44-.57,2.1,2.1,0,0,1-.091-2.97l7.547-8.034a2.105,2.105,0,0,1,1.531-.661h0a2.1,2.1,0,0,1,1.531.663l7.547,8.032a2.1,2.1,0,0,1-.093,2.97,2.1,2.1,0,0,1-2.969-.093l-6.016-6.4-6.016,6.4A2.094,2.094,0,0,1,798.344-269.8Z" transform="translate(-796.243 282.038)" fill="#8b6fe6"/>
    </g>
    <g id="Group_688" data-name="Group 688" transform="translate(30.994 29.963)">
      <path id="Path_778" data-name="Path 778" d="M780.263-265.876a2.093,2.093,0,0,1-1.44-.57,2.1,2.1,0,0,1-.091-2.97l17.426-18.545a2.1,2.1,0,0,1,1.525-.661h.006a2.106,2.106,0,0,1,1.523.653l9.509,10a2.1,2.1,0,0,1-.077,2.971,2.1,2.1,0,0,1-2.969-.075l-7.978-8.393-15.9,16.923A2.093,2.093,0,0,1,780.263-265.876Z" transform="translate(-778.162 288.622)" fill="#8b6fe6"/>
    </g>
    <g id="Group_689" data-name="Group 689" transform="translate(67.407 22.991)">
      <path id="Path_779" data-name="Path 779" d="M807.063-280.8a6.1,6.1,0,0,1-6.092-6.092,6.1,6.1,0,0,1,6.092-6.092,6.1,6.1,0,0,1,6.094,6.092A6.1,6.1,0,0,1,807.063-280.8Zm0-7.983a1.892,1.892,0,0,0-1.889,1.89,1.892,1.892,0,0,0,1.889,1.89,1.893,1.893,0,0,0,1.89-1.89A1.893,1.893,0,0,0,807.063-288.787Z" transform="translate(-800.97 292.989)" fill="#8b6fe6"/>
    </g>
  </g>
</svg>
