<svg xmlns="http://www.w3.org/2000/svg" width="112.355" height="102.308" viewBox="0 0 112.355 102.308">
  <g id="Group_742" data-name="Group 742" transform="translate(0.96 0.99)" opacity="0.5">
    <path id="Path_838" data-name="Path 838" d="M2632.268,2785.85l27.221-25.117,9.42-19.045c2.045-4.133,10.125-2.717,11.765,1.593,1.627,4.275-.192,15.612-2.442,19.674l-8.626,15.555,31.673-1.955c4.609-.281,9,3.128,9,7.743h0c0,4.616-3.138,8.658-7.747,9h0a8.363,8.363,0,0,1,3.03,5.833h0a8.387,8.387,0,0,0-2.55,15.346h0a8.387,8.387,0,0,0-2.553,15.347h0c.348,4.606-3.128,8.9-7.743,9l-33.959.741c-12.365.267-23.17-6.616-29.444-16.032" transform="translate(-2599.846 -2739.22)" fill="none" stroke="#f05269" stroke-linecap="round" stroke-linejoin="round" stroke-width="1.92"/>
    <path id="Path_839" data-name="Path 839" d="M2627.319,2749.616h15.537a6.492,6.492,0,0,1,6.473,6.473v51.247a6.49,6.49,0,0,1-6.473,6.474h-15.537a6.494,6.494,0,0,1-6.477-6.474v-51.247a6.5,6.5,0,0,1,6.477-6.473Zm7.314,46.116a2.9,2.9,0,1,1-2.9,2.9,2.9,2.9,0,0,1,2.9-2.9Z" transform="translate(-2620.842 -2713.453)" fill="none" stroke="#f05269" stroke-miterlimit="22.926" stroke-width="1.92"/>
  </g>
</svg>
