<svg xmlns="http://www.w3.org/2000/svg" width="117.64" height="117.891" viewBox="0 0 117.64 117.891">
  <g id="Group_552" data-name="Group 552" transform="translate(-223.446 -426.412)">
    <path id="Path_591" data-name="Path 591" d="M311.037,512.76a27.4,27.4,0,0,0,0-37.335c.138-1.391.283-3.538.283-5.073a43.937,43.937,0,1,0-75.007,31.067,44.76,44.76,0,0,0,4.572,3.927l0,0c.008.011.021.013.03.021a43.66,43.66,0,0,0,26.445,8.914l.021,0,.013,0,.055,0a24.207,24.207,0,0,0,3.578-.133l.964-.093a27.4,27.4,0,0,0,37.549.194l29.739,29.739a1.057,1.057,0,1,0,1.5-1.495Zm-1.831-42.408c0,.924-.059,2.081-.133,3.153a27.265,27.265,0,0,0-17.808-6.9,47.187,47.187,0,0,0-7.173-22.661,37.423,37.423,0,0,0,9.326-6.3,41.481,41.481,0,0,1,15.788,32.71Zm-40.765,40.626v-1.015c.148.209.3.415.453.618C268.688,510.77,268.553,510.886,268.441,510.977Zm-2.115-4.276v4.143A62.675,62.675,0,0,1,254.3,497.853a34.849,34.849,0,0,1,9.152-2.127,27.453,27.453,0,0,0,2.9,10.813A.858.858,0,0,0,266.326,506.7Zm-1.895,5.327a41.376,41.376,0,0,1-21.084-7.486,35.717,35.717,0,0,1,8.958-5.877A64.237,64.237,0,0,0,264.431,512.028ZM263.4,493.6a36.871,36.871,0,0,0-10.275,2.443,48.365,48.365,0,0,1-7.577-24.638h20.777v10.083a.949.949,0,0,0,.032.154A27.536,27.536,0,0,0,263.4,493.6Zm5.039-63.926a64.334,64.334,0,0,1,12.525,13.35,36.741,36.741,0,0,1-12.525,2.514Zm2.132-1a41.353,41.353,0,0,1,21.107,7.668,35.4,35.4,0,0,1-8.746,5.794A65.459,65.459,0,0,0,270.572,428.683Zm-4.246,1.007v15.854a36.8,36.8,0,0,1-12.3-2.432A62.388,62.388,0,0,1,266.326,429.69Zm-14.268,12.557a35.436,35.436,0,0,1-8.973-5.9,41.371,41.371,0,0,1,21.13-7.67A63.907,63.907,0,0,0,252.058,442.247Zm14.268,5.412v21.636H245.543a48.286,48.286,0,0,1,7.3-24.376A38.891,38.891,0,0,0,266.326,447.659Zm2.115,23.75h6.885a26.333,26.333,0,0,0-6.885,6.811Zm10.478-2.072a1.048,1.048,0,0,0-.218-.042H268.441V447.659a38.913,38.913,0,0,0,13.7-2.838,45.164,45.164,0,0,1,7.008,21.847A27.3,27.3,0,0,0,278.919,469.336Zm-41.11-28.561a42.179,42.179,0,0,1,3.538-3.134,37.509,37.509,0,0,0,9.556,6.4,50.287,50.287,0,0,0-7.475,25.25H225.611A41.524,41.524,0,0,1,237.809,440.775Zm-12.2,30.634h17.823a50.411,50.411,0,0,0,7.71,25.474,37.932,37.932,0,0,0-9.533,6.37,42.059,42.059,0,0,1-3.8-3.329A41.519,41.519,0,0,1,225.611,471.409Zm47.306,40.638a25.394,25.394,0,1,1,17.956,7.437A25.226,25.226,0,0,1,272.918,512.047Z" transform="translate(0 0)" fill="#f36f21"/>
    <path id="Path_592" data-name="Path 592" d="M264.6,476.584a16.891,16.891,0,0,1-16.871-16.871,1.057,1.057,0,0,0-2.115,0A19.009,19.009,0,0,0,264.6,478.7a1.057,1.057,0,0,0,0-2.115Z" transform="translate(24.711 35.942)" fill="#f36f21"/>
  </g>
</svg>
