<svg xmlns="http://www.w3.org/2000/svg" width="116.18" height="107.773" viewBox="0 0 116.18 107.773">
  <g id="Group_538" data-name="Group 538" opacity="0.45">
    <path id="Path_578" data-name="Path 578" d="M284.511,1726.484h-.547a8.552,8.552,0,0,1-5.447-1.488,18.389,18.389,0,0,1-2.975-4.546c-.711-1.516-21.373-51.263-32.2-77.355a1.893,1.893,0,0,0-1.748-1.167h-5.921a1.893,1.893,0,0,0-1.725,1.114l-35.24,77.968a18.064,18.064,0,0,1-1.713,3.128,3.934,3.934,0,0,1-1.217,1.117,5.235,5.235,0,0,1-1.876.513c-1.051.125-2.482.366-4.254.718h-.179a1.893,1.893,0,0,0-1.893,1.893v4.748a1.893,1.893,0,0,0,1.893,1.893h26.6a1.893,1.893,0,0,0,1.893-1.893v-5.207a1.893,1.893,0,0,0-1.669-1.88c-1.122-.134-2.026-.248-2.849-.36-1.414-.19-1.775-.607-1.879-.963.683-1.806,4.116-9.839,6.018-14.292.867-2.029,1.5-3.5,1.894-4.442h32.354l7,16.911c.017.04.035.079.054.118a2.867,2.867,0,0,1,.37,1.627c-.04.275-.117.334-.223.388a14.8,14.8,0,0,1-3.774,1.118,26.446,26.446,0,0,1-2.7.283,1.893,1.893,0,0,0-1.784,1.89v4.809a1.893,1.893,0,0,0,1.893,1.893h31.653a1.893,1.893,0,0,0,1.892-1.821l.182-4.748a1.894,1.894,0,0,0-1.892-1.966Zm-2,4.748H254.569v-1.175c.444-.049.874-.108,1.295-.176a18.594,18.594,0,0,0,4.777-1.426l.061-.029a4.191,4.191,0,0,0,2.308-3.257,6.5,6.5,0,0,0-.7-3.783l-7.465-18.024a1.893,1.893,0,0,0-1.749-1.168H218.218a1.9,1.9,0,0,0-1.773,1.228c-.115.3-1.2,2.834-2.341,5.513-6.364,14.895-6.364,15.017-6.364,15.606,0,.044,0,.089,0,.133.108,1.53.926,4.183,5.2,4.756.391.053.8.107,1.239.163v1.638H191.361v-1.223c1.224-.23,2.224-.392,2.98-.482a8.921,8.921,0,0,0,3.249-.949,7.672,7.672,0,0,0,2.433-2.169,21.852,21.852,0,0,0,2.128-3.826l34.743-76.868h3.435c4.111,9.907,30.916,74.494,31.784,76.344a22.089,22.089,0,0,0,3.7,5.59,1.921,1.921,0,0,0,.17.164,11.192,11.192,0,0,0,6.565,2.407Z" transform="translate(-187.575 -1627.246)" fill="#5a99d2"/>
    <path id="Path_579" data-name="Path 579" d="M313.862,1706.426a1.893,1.893,0,0,0-1.74-1.167h-.008a1.893,1.893,0,0,0-1.742,1.152l-15.158,35.612a1.893,1.893,0,0,0,1.742,2.635h29.95a1.893,1.893,0,0,0,1.748-2.619Zm-14.043,34.445,12.273-28.835,11.977,28.835Z" transform="translate(-263.756 -1672.131)" fill="#5a99d2"/>
    <path id="Path_580" data-name="Path 580" d="M553.427,1645.714v-3.786H539.848v3.786h4.9v85.353h-4.9v3.786h13.579v-3.786h-4.9v-85.353Z" transform="translate(-437.246 -1627.245)" fill="#5a99d2"/>
    <path id="Path_581" data-name="Path 581" d="M191.362,1600.2h91.076v4.9h3.786v-13.579h-3.786v4.9H191.362v-4.9h-3.786V1605.1h3.786Z" transform="translate(-187.575 -1591.518)" fill="#5a99d2"/>
  </g>
</svg>
