<svg xmlns="http://www.w3.org/2000/svg" width="98.842" height="95.187" viewBox="0 0 98.842 95.187">
  <g id="Group_743" data-name="Group 743" transform="translate(0.96 0.96)">
    <path id="Path_840" data-name="Path 840" d="M2745.564,2744.327h-74.453a11.234,11.234,0,0,0-11.233,11.236v49.474a11.232,11.232,0,0,0,11.233,11.232h14.347l20.227,20.227a3.753,3.753,0,0,0,5.305,0l20.226-20.227h14.348a11.233,11.233,0,0,0,11.235-11.232v-49.474A11.236,11.236,0,0,0,2745.564,2744.327Zm-15.837,38.277a20.658,20.658,0,0,1-3.773,4.985,130.9,130.9,0,0,1-13.728,12.2c-1.264,1.009-2.554,1.99-3.9,3.038-1.625-1.274-3.222-2.5-4.792-3.76a121.845,121.845,0,0,1-11.939-10.574,33.688,33.688,0,0,1-4.128-5.009,11.915,11.915,0,0,1-1.2-10.045,12.079,12.079,0,0,1,8.153-8.611,11.707,11.707,0,0,1,12.857,4.112c.355.455.671.938,1.058,1.486.162-.238.3-.441.439-.648a11.805,11.805,0,0,1,7.91-5.3,11.4,11.4,0,0,1,10.381,3.267A13.229,13.229,0,0,1,2729.727,2782.6Z" transform="translate(-2659.877 -2744.327)" fill="none" stroke="#5a99d2" stroke-linecap="round" stroke-linejoin="round" stroke-width="1.92"/>
  </g>
</svg>
