<svg xmlns="http://www.w3.org/2000/svg" width="97.02" height="128.626" viewBox="0 0 97.02 128.626">
  <path id="Path_584" data-name="Path 584" d="M1006.569,1588.772a1.893,1.893,0,0,0-.769-1.523l-46.617-34.409a1.9,1.9,0,0,0-2.249,0l-46.617,34.409a1.893,1.893,0,0,0-.769,1.523c0,.014,0,.027,0,.042s0,.032,0,.048v55.754a1.892,1.892,0,0,0,.768,1.522l46.785,34.588a1.893,1.893,0,0,0,1.126.371l.035,0,.035,0a1.9,1.9,0,0,0,1.132-.375l46.378-34.587a1.9,1.9,0,0,0,.761-1.518v-55.754c0-.016,0-.032,0-.048S1006.569,1588.786,1006.569,1588.772Zm-91.939,0,2.444-1.8,40.985-30.252,40.985,30.252,2.444,1.8-.121.089-2.565,1.893-16.331,12.055L980,1600.985l-13.8-10.229-2.553-1.893-2.553-1.893-1.1-.815a1.89,1.89,0,0,0-2.851-.722l-2.055,1.537-1.3.972-1.248.921-2.565,1.893-16.332,12.055-16.331-12.055-2.565-1.893Zm-1.295,3.751L931.6,1606v28.7a2.514,2.514,0,0,0,.9,1.723l23.832,17.591v21.43l-43-31.789Zm66.233,42.382-16.17,11.936-3.188,2.353-.019.014-.018.013-.053.039-.08.059-1.723,1.272-.02.014-.018.013-.053.039-.036.026-.007-.005-.037-.027-1.723-1.272-.019-.014-.071-.052-.042-.031-19.477-14.377.066-.049.026-.02,19.347-14.281.037-.027.042-.031.053-.039.018-.013.019-.014,1.723-1.272.037-.027.007-.005.036.026.053.039.018.013.02.014,1.723,1.272.037.027.042.031.053.039.018.013.019.014,19.169,14.149.106.078Zm-23.182-44.174v25.021l-.053.039-.042.031-.037.028-20.734,15.3v-24.82l1.351-1.011,2.531-1.893,16.641-12.446.291-.218.053-.04ZM977.708,1604l1.786,1.324,1.37,1.016v24.815l-.13-.1L960.21,1615.91v-24.884l16.73,12.4Zm25.075,39.666-42.591,31.764v-21.474l5.467-4.077,18.223-13.451a1.893,1.893,0,0,0,.769-1.523c0-.023,0-.047,0-.07s0-.046,0-.07v-28.858l18.133-13.385Z" transform="translate(-909.549 -1552.47)" fill="#8b6fe6" opacity="0.45"/>
</svg>
