<svg xmlns="http://www.w3.org/2000/svg" width="106" height="102.148" viewBox="0 0 106 102.148">
  <g id="Group_745" data-name="Group 745" transform="translate(0.96 0.96)" opacity="0.5">
    <path id="Path_848" data-name="Path 848" d="M2831,2738.7h1.013a6.279,6.279,0,0,1,6.261,6.265v81.433a6.279,6.279,0,0,1-6.261,6.265H2831c-3.486,0-25.083-31.928-48.205-31.928h-28.781a8.513,8.513,0,0,1-8.488-8.484v-13.135a8.512,8.512,0,0,1,8.488-8.488H2782.8c23.125,0,44.719-31.927,48.205-31.927Z" transform="translate(-2745.527 -2738.696)" fill="none" stroke="#f05269" stroke-linecap="round" stroke-linejoin="round" stroke-width="1.92"/>
    <path id="Path_849" data-name="Path 849" d="M2773.537,2748.294a15.866,15.866,0,0,1,0,30.465" transform="translate(-2680.884 -2716.546)" fill="none" stroke="#f05269" stroke-linecap="round" stroke-linejoin="round" stroke-width="1.92"/>
    <line id="Line_114" data-name="Line 114" y2="30.109" transform="translate(37.816 31.927)" fill="none" stroke="#f05269" stroke-linecap="round" stroke-linejoin="round" stroke-width="1.92"/>
    <path id="Path_850" data-name="Path 850" d="M2768.1,2757.45c1.168,6.658-.542,13.609,3.506,19.979l6.854,10.787c1.723,2.713-1.059,7.427-4.165,7.427H2764.01a7.8,7.8,0,0,1-7.152-5.657l-7.707-32.536Z" transform="translate(-2737.161 -2695.414)" fill="none" stroke="#f05269" stroke-linecap="round" stroke-linejoin="round" stroke-width="1.92"/>
  </g>
</svg>
