<svg xmlns="http://www.w3.org/2000/svg" width="112.16" height="113.354" viewBox="0 0 112.16 113.354">
  <g id="Group_539" data-name="Group 539" opacity="0.45">
    <path id="Path_582" data-name="Path 582" d="M2336.292,190.593h-10a1.893,1.893,0,0,0-1.893,1.893v3.106H2289v-3.106a1.893,1.893,0,0,0-1.893-1.893h-10a1.893,1.893,0,0,0-1.893,1.893v3.106h-35.4v-3.106a1.893,1.893,0,0,0-1.893-1.893h-10a1.893,1.893,0,0,0-1.893,1.893v10a1.893,1.893,0,0,0,1.893,1.893h10a1.893,1.893,0,0,0,1.893-1.893v-3.106h28.256a43.355,43.355,0,0,0-28.456,37.227h-4.54a1.893,1.893,0,0,0-1.893,1.893v10a1.893,1.893,0,0,0,1.893,1.893h10a1.893,1.893,0,0,0,1.893-1.893v-10a1.893,1.893,0,0,0-1.893-1.893h-1.657a39.392,39.392,0,0,1,31.8-35.234v1.113a1.893,1.893,0,0,0,1.893,1.893h10a1.893,1.893,0,0,0,1.893-1.893v-1.113a39.392,39.392,0,0,1,31.8,35.234h-1.657a1.893,1.893,0,0,0-1.893,1.893v10a1.893,1.893,0,0,0,1.893,1.893h10a1.893,1.893,0,0,0,1.893-1.893v-10a1.893,1.893,0,0,0-1.893-1.893h-4.54a43.355,43.355,0,0,0-28.456-37.227H2324.4v3.106a1.893,1.893,0,0,0,1.893,1.893h10a1.893,1.893,0,0,0,1.893-1.893v-10A1.893,1.893,0,0,0,2336.292,190.593Zm-100.269,8.785v1.213h-6.212v-6.212h6.212v5Zm.94,41.013h6.211V246.6h-6.211Zm90.285,6.212h-6.212v-6.212h6.212Zm-42.036-46.012H2279v-6.212h6.212v6.212Zm42.976-1.213v-5h6.212v6.212h-6.212Z" transform="translate(-2226.025 -190.593)" fill="#f05269"/>
    <path id="Path_583" data-name="Path 583" d="M2375.466,291.7a80.262,80.262,0,0,1-6.165-20.475,5.99,5.99,0,1,0-9.556.009,80.144,80.144,0,0,1-6.127,20.487c-3.758,8.212-10.78,17.2-10.851,17.29a1.9,1.9,0,0,0-.34,1.657l7.771,29.126a7.493,7.493,0,0,0,2.628,14.51h.007l23.552-.02a7.493,7.493,0,0,0,2.6-14.518l7.708-29.141a1.894,1.894,0,0,0-.343-1.656C2386.278,308.879,2379.24,299.9,2375.466,291.7Zm-.275,47.6-21.2.018-7.664-28.723a103.641,103.641,0,0,0,10.734-17.3,84.722,84.722,0,0,0,5.573-16.872l.026,28.226a8.224,8.224,0,0,0,1.9,16.226h.007a8.224,8.224,0,0,0,1.878-16.228l-.027-28.234a84.8,84.8,0,0,0,5.605,16.867,103.644,103.644,0,0,0,10.767,17.278Zm-15.067-26.643a4.438,4.438,0,1,1,4.442,4.435l0,1.893v-1.893A4.444,4.444,0,0,1,2360.124,312.654Zm6.6-45.026a2.229,2.229,0,0,1-.309,1.122V267.63l-3.786,0v1.121a2.2,2.2,0,1,1,4.1-1.126Zm-17.6,79.184a3.721,3.721,0,0,1,3.7-3.711h.218l23.107-.019h.23a3.707,3.707,0,0,1,0,7.414l-23.552.02,0,1.893v-1.893A3.712,3.712,0,0,1,2349.119,346.813Z" transform="translate(-2308.479 -240.949)" fill="#f05269"/>
  </g>
</svg>
