<svg xmlns="http://www.w3.org/2000/svg" width="123.523" height="91.283" viewBox="0 0 123.523 91.283">
  <g id="Group_526" data-name="Group 526" transform="translate(-2282 -310.157)" opacity="0.6">
    <path id="Path_517" data-name="Path 517" d="M2413.171,377.693a33.768,33.768,0,1,1,33.768-33.768A33.807,33.807,0,0,1,2413.171,377.693Zm0-63.315a29.547,29.547,0,1,0,29.547,29.547A29.581,29.581,0,0,0,2413.171,314.378Z" transform="translate(-69.996)" fill="#5a99d2"/>
    <path id="Path_518" data-name="Path 518" d="M2606.6,539.465a2.1,2.1,0,0,1-1.492-.618l-33.019-33.019a2.111,2.111,0,0,1,2.985-2.985l33.019,33.019a2.111,2.111,0,0,1-1.492,3.6Z" transform="translate(-208.023 -138.026)" fill="#5a99d2"/>
    <path id="Path_519" data-name="Path 519" d="M2318.11,467.534a2.11,2.11,0,0,1-2.11-2.11V462.61a2.11,2.11,0,0,1,4.221,0v2.814A2.11,2.11,0,0,1,2318.11,467.534Z" transform="translate(-24.433 -108.04)" fill="#5a99d2"/>
    <path id="Path_520" data-name="Path 520" d="M2284.11,450.287a2.11,2.11,0,0,1-2.11-2.11V438.61a2.11,2.11,0,0,1,4.221,0v9.567A2.11,2.11,0,0,1,2284.11,450.287Z" transform="translate(0 -90.793)" fill="#5a99d2"/>
    <path id="Path_521" data-name="Path 521" d="M2353.11,437.352a2.11,2.11,0,0,1-2.11-2.11V420.61a2.11,2.11,0,0,1,4.221,0v14.632A2.11,2.11,0,0,1,2353.11,437.352Z" transform="translate(-49.585 -77.858)" fill="#5a99d2"/>
    <path id="Path_522" data-name="Path 522" d="M2423.11,438.071a2.11,2.11,0,0,1-2.11-2.11V421.61a2.11,2.11,0,0,1,4.221,0v14.35A2.11,2.11,0,0,1,2423.11,438.071Z" transform="translate(-99.889 -78.577)" fill="#5a99d2"/>
    <path id="Path_523" data-name="Path 523" d="M2460.11,425.135a2.11,2.11,0,0,1-2.11-2.11V403.61a2.11,2.11,0,0,1,4.221,0v19.415A2.11,2.11,0,0,1,2460.11,425.135Z" transform="translate(-126.478 -65.641)" fill="#5a99d2"/>
    <path id="Path_524" data-name="Path 524" d="M2497.11,392.079a2.11,2.11,0,0,1-2.11-2.11V357.61a2.11,2.11,0,0,1,4.221,0v32.358A2.11,2.11,0,0,1,2497.11,392.079Z" transform="translate(-153.067 -32.585)" fill="#5a99d2"/>
    <path id="Path_525" data-name="Path 525" d="M2533.11,392.079a2.11,2.11,0,0,1-2.11-2.11V357.61a2.11,2.11,0,1,1,4.22,0v32.358A2.11,2.11,0,0,1,2533.11,392.079Z" transform="translate(-178.938 -32.585)" fill="#5a99d2"/>
    <path id="Path_526" data-name="Path 526" d="M2570.11,436.633a2.11,2.11,0,0,1-2.11-2.11V419.61a2.11,2.11,0,0,1,4.221,0v14.913A2.11,2.11,0,0,1,2570.11,436.633Z" transform="translate(-205.527 -77.139)" fill="#5a99d2"/>
    <path id="Path_527" data-name="Path 527" d="M2637.11,440.227a2.11,2.11,0,0,1-2.11-2.11V424.61a2.11,2.11,0,0,1,4.221,0v13.506A2.11,2.11,0,0,1,2637.11,440.227Z" transform="translate(-253.675 -80.733)" fill="#5a99d2"/>
    <path id="Path_528" data-name="Path 528" d="M2672.11,414.356a2.11,2.11,0,0,1-2.11-2.11V388.61a2.11,2.11,0,0,1,4.221,0v23.635A2.11,2.11,0,0,1,2672.11,414.356Z" transform="translate(-278.827 -54.862)" fill="#5a99d2"/>
    <path id="Path_529" data-name="Path 529" d="M2708.11,429.447a2.11,2.11,0,0,1-2.11-2.11V409.61a2.11,2.11,0,0,1,4.221,0v17.727A2.11,2.11,0,0,1,2708.11,429.447Z" transform="translate(-304.697 -69.953)" fill="#5a99d2"/>
  </g>
</svg>
