<svg xmlns="http://www.w3.org/2000/svg" width="87.268" height="125.14" viewBox="0 0 87.268 125.14">
  <g id="Group_587" data-name="Group 587" transform="translate(-279.865 54.734)" opacity="0.45">
    <line id="Line_89" data-name="Line 89" x2="49.327" transform="translate(298.502 3.989)" fill="none" stroke="#8b6fe6" stroke-linecap="round" stroke-linejoin="round" stroke-width="3"/>
    <line id="Line_90" data-name="Line 90" x2="49.327" transform="translate(298.502 15.227)" fill="none" stroke="#8b6fe6" stroke-linecap="round" stroke-linejoin="round" stroke-width="3"/>
    <line id="Line_91" data-name="Line 91" x2="28.774" transform="translate(298.502 26.465)" fill="none" stroke="#8b6fe6" stroke-linecap="round" stroke-linejoin="round" stroke-width="3"/>
    <path id="Path_672" data-name="Path 672" d="M364.491-34.142H345.653L345.49-35.4a22.268,22.268,0,0,0-6.332-12.821A21.991,21.991,0,0,0,323.5-54.734a22.006,22.006,0,0,0-15.65,6.511,22.019,22.019,0,0,0-6.528,15.662v14.675a2.645,2.645,0,0,0,2.642,2.64,2.643,2.643,0,0,0,2.638-2.64V-32.562A16.807,16.807,0,0,1,311.557-44.5,16.807,16.807,0,0,1,323.5-49.456a16.764,16.764,0,0,1,11.927,4.967,16.931,16.931,0,0,1,4.64,8.618l.348,1.729H318.508a2.642,2.642,0,0,0-2.642,2.638,2.645,2.645,0,0,0,2.642,2.642H340.4v10.976a2.642,2.642,0,0,0,2.638,2.64,2.643,2.643,0,0,0,2.64-2.64V-28.862h16.179V43.369h-76.71V-28.862h5.38a2.643,2.643,0,0,0,2.638-2.642,2.64,2.64,0,0,0-2.638-2.638h-8.018a2.642,2.642,0,0,0-2.64,2.638v99.27a2.643,2.643,0,0,0,2.64,2.64h81.986a2.644,2.644,0,0,0,2.642-2.64V-31.5A2.642,2.642,0,0,0,364.491-34.142Zm-2.638,99.268h-76.71V48.649h76.71Z" transform="translate(0 0)" fill="#8b6fe6"/>
  </g>
</svg>
