<svg xmlns="http://www.w3.org/2000/svg" width="112.841" height="119.371" viewBox="0 0 112.841 119.371">
  <g id="Group_557" data-name="Group 557" transform="translate(-123.065 -424.75)" opacity="0.45">
    <path id="Path_596" data-name="Path 596" d="M160.009,470.768H157.6a16.625,16.625,0,0,0-16.607,16.607v2.565a1.076,1.076,0,0,0,1.077,1.077h33.473a1.076,1.076,0,0,0,1.077-1.077v-2.565A16.627,16.627,0,0,0,160.009,470.768Zm14.453,18.1H143.143v-1.488A14.468,14.468,0,0,1,157.6,472.922h2.412a14.468,14.468,0,0,1,14.453,14.453Z" transform="translate(20.684 53.104)" fill="#5a99d2"/>
    <path id="Path_597" data-name="Path 597" d="M144.781,470.432a9.646,9.646,0,1,0,9.645-9.648A9.656,9.656,0,0,0,144.781,470.432Zm17.137,0a7.492,7.492,0,1,1-7.492-7.494A7.5,7.5,0,0,1,161.918,470.432Z" transform="translate(25.06 41.582)" fill="#5a99d2"/>
    <path id="Path_598" data-name="Path 598" d="M177.932,434.733h-2.412a16.625,16.625,0,0,0-16.607,16.607v2.568a1.076,1.076,0,0,0,1.077,1.077h33.473a1.077,1.077,0,0,0,1.077-1.077V451.34A16.625,16.625,0,0,0,177.932,434.733Zm14.453,18.1H161.066V451.34a14.469,14.469,0,0,1,14.453-14.453h2.412a14.469,14.469,0,0,1,14.453,14.453Z" transform="translate(41.367 11.52)" fill="#5a99d2"/>
    <path id="Path_599" data-name="Path 599" d="M182,434.4a9.646,9.646,0,1,0-9.645,9.646A9.657,9.657,0,0,0,182,434.4Zm-17.137,0a7.492,7.492,0,1,1,7.492,7.492A7.5,7.5,0,0,1,164.858,434.4Z" transform="translate(45.743 0)" fill="#5a99d2"/>
    <path id="Path_600" data-name="Path 600" d="M142.087,434.733h-2.415a16.627,16.627,0,0,0-16.607,16.607v2.568a1.077,1.077,0,0,0,1.077,1.077h33.475a1.077,1.077,0,0,0,1.077-1.077V451.34A16.627,16.627,0,0,0,142.087,434.733Zm14.453,18.1H125.219V451.34a14.471,14.471,0,0,1,14.453-14.453h2.415A14.469,14.469,0,0,1,156.54,451.34Z" transform="translate(0 11.52)" fill="#5a99d2"/>
    <path id="Path_601" data-name="Path 601" d="M146.149,434.4a9.646,9.646,0,1,0-9.645,9.646A9.657,9.657,0,0,0,146.149,434.4Zm-17.137,0a7.492,7.492,0,1,1,7.492,7.492A7.5,7.5,0,0,1,129.012,434.4Z" transform="translate(4.377 0)" fill="#5a99d2"/>
    <path id="Path_602" data-name="Path 602" d="M166.045,445.2a1.078,1.078,0,0,0-1.523,0l-6.18,6.18a5.852,5.852,0,0,0-6.221.013l-6.195-6.193a1.077,1.077,0,0,0-1.523,1.523l6.184,6.182a5.623,5.623,0,0,0,3.578,8.676v8.739a1.077,1.077,0,1,0,2.154,0v-8.739a5.621,5.621,0,0,0,3.563-8.7l6.163-6.163A1.078,1.078,0,0,0,166.045,445.2ZM157.7,458.518a3.554,3.554,0,0,1-4.909,0,3.467,3.467,0,0,1,4.842-4.963c.011.011.015.026.026.039s.043.024.063.041a3.466,3.466,0,0,1-.022,4.883Z" transform="translate(24.261 23.241)" fill="#5a99d2"/>
  </g>
</svg>
