<svg xmlns="http://www.w3.org/2000/svg" width="151.172" height="109.735" viewBox="0 0 151.172 109.735">
  <path id="Path_609" data-name="Path 609" d="M572.707,501.458H556.728A20.635,20.635,0,0,0,536.175,482.2H499.853V466.277h15.908a1.365,1.365,0,0,0,1.365-1.365V430.365A1.365,1.365,0,0,0,515.761,429H481.213a1.363,1.363,0,0,0-1.365,1.365v34.548a1.363,1.363,0,0,0,1.365,1.365h15.911V482.2H460.8a20.631,20.631,0,0,0-20.55,19.259H424.265a1.363,1.363,0,0,0-1.365,1.365v34.548a1.365,1.365,0,0,0,1.365,1.364h34.551a1.365,1.365,0,0,0,1.365-1.364V502.823a1.363,1.363,0,0,0-1.365-1.365h-15.84a17.9,17.9,0,0,1,17.821-16.53h36.327v16.53H481.213a1.362,1.362,0,0,0-1.365,1.365v34.548a1.363,1.363,0,0,0,1.365,1.364h34.548a1.365,1.365,0,0,0,1.365-1.364V502.823a1.363,1.363,0,0,0-1.365-1.365H499.853v-16.53h36.322A17.9,17.9,0,0,1,554,501.458h-15.84a1.362,1.362,0,0,0-1.365,1.365v34.548a1.363,1.363,0,0,0,1.365,1.364h34.548a1.365,1.365,0,0,0,1.365-1.364V502.823A1.363,1.363,0,0,0,572.707,501.458Zm-90.129-69.729H514.4v31.819H482.578ZM457.451,536.006H425.629V504.187h31.822Zm56.946,0H482.578V504.187H514.4Zm56.946,0H539.524V504.187h31.819Z" transform="translate(-422.9 -429)" fill="#ffd20e" opacity="0.45"/>
</svg>
