<svg xmlns="http://www.w3.org/2000/svg" width="104.873" height="117.569" viewBox="0 0 104.873 117.569">
  <g id="_1" data-name="1" transform="translate(0.96 0.96)" opacity="0.5">
    <rect id="Rectangle_223" data-name="Rectangle 223" width="85.813" height="33.527" transform="translate(8.57)" stroke-width="1.92" stroke="#ffd20e" stroke-linecap="round" stroke-linejoin="round" fill="none"/>
    <path id="Path_846" data-name="Path 846" d="M2673.195,2759.854v-5.86l-85.812-.369v6.229" transform="translate(-2578.812 -2702.592)" fill="none" stroke="#ffd20e" stroke-linecap="round" stroke-linejoin="round" stroke-width="1.92"/>
    <line id="Line_109" data-name="Line 109" y1="4" transform="translate(51.477 53.262)" fill="none" stroke="#ffd20e" stroke-linecap="round" stroke-linejoin="round" stroke-width="1.92"/>
    <line id="Line_110" data-name="Line 110" y1="15.958" transform="translate(51.477 35.898)" fill="none" stroke="#ffd20e" stroke-linecap="round" stroke-linejoin="round" stroke-width="1.92"/>
    <line id="Line_111" data-name="Line 111" y1="12.743" transform="translate(51.477 85.777)" fill="none" stroke="#ffd20e" stroke-linecap="round" stroke-linejoin="round" stroke-width="1.92"/>
    <line id="Line_112" data-name="Line 112" y1="12.743" transform="translate(94.383 85.777)" fill="none" stroke="#ffd20e" stroke-linecap="round" stroke-linejoin="round" stroke-width="1.92"/>
    <rect id="Rectangle_224" data-name="Rectangle 224" width="17.14" height="17.14" transform="translate(0 68.637)" stroke-width="1.92" stroke="#ffd20e" stroke-linecap="round" stroke-linejoin="round" fill="none"/>
    <path id="Path_847" data-name="Path 847" d="M2605.163,2783.5h0a8.57,8.57,0,0,1-8.571-8.571h0a8.569,8.569,0,0,1,8.571-8.57h0a8.569,8.569,0,0,1,8.57,8.57h0A8.57,8.57,0,0,1,2605.163,2783.5Z" transform="translate(-2553.686 -2667.852)" fill="none" stroke="#ffd20e" stroke-linecap="round" stroke-linejoin="round" stroke-width="1.92"/>
    <rect id="Rectangle_225" data-name="Rectangle 225" width="17.14" height="17.14" rx="2.299" transform="translate(85.813 98.509)" stroke-width="1.92" stroke="#ffd20e" stroke-linecap="round" stroke-linejoin="round" fill="none"/>
    <rect id="Rectangle_226" data-name="Rectangle 226" width="60.047" height="17.163" transform="translate(42.907 68.625)" stroke-width="1.92" stroke="#ffd20e" stroke-linecap="round" stroke-linejoin="round" fill="none"/>
    <line id="Line_113" data-name="Line 113" x2="13.63" transform="translate(17.538 77.207)" fill="none" stroke="#ffd20e" stroke-linecap="round" stroke-linejoin="round" stroke-width="1.92"/>
  </g>
</svg>
