<svg xmlns="http://www.w3.org/2000/svg" width="123.158" height="125.934" viewBox="0 0 123.158 125.934">
  <g id="Group_528" data-name="Group 528" opacity="0.6">
    <g id="Group_527" data-name="Group 527" transform="translate(29.456 28.008)">
      <path id="Path_530" data-name="Path 530" d="M1743.159,1723.668a30.756,30.756,0,1,1,10.757-59.578,1.922,1.922,0,0,1-1.344,3.6,26.888,26.888,0,1,0,15.5,15.022,1.922,1.922,0,0,1,3.557-1.458,30.773,30.773,0,0,1-28.469,42.413Z" transform="translate(-1712.403 -1662.156)" fill="#7a59e5"/>
      <path id="Path_531" data-name="Path 531" d="M1936.468,1888.143a1.916,1.916,0,0,1-1.359-.563l-30.073-30.073a1.922,1.922,0,0,1,2.718-2.718l30.073,30.073a1.922,1.922,0,0,1-1.359,3.281Z" transform="translate(-1855.249 -1805.003)" fill="#7a59e5"/>
    </g>
    <path id="Path_532" data-name="Path 532" d="M1599.386,1878.039a1.922,1.922,0,0,1-1.359-3.281l34.718-34.718a1.922,1.922,0,0,1,2.718,2.718l-34.718,34.718A1.917,1.917,0,0,1,1599.386,1878.039Z" transform="translate(-1597.464 -1766.026)" fill="#7a59e5"/>
    <path id="Path_533" data-name="Path 533" d="M1767.4,1694.04a1.922,1.922,0,0,1-1.359-3.281l22.426-22.426a1.923,1.923,0,0,1,2.718,0l6.393,6.393,12.323-32.516-32.516,12.323,6.451,6.45a1.923,1.923,0,0,1,0,2.719l-21.849,21.849a1.922,1.922,0,0,1-2.719-2.719l20.49-20.49-7.194-7.194a1.922,1.922,0,0,1,.678-3.156l39.287-14.889a1.922,1.922,0,0,1,2.479,2.479l-14.889,39.288a1.923,1.923,0,0,1-3.157.678l-7.136-7.136-21.066,21.067A1.916,1.916,0,0,1,1767.4,1694.04Z" transform="translate(-1717.384 -1615.422)" fill="#7a59e5"/>
    <path id="Path_534" data-name="Path 534" d="M1602.428,1913.086a1.922,1.922,0,0,1-1.359-3.281l41.359-41.359a1.922,1.922,0,0,1,2.718,2.718l-41.359,41.359A1.916,1.916,0,0,1,1602.428,1913.086Z" transform="translate(-1599.727 -1787.152)" fill="#7a59e5"/>
    <path id="Path_535" data-name="Path 535" d="M1791.413,1937.128a1.922,1.922,0,0,1-1.359-3.281l29.084-29.084a1.922,1.922,0,0,1,2.718,2.718l-29.084,29.084A1.917,1.917,0,0,1,1791.413,1937.128Z" transform="translate(-1740.279 -1814.161)" fill="#7a59e5"/>
    <path id="Path_536" data-name="Path 536" d="M1893.1,1948.3a1.922,1.922,0,0,1-1.359-3.281l10.619-10.619a1.922,1.922,0,1,1,2.718,2.719l-10.619,10.619A1.917,1.917,0,0,1,1893.1,1948.3Z" transform="translate(-1815.908 -1836.205)" fill="#7a59e5"/>
    <path id="Path_537" data-name="Path 537" d="M1992.1,1849.3a1.922,1.922,0,0,1-1.359-3.281l10.619-10.619a1.922,1.922,0,0,1,2.719,2.719l-10.619,10.619A1.916,1.916,0,0,1,1992.1,1849.3Z" transform="translate(-1889.536 -1762.576)" fill="#7a59e5"/>
    <path id="Path_538" data-name="Path 538" d="M1714.325,1592.632a1.922,1.922,0,0,1-1.359-3.281l13.875-13.875a1.922,1.922,0,0,1,2.719,2.719l-13.875,13.875A1.917,1.917,0,0,1,1714.325,1592.632Z" transform="translate(-1682.947 -1569.263)" fill="#7a59e5"/>
    <path id="Path_539" data-name="Path 539" d="M1609.378,1707.98a1.922,1.922,0,0,1-1.359-3.281l10.291-10.291a1.922,1.922,0,0,1,2.718,2.718l-10.29,10.291A1.917,1.917,0,0,1,1609.378,1707.98Z" transform="translate(-1604.895 -1657.716)" fill="#7a59e5"/>
    <path id="Path_540" data-name="Path 540" d="M1674.325,1661.587a1.922,1.922,0,0,1-1.359-3.281l3.9-3.9a1.922,1.922,0,0,1,2.718,2.718l-3.9,3.9A1.917,1.917,0,0,1,1674.325,1661.587Z" transform="translate(-1653.198 -1627.967)" fill="#7a59e5"/>
    <path id="Path_541" data-name="Path 541" d="M1606.2,1839.124a1.922,1.922,0,0,1-1.359-3.281l19.413-19.413a1.922,1.922,0,0,1,2.719,2.718l-19.413,19.413A1.916,1.916,0,0,1,1606.2,1839.124Z" transform="translate(-1602.535 -1748.466)" fill="#7a59e5"/>
    <path id="Path_542" data-name="Path 542" d="M1890.038,1570.785a1.922,1.922,0,0,1-1.359-3.281l14.074-14.074a1.922,1.922,0,0,1,2.719,2.718l-14.074,14.074A1.917,1.917,0,0,1,1890.038,1570.785Z" transform="translate(-1813.629 -1552.867)" fill="#7a59e5"/>
    <path id="Path_543" data-name="Path 543" d="M2056.751,1678.813a1.922,1.922,0,0,1-1.359-3.281l2.1-2.1a1.922,1.922,0,1,1,2.718,2.718l-2.1,2.1A1.917,1.917,0,0,1,2056.751,1678.813Z" transform="translate(-1937.617 -1642.114)" fill="#7a59e5"/>
    <path id="Path_544" data-name="Path 544" d="M1981.955,1722.965a1.922,1.922,0,0,1-1.359-3.281l12.662-12.662a1.922,1.922,0,1,1,2.718,2.719l-12.662,12.662A1.917,1.917,0,0,1,1981.955,1722.965Z" transform="translate(-1881.99 -1667.098)" fill="#7a59e5"/>
    <path id="Path_545" data-name="Path 545" d="M1808.36,1926.84a1.922,1.922,0,0,1-1.359-3.281l2.135-2.135a1.922,1.922,0,0,1,2.718,2.718l-2.135,2.135A1.916,1.916,0,0,1,1808.36,1926.84Z" transform="translate(-1752.882 -1826.553)" fill="#7a59e5"/>
    <path id="Path_546" data-name="Path 546" d="M1723.641,1974.461a1.922,1.922,0,0,1-1.359-3.281l14.918-14.918a1.922,1.922,0,1,1,2.718,2.718L1725,1973.9A1.917,1.917,0,0,1,1723.641,1974.461Z" transform="translate(-1689.875 -1852.463)" fill="#7a59e5"/>
    <path id="Path_547" data-name="Path 547" d="M1635.42,1772.918a1.922,1.922,0,0,1-1.359-3.281l13.207-13.207a1.922,1.922,0,0,1,2.719,2.718l-13.207,13.207A1.917,1.917,0,0,1,1635.42,1772.918Z" transform="translate(-1624.264 -1703.843)" fill="#7a59e5"/>
    <path id="Path_548" data-name="Path 548" d="M1606.2,1836.873a1.922,1.922,0,0,1-1.359-3.281l1.236-1.236a1.922,1.922,0,1,1,2.718,2.719l-1.236,1.236A1.917,1.917,0,0,1,1606.2,1836.873Z" transform="translate(-1602.535 -1760.311)" fill="#7a59e5"/>
    <path id="Path_549" data-name="Path 549" d="M1838.42,1591.38a1.922,1.922,0,0,1-1.359-3.281l5.812-5.812a1.922,1.922,0,0,1,2.718,2.718l-5.812,5.812A1.917,1.917,0,0,1,1838.42,1591.38Z" transform="translate(-1775.239 -1574.329)" fill="#7a59e5"/>
    <path id="Path_550" data-name="Path 550" d="M1814.2,1628.873a1.922,1.922,0,0,1-1.359-3.281l1.236-1.236a1.922,1.922,0,1,1,2.718,2.719l-1.236,1.236A1.917,1.917,0,0,1,1814.2,1628.873Z" transform="translate(-1757.229 -1605.616)" fill="#7a59e5"/>
    <path id="Path_551" data-name="Path 551" d="M1880.2,1562.873a1.922,1.922,0,0,1-1.359-3.281l1.236-1.236a1.922,1.922,0,1,1,2.718,2.719l-1.236,1.236A1.917,1.917,0,0,1,1880.2,1562.873Z" transform="translate(-1806.315 -1556.53)" fill="#7a59e5"/>
  </g>
</svg>
