<svg xmlns="http://www.w3.org/2000/svg" width="790" height="417.924" viewBox="0 0 790 417.924">
  <g id="Group_741" data-name="Group 741" transform="translate(-73 -1843.076)">
    <g id="Group_716" data-name="Group 716" transform="translate(-170 1889)">
      <text id="Technical_Audit" data-name="Technical Audit" transform="translate(287 -25)" fill="#555" font-size="20" font-family="OpenSans, Open Sans"><tspan x="0" y="21">Technical Audit</tspan></text>
    </g>
    <g id="Group_739" data-name="Group 739" transform="translate(364 1889)">
      <text id="Keyword_Research" data-name="Keyword Research" transform="translate(287 -25)" fill="#555" font-size="20" font-family="OpenSans, Open Sans"><tspan x="0" y="21">Keyword Research</tspan></text>
    </g>
    <g id="Group_717" data-name="Group 717" transform="translate(-214 2051)">
      <text id="Analysis" transform="translate(287 -25)" fill="#555" font-size="20" font-family="OpenSans, Open Sans"><tspan x="75.668" y="21">Analysis</tspan></text>
    </g>
    <g id="Group_738" data-name="Group 738" transform="translate(402 2038)">
      <text id="On-Site_Optimisations" data-name="On-Site Optimisations" transform="translate(287 -25)" fill="#555" font-size="20" font-family="OpenSans, Open Sans"><tspan x="0" y="21">On-Site </tspan><tspan x="0" y="51">Optimisations</tspan></text>
    </g>
    <g id="Group_736" data-name="Group 736" transform="translate(-170 2227)">
      <text id="Link_Building" data-name="Link Building" transform="translate(308 -25)" fill="#555" font-size="20" font-family="OpenSans, Open Sans"><tspan x="0" y="21">Link Building</tspan></text>
    </g>
    <g id="Group_737" data-name="Group 737" transform="translate(341 2227)">
      <text id="Content_Suggestions_Delivery" data-name="Content Suggestions &amp; Delivery" transform="translate(287 -25)" fill="#555" font-size="20" font-family="OpenSans, Open Sans"><tspan x="0" y="21">Content Suggestions </tspan><tspan x="0" y="51">&amp; Delivery</tspan></text>
    </g>
    <g id="Group_718" data-name="Group 718" transform="translate(-127.5 1481.438)">
      <g id="Group_719" data-name="Group 719" transform="translate(569.259 616.155)">
        <g id="Group_718-2" data-name="Group 718">
          <path id="Path_807" data-name="Path 807" d="M634.106,484.51l-55.518,3.911-31.125-47.567a104.75,104.75,0,0,1-80.48,51.075L441.46,542.455l31.222,46.237A202.033,202.033,0,0,0,634.106,484.51Z" transform="translate(-441.46 -440.855)" fill="none" stroke="#ffd10c" stroke-linecap="round" stroke-linejoin="round" stroke-width="1"/>
        </g>
      </g>
      <g id="Group_721" data-name="Group 721" transform="translate(419.114 623.509)">
        <g id="Group_720" data-name="Group 720">
          <path id="Path_808" data-name="Path 808" d="M565.867,584.134l-31.128-46.1,25.632-50.749a104.822,104.822,0,0,1-84.491-44.149l-56.5,3.159L394.933,496.48A202.058,202.058,0,0,0,565.867,584.134Z" transform="translate(-394.933 -443.134)" fill="none" stroke="#3fb549" stroke-linecap="round" stroke-linejoin="round" stroke-width="1"/>
        </g>
      </g>
      <g id="Group_723" data-name="Group 723" transform="translate(408.681 362.715)">
        <g id="Group_722" data-name="Group 722">
          <path id="Path_809" data-name="Path 809" d="M478.34,510.154a104.755,104.755,0,0,1,80.483-51.071l25.523-50.529L553.12,362.319A202.02,202.02,0,0,0,391.7,466.5l55.518-3.911Z" transform="translate(-391.7 -362.319)" fill="none" stroke="#f24841" stroke-linecap="round" stroke-linejoin="round" stroke-width="1"/>
        </g>
      </g>
      <g id="Group_725" data-name="Group 725" transform="translate(384.075 472.264)">
        <g id="Group_724" data-name="Group 724">
          <path id="Path_810" data-name="Path 810" d="M403.9,400.193a201.479,201.479,0,0,0,9.542,191.9l24.38-50.048,56.745-3.172a104.476,104.476,0,0,1-4-95.259l-30.983-47.344Z" transform="translate(-384.075 -396.266)" fill="none" stroke="#5998d1" stroke-linecap="round" stroke-linejoin="round" stroke-width="1"/>
        </g>
      </g>
      <g id="Group_727" data-name="Group 727" transform="translate(676.013 458.616)">
        <g id="Group_726" data-name="Group 726">
          <path id="Path_811" data-name="Path 811" d="M565.212,583.937a201.474,201.474,0,0,0-9.546-191.9l-24.377,50.048-56.748,3.175a104.457,104.457,0,0,1,4,95.256l30.98,47.344Z" transform="translate(-474.541 -392.037)" fill="none" stroke="#ef5168" stroke-linecap="round" stroke-linejoin="round" stroke-width="1"/>
        </g>
      </g>
      <g id="Group_729" data-name="Group 729" transform="translate(580.534 362.141)">
        <g id="Group_728" data-name="Group 728">
          <path id="Path_812" data-name="Path 812" d="M444.954,362.2l31.131,46.1L450.45,459.046A104.829,104.829,0,0,1,534.94,503.2l56.506-3.162,24.442-50.187A202.069,202.069,0,0,0,444.954,362.2Z" transform="translate(-444.954 -362.141)" fill="none" stroke="#f26e21" stroke-linecap="round" stroke-linejoin="round" stroke-width="1"/>
        </g>
      </g>
      <g id="Group_730" data-name="Group 730" transform="translate(490.541 403.657)">
        <path id="Path_813" data-name="Path 813" d="M420.9,403.453h6.445a3.834,3.834,0,0,0,3.827-3.831V386.215a3.832,3.832,0,0,0-3.827-3.831H420.9a3.835,3.835,0,0,0-3.831,3.831v13.408A3.837,3.837,0,0,0,420.9,403.453Zm-2.043-17.239a2.045,2.045,0,0,1,2.043-2.043h6.445a2.045,2.045,0,0,1,2.04,2.043v13.408a2.045,2.045,0,0,1-2.04,2.043H420.9a2.045,2.045,0,0,1-2.043-2.043Z" transform="translate(-417.067 -358.575)" fill="#f24841"/>
        <path id="Path_814" data-name="Path 814" d="M426.193,410.257h6.445a3.834,3.834,0,0,0,3.827-3.831v-23.27a3.831,3.831,0,0,0-3.827-3.827h-6.445a3.832,3.832,0,0,0-3.83,3.827v23.27A3.835,3.835,0,0,0,426.193,410.257Zm-2.043-27.1a2.043,2.043,0,0,1,2.043-2.04h6.445a2.042,2.042,0,0,1,2.04,2.04v23.27a2.045,2.045,0,0,1-2.04,2.043h-6.445a2.045,2.045,0,0,1-2.043-2.043Z" transform="translate(-405.273 -365.379)" fill="#f24841"/>
        <path id="Path_815" data-name="Path 815" d="M431.49,419.885h6.444a3.834,3.834,0,0,0,3.827-3.83V378.837a3.834,3.834,0,0,0-3.827-3.83H431.49a3.835,3.835,0,0,0-3.831,3.83v37.218A3.835,3.835,0,0,0,431.49,419.885Zm-2.043-41.048a2.045,2.045,0,0,1,2.043-2.043h6.444a2.045,2.045,0,0,1,2.039,2.043v37.218a2.045,2.045,0,0,1-2.039,2.043H431.49a2.045,2.045,0,0,1-2.043-2.043Z" transform="translate(-393.478 -375.006)" fill="#f24841"/>
      </g>
      <g id="Group_731" data-name="Group 731" transform="translate(638.715 403.024)">
        <path id="Path_816" data-name="Path 816" d="M489.007,376.923A23.814,23.814,0,0,0,475,381.444a.9.9,0,0,0-.2,1.249.913.913,0,0,0,.1.094.885.885,0,0,0,1.149.11,22.171,22.171,0,1,1-4.824,4.75.884.884,0,0,0-.094-1.149.651.651,0,0,0-.09-.1.893.893,0,0,0-1.252.181,23.969,23.969,0,1,0,19.227-9.655Z" transform="translate(-458.402 -370.104)" fill="#f26e21"/>
        <path id="Path_817" data-name="Path 817" d="M471.364,386.7a.719.719,0,0,0-.142-.139.9.9,0,0,0-1.236.278,15.912,15.912,0,1,0,5.037-5.012.9.9,0,0,0-.284,1.233.982.982,0,0,0,.139.145.879.879,0,0,0,1.094.139,14.115,14.115,0,1,1-4.473,4.45A.879.879,0,0,0,471.364,386.7Z" transform="translate(-452.841 -364.543)" fill="#f26e21"/>
        <path id="Path_818" data-name="Path 818" d="M472.079,387.186a.86.86,0,0,0-.461-.255.9.9,0,0,0-1.036.726,6.6,6.6,0,0,0-.094,1.1,6.388,6.388,0,1,0,6.386-6.386,6.313,6.313,0,0,0-1.184.11.892.892,0,0,0-.713,1.042.938.938,0,0,0,1.042.716,4.469,4.469,0,0,1,.855-.081,4.594,4.594,0,1,1-4.531,3.808A.87.87,0,0,0,472.079,387.186Z" transform="translate(-446.269 -357.971)" fill="#f26e21"/>
        <path id="Path_819" data-name="Path 819" d="M469.369,382.639l1.872,1.875h-3.769a.894.894,0,1,0,0,1.788h5.557l3.8,3.8,5.776,5.776,7.164,7.164,3.188,3.188a.888.888,0,0,0,1.265,0,.89.89,0,0,0,0-1.265l-3.2-3.2-7.151-7.151-5.77-5.77-3.692-3.692v-5.786a.9.9,0,1,0-1.791,0v4l-1.8-1.807V375.7a.894.894,0,0,0-1.788,0v5.147h-5.15a.894.894,0,1,0,0,1.788Z" transform="translate(-462.983 -374.81)" fill="#f26e21"/>
      </g>
      <g id="Group_732" data-name="Group 732" transform="translate(481.574 671.03)">
        <path id="Path_820" data-name="Path 820" d="M444.47,460.574l-5.783,5.783a9.285,9.285,0,0,0-.6,12.453l-2.849,2.846a9.289,9.289,0,0,0-12.453.6L417,488.04a9.276,9.276,0,0,0,13.118,13.118l5.783-5.78a9.279,9.279,0,0,0,.6-12.456l2.846-2.846a9.288,9.288,0,0,0,12.453-.6l5.783-5.783a9.276,9.276,0,0,0-13.118-13.118Zm-7.638,28.243a7.43,7.43,0,0,1-2.194,5.3l-5.783,5.783A7.488,7.488,0,1,1,418.266,489.3l5.783-5.783a7.494,7.494,0,0,1,9.917-.591l-8.145,8.145a.894.894,0,0,0,1.265,1.265l8.142-8.145A7.429,7.429,0,0,1,436.832,488.817Zm19.491-16.39-5.783,5.783a7.5,7.5,0,0,1-9.917.591l8.145-8.145a.895.895,0,0,0-1.265-1.265l-8.145,8.145a7.5,7.5,0,0,1,.594-9.917l5.78-5.78a7.488,7.488,0,1,1,10.591,10.588Z" transform="translate(-414.288 -457.86)" fill="#3fb549"/>
      </g>
      <g id="Group_733" data-name="Group 733" transform="translate(411.059 529.002)">
        <path id="Path_821" data-name="Path 821" d="M437.435,437.919l-.007-.316a.9.9,0,0,0-.894-.887H415.6V416.32a.888.888,0,0,0-.265-.636.834.834,0,0,0-.639-.258,22.5,22.5,0,1,0,22.741,22.493Zm-1.8.587a20.613,20.613,0,0,1-5.412,13.36l-13.363-13.36Zm-20.7,20.124a20.709,20.709,0,0,1-1.126-41.387v20.369a.894.894,0,0,0,.261.629v0l14.893,14.889A20.622,20.622,0,0,1,414.936,458.63Z" transform="translate(-392.437 -410.337)" fill="#5998d1"/>
        <path id="Path_822" data-name="Path 822" d="M401.761,413.848l-.242,0a.894.894,0,0,0-.884.894v21.292a.894.894,0,0,0,.894.894H423.36a.893.893,0,0,0,.894-.907A22.585,22.585,0,0,0,401.761,413.848Zm.662,21.3v-19.5a20.8,20.8,0,0,1,20.011,19.5Z" transform="translate(-374.18 -413.848)" fill="#5998d1"/>
      </g>
      <g id="Group_734" data-name="Group 734" transform="translate(706.821 540.5)">
        <path id="Path_823" data-name="Path 823" d="M487.138,462.377h59.836a3.042,3.042,0,0,0,2.117-5.228l-4.44-4.3a7,7,0,0,0-2.527-1.562,3.645,3.645,0,0,0,1.016-2.517v-27.7a3.662,3.662,0,0,0-3.656-3.659H494.631a3.662,3.662,0,0,0-3.656,3.659v27.7a3.645,3.645,0,0,0,1.016,2.517,7.01,7.01,0,0,0-2.53,1.562l-4.437,4.3a3.041,3.041,0,0,0,2.114,5.228Zm5.625-41.306a1.87,1.87,0,0,1,1.869-1.868h44.853a1.87,1.87,0,0,1,1.869,1.868v27.7a1.869,1.869,0,0,1-1.869,1.865H494.631a1.869,1.869,0,0,1-1.869-1.865Zm47,31.6a5.217,5.217,0,0,1,3.646,1.475l4.44,4.292a1.256,1.256,0,0,1-.875,2.156H487.138a1.254,1.254,0,0,1-.871-2.156l4.44-4.292a5.2,5.2,0,0,1,3.643-1.475Z" transform="translate(-484.088 -417.411)" fill="#ef5168"/>
        <path id="Path_824" data-name="Path 824" d="M488.05,444.888H530.4a.448.448,0,0,0,.449-.449v-25.2a.448.448,0,0,0-.449-.449H488.05a.447.447,0,0,0-.445.449v25.2A.447.447,0,0,0,488.05,444.888Zm.448-25.2h41.448v24.3H488.5Z" transform="translate(-476.255 -414.331)" fill="#ef5168"/>
        <path id="Path_825" data-name="Path 825" d="M485.66,430.34a.448.448,0,0,0,.449.449H541a.447.447,0,0,0,0-.894h-54.9A.447.447,0,0,0,485.66,430.34Z" transform="translate(-480.586 -389.609)" fill="#ef5168"/>
        <path id="Path_826" data-name="Path 826" d="M504.886,430.579a7,7,0,0,0-6.151-10.343h0a7,7,0,1,0,3.34,13.15l3.985,3.985a1.655,1.655,0,0,0,2.34,0l.468-.468a1.656,1.656,0,0,0,0-2.34Zm1.807,6.16-3.847-3.847a7.21,7.21,0,0,0,.836-.707,6.932,6.932,0,0,0,.707-.839l3.85,3.847a.764.764,0,0,1,0,1.078l-.471.468a.759.759,0,0,1-1.074,0Zm-12.276-5.186a6.105,6.105,0,1,1,9.8-1.643c-.068.139-.145.274-.223.41s-.158.261-.245.387a6.161,6.161,0,0,1-.7.846,5.884,5.884,0,0,1-.842.7c-.129.09-.258.168-.387.245s-.274.155-.413.223a6.085,6.085,0,0,1-6.99-1.165Z" transform="translate(-467.064 -411.12)" fill="#ef5168"/>
        <path id="Path_827" data-name="Path 827" d="M499.34,423.086a.437.437,0,0,0,.316-.132.444.444,0,0,0,0-.629,4.743,4.743,0,0,0-6.7,0,.446.446,0,0,0,.633.629,4.05,4.05,0,0,1,.387-.316,3.835,3.835,0,0,1,4.663,0,4.46,4.46,0,0,1,.387.316A.432.432,0,0,0,499.34,423.086Z" transform="translate(-464.635 -409.558)" fill="#ef5168"/>
      </g>
      <g id="Group_735" data-name="Group 735" transform="translate(624.705 669.298)">
        <path id="Path_828" data-name="Path 828" d="M474.23,510.986a7.775,7.775,0,0,0,10.978,0l24.461-24.461a16.758,16.758,0,0,0,0-23.693l-.6-.6a16.75,16.75,0,0,0-23.693,0l-24.461,24.458a7.771,7.771,0,0,0,0,10.978Zm22.99-51.572a14.623,14.623,0,0,1,10.372,4.289l.6.6a14.67,14.67,0,0,1,0,20.744l-24.461,24.461a5.684,5.684,0,0,1-8.029,0L462.387,496.2a5.687,5.687,0,0,1,0-8.032L486.848,463.7A14.623,14.623,0,0,1,497.219,459.414Z" transform="translate(-458.641 -457.323)" fill="#ffd10c"/>
        <path id="Path_829" data-name="Path 829" d="M475.565,472.474c2.7,0,5.693-1.817,6.3-5.886a1.92,1.92,0,0,0,0-.526,6.4,6.4,0,0,0-6.3-5.873c-2.7,0-5.689,1.814-6.3,5.873a1.76,1.76,0,0,0,0,.536C469.876,470.658,472.868,472.474,475.565,472.474Zm4.237-6.186c-.452,3.027-2.565,4.1-4.237,4.1s-3.763-1.065-4.231-4.06c.468-2.995,2.569-4.057,4.231-4.057A4.314,4.314,0,0,1,479.8,466.288Z" transform="translate(-435.022 -450.94)" fill="#ffd10c"/>
        <path id="Path_830" data-name="Path 830" d="M462.074,482.589a1.038,1.038,0,0,0,.736-.3l18.233-18.233a1.043,1.043,0,0,0-1.475-1.475l-18.233,18.233a1.041,1.041,0,0,0,.739,1.778Z" transform="translate(-453.323 -446.298)" fill="#ffd10c"/>
        <path id="Path_831" data-name="Path 831" d="M463.183,484.135a1.04,1.04,0,0,0,1.475,0L482.891,465.9a1.043,1.043,0,0,0-1.475-1.475L463.183,482.66A1.044,1.044,0,0,0,463.183,484.135Z" transform="translate(-449.206 -442.18)" fill="#ffd10c"/>
        <path id="Path_832" data-name="Path 832" d="M483.265,466.279l-18.233,18.23a1.043,1.043,0,1,0,1.475,1.475l18.233-18.233a1.042,1.042,0,0,0-1.475-1.472Z" transform="translate(-445.088 -438.062)" fill="#ffd10c"/>
      </g>
    </g>
  </g>
</svg>
