<svg xmlns="http://www.w3.org/2000/svg" width="108.159" height="92.939" viewBox="0 0 108.159 92.939">
  <g id="Group_746" data-name="Group 746" transform="translate(-16515.04 -11818.836)" opacity="0.5">
    <line id="Line_94" data-name="Line 94" x2="106.239" transform="translate(16516 11910.815)" fill="none" stroke="#f36f21" stroke-linecap="round" stroke-linejoin="round" stroke-width="1.92"/>
    <path id="Path_833" data-name="Path 833" d="M2549.482,2758.732h14.2v30.008h-14.2v-30.008Z" transform="translate(13972.286 9121.871)" fill="none" stroke="#f36f21" stroke-linecap="round" stroke-linejoin="round" stroke-width="1.92"/>
    <path id="Path_834" data-name="Path 834" d="M2557.429,2750.795h14.2V2807.6h-14.2v-56.807Z" transform="translate(13991.173 9103.009)" fill="none" stroke="#f36f21" stroke-linecap="round" stroke-linejoin="round" stroke-width="1.92"/>
    <path id="Path_835" data-name="Path 835" d="M2565.376,2757.882h14.2v32.879h-14.2v-32.879Z" transform="translate(14010.06 9119.85)" fill="none" stroke="#f36f21" stroke-linecap="round" stroke-linejoin="round" stroke-width="1.92"/>
    <path id="Path_836" data-name="Path 836" d="M2573.324,2754.2h14.2v45.321h-14.2V2754.2Z" transform="translate(14028.945 9111.092)" fill="none" stroke="#f36f21" stroke-linecap="round" stroke-linejoin="round" stroke-width="1.92"/>
    <path id="Path_837" data-name="Path 837" d="M2557.351,2767.971a8.192,8.192,0,1,0,8.191,8.191,8.193,8.193,0,0,0-8.191-8.191Zm26.833-27.248a8.191,8.191,0,1,0,8.191,8.191,8.194,8.194,0,0,0-8.191-8.191Zm26.833,24.372a8.191,8.191,0,1,0,8.195,8.191,8.193,8.193,0,0,0-8.195-8.191Zm26.836-12.392a8.191,8.191,0,1,0,8.192,8.191,8.19,8.19,0,0,0-8.192-8.191Z" transform="translate(13971.519 9079.073)" fill="none" stroke="#f36f21" stroke-miterlimit="22.926" stroke-width="1.92"/>
    <line id="Line_95" data-name="Line 95" y1="12.494" x2="12.663" transform="translate(16536.197 11835.301)" fill="none" stroke="#f36f21" stroke-linecap="round" stroke-linejoin="round" stroke-width="1.92"/>
    <line id="Line_96" data-name="Line 96" x2="12.781" y2="11.699" transform="translate(16563.098 11834.684)" fill="none" stroke="#f36f21" stroke-linecap="round" stroke-linejoin="round" stroke-width="1.92"/>
    <line id="Line_97" data-name="Line 97" y1="4.682" x2="9.63" transform="translate(16590.602 11844.187)" fill="none" stroke="#f36f21" stroke-linecap="round" stroke-linejoin="round" stroke-width="1.92"/>
  </g>
</svg>
