<svg xmlns="http://www.w3.org/2000/svg" width="103.807" height="110.296" viewBox="0 0 103.807 110.296">
  <g id="Group_525" data-name="Group 525" opacity="0.6">
    <path id="Path_506" data-name="Path 506" d="M2434.071,1781.18a1.919,1.919,0,0,1-.861-.2l-20.119-10.08a1.922,1.922,0,1,1,1.722-3.437l18.983,9.511,20.776-17.613a1.922,1.922,0,1,1,2.486,2.932l-21.744,18.435A1.922,1.922,0,0,1,2434.071,1781.18Z" transform="translate(-2383.937 -1714.03)" fill="#f05269"/>
    <path id="Path_507" data-name="Path 507" d="M2315.128,1817.636a1.922,1.922,0,0,1-.975-3.58l16.332-9.592a1.922,1.922,0,0,1,1.947,3.315l-16.332,9.592A1.91,1.91,0,0,1,2315.128,1817.636Z" transform="translate(-2310.438 -1747.719)" fill="#f05269"/>
    <path id="Path_508" data-name="Path 508" d="M2307.1,1840.21a4.688,4.688,0,1,1,4.688-4.688A4.694,4.694,0,0,1,2307.1,1840.21Zm0-5.533a.844.844,0,1,0,.844.844A.845.845,0,0,0,2307.1,1834.677Z" transform="translate(-2302.411 -1767.527)" fill="#f05269"/>
    <path id="Path_509" data-name="Path 509" d="M2483.581,1829.416a4.688,4.688,0,1,1,4.688-4.689A4.694,4.694,0,0,1,2483.581,1829.416Zm0-5.533a.844.844,0,1,0,.844.844A.845.845,0,0,0,2483.581,1823.883Z" transform="translate(-2433.665 -1759.499)" fill="#f05269"/>
    <path id="Path_510" data-name="Path 510" d="M2569.276,1757.484a4.688,4.688,0,1,1,4.689-4.688A4.694,4.694,0,0,1,2569.276,1757.484Zm0-5.532a.844.844,0,1,0,.844.844A.845.845,0,0,0,2569.276,1751.951Z" transform="translate(-2497.398 -1706.002)" fill="#f05269"/>
    <path id="Path_511" data-name="Path 511" d="M2675.571,1690.031a4.688,4.688,0,1,1,4.688-4.688A4.694,4.694,0,0,1,2675.571,1690.031Zm0-5.532a.844.844,0,1,0,.844.844A.845.845,0,0,0,2675.571,1684.5Z" transform="translate(-2576.452 -1655.835)" fill="#f05269"/>
    <path id="Path_512" data-name="Path 512" d="M2577.3,1712.579a1.922,1.922,0,0,1-1.032-3.545l27.241-17.287a1.922,1.922,0,1,1,2.06,3.246l-27.241,17.287A1.913,1.913,0,0,1,2577.3,1712.579Z" transform="translate(-2505.425 -1663.863)" fill="#f05269"/>
    <path id="Path_513" data-name="Path 513" d="M2430.976,1694.106H2388.31a10.558,10.558,0,0,1-10.546-10.546v-89.2a10.558,10.558,0,0,1,10.546-10.546h42.667a10.558,10.558,0,0,1,10.546,10.546v28.961a1.922,1.922,0,1,1-3.844,0v-28.961a6.709,6.709,0,0,0-6.7-6.7H2388.31a6.709,6.709,0,0,0-6.7,6.7v89.2a6.709,6.709,0,0,0,6.7,6.7h42.667a6.709,6.709,0,0,0,6.7-6.7V1634.4a1.922,1.922,0,1,1,3.844,0v49.165A10.558,10.558,0,0,1,2430.976,1694.106Z" transform="translate(-2358.452 -1583.81)" fill="#f05269"/>
    <path id="Path_514" data-name="Path 514" d="M2439.391,1932.844h-59.969a1.922,1.922,0,0,1,0-3.844h59.969a1.922,1.922,0,0,1,0,3.844Z" transform="translate(-2358.256 -1840.536)" fill="#f05269"/>
    <path id="Path_515" data-name="Path 515" d="M2439.391,1627.844h-59.969a1.922,1.922,0,0,1,0-3.844h59.969a1.922,1.922,0,0,1,0,3.844Z" transform="translate(-2358.256 -1613.7)" fill="#f05269"/>
    <path id="Path_516" data-name="Path 516" d="M2489.11,1965.844h-7.688a1.922,1.922,0,0,1,0-3.844h7.688a1.922,1.922,0,0,1,0,3.844Z" transform="translate(-2434.116 -1865.079)" fill="#f05269"/>
  </g>
</svg>
