<svg xmlns="http://www.w3.org/2000/svg" width="47.267" height="96.059" viewBox="0 0 47.267 96.059">
  <g id="Group_690" data-name="Group 690" transform="translate(0 0)" opacity="0.45">
    <path id="Path_780" data-name="Path 780" d="M685.119-219.164h-4.986a2.388,2.388,0,0,1-1.783-.8,2.4,2.4,0,0,1-.6-1.86l4.945-44.974H671.884a2.4,2.4,0,0,1-1.845-.868,2.4,2.4,0,0,1-.506-1.975l8.335-43.639a2.4,2.4,0,0,1,2.353-1.946H713.1a2.392,2.392,0,0,1,1.952,1.011,2.394,2.394,0,0,1,.307,2.179l-2.39,6.8a2.389,2.389,0,0,1-3.054,1.464,2.393,2.393,0,0,1-1.464-3.053l1.268-3.608H682.2l-7.421,38.85h10.589a2.391,2.391,0,0,1,1.783.8,2.394,2.394,0,0,1,.6,1.86l-4.944,44.974h.865l26.73-50.966h-9.79a2.392,2.392,0,0,1-1.952-1.011,2.4,2.4,0,0,1-.307-2.179l4.821-13.708a2.393,2.393,0,0,1,3.054-1.464,2.4,2.4,0,0,1,1.464,3.053l-3.7,10.519h10.369a2.392,2.392,0,0,1,2.048,1.156,2.393,2.393,0,0,1,.072,2.352l-29.243,55.755A2.391,2.391,0,0,1,685.119-219.164Z" transform="translate(-669.489 315.223)" fill="#5a99d2"/>
  </g>
</svg>
