<svg xmlns="http://www.w3.org/2000/svg" xmlns:xlink="http://www.w3.org/1999/xlink" width="845.825" height="520" viewBox="0 0 845.825 520">
  <defs>
    <clipPath id="clip-path">
      <rect id="Rectangle_214" data-name="Rectangle 214" width="175.071" height="159.709" fill="#f36f21"/>
    </clipPath>
    <clipPath id="clip-path-2">
      <rect id="Rectangle_215" data-name="Rectangle 215" width="175.07" height="159.71" fill="#f36f21"/>
    </clipPath>
  </defs>
  <g id="Group_740" data-name="Group 740" transform="translate(-119.175 -1429)">
    <path id="Path_378" data-name="Path 378" d="M0,0,71.615,123.142" transform="translate(252.457 1612.752)" fill="none" stroke="#595b60" stroke-width="1" stroke-dasharray="12.365 12.365"/>
    <path id="Path_379" data-name="Path 379" d="M0,42.975,71.615-80.167" transform="translate(347.945 1684.709)" fill="none" stroke="#595b60" stroke-width="1" stroke-dasharray="12.365 12.365"/>
    <path id="Path_380" data-name="Path 380" d="M0,0,4.774,8.21m85.939,147.77,4.774,8.21,4.774-8.21M186.2,8.21,190.974,0" transform="translate(238.134 1588.123)" fill="none" stroke="#595b60" stroke-width="1"/>
    <path id="Path_381" data-name="Path 381" d="M0,0,71.607,132.479" transform="translate(506.289 1614.598)" fill="none" stroke="#595b60" stroke-width="1" stroke-dasharray="13.072 13.072"/>
    <path id="Path_483" data-name="Path 483" d="M0,0,71.607,132.479" transform="translate(758.289 1614.598)" fill="none" stroke="#595b60" stroke-width="1" stroke-dasharray="13.072 13.072"/>
    <path id="Path_382" data-name="Path 382" d="M0,46.234,71.607-86.245" transform="translate(601.765 1692.011)" fill="none" stroke="#595b60" stroke-width="1" stroke-dasharray="13.072 13.072"/>
    <path id="Path_383" data-name="Path 383" d="M0,0,4.774,8.832M90.7,167.807l4.774,8.831,4.773-8.831M186.177,8.832,190.951,0" transform="translate(491.968 1588.103)" fill="none" stroke="#595b60" stroke-width="1"/>
    <g id="Group_410" data-name="Group 410" transform="translate(119.175 1478.523)" opacity="0.95">
      <g id="Group_409" data-name="Group 409">
        <g id="Group_408" data-name="Group 408" clip-path="url(#clip-path)">
          <g id="Group_407" data-name="Group 407" transform="translate(13.824 10.751)">
            <path id="Path_384" data-name="Path 384" d="M25.725,51.449a73.711,73.711,0,0,0,73.712-73.71A73.712,73.712,0,0,0,25.725-95.973,73.712,73.712,0,0,0-47.987-22.261a73.711,73.711,0,0,0,73.712,73.71" transform="translate(47.987 95.973)" fill="#f36f21"/>
          </g>
        </g>
      </g>
    </g>
    <g id="Group_412" data-name="Group 412" transform="translate(246.086 1712.467)" clip-path="url(#clip-path-2)">
      <g id="Group_411" data-name="Group 411" transform="translate(13.824 10.753)">
        <path id="Path_385" data-name="Path 385" d="M25.725,51.449a73.711,73.711,0,0,0,73.712-73.71A73.712,73.712,0,0,0,25.725-95.973,73.712,73.712,0,0,0-47.987-22.261a73.711,73.711,0,0,0,73.712,73.71" transform="translate(47.987 95.973)" fill="#f36f21"/>
      </g>
    </g>
    <g id="Group_415" data-name="Group 415" transform="translate(640.577 1489.274)">
      <path id="Path_386" data-name="Path 386" d="M25.725,51.449a73.711,73.711,0,0,0,73.712-73.71A73.712,73.712,0,0,0,25.725-95.973,73.712,73.712,0,0,0-47.987-22.261a73.711,73.711,0,0,0,73.712,73.71" transform="translate(47.987 95.973)" fill="#f36f21"/>
    </g>
    <g id="Group_419" data-name="Group 419" transform="translate(372.998 1478.523)" opacity="0.95">
      <g id="Group_418" data-name="Group 418">
        <g id="Group_417" data-name="Group 417" clip-path="url(#clip-path)">
          <g id="Group_416" data-name="Group 416" transform="translate(13.823 10.751)">
            <path id="Path_387" data-name="Path 387" d="M25.725,51.449a73.711,73.711,0,0,0,73.712-73.71A73.712,73.712,0,0,0,25.725-95.973,73.712,73.712,0,0,0-47.987-22.261a73.711,73.711,0,0,0,73.712,73.71" transform="translate(47.987 95.973)" fill="#f36f21"/>
          </g>
        </g>
      </g>
    </g>
    <path id="Path_388" data-name="Path 388" d="M25.725,51.449a73.711,73.711,0,0,0,73.712-73.71A73.712,73.712,0,0,0,25.725-95.973,73.712,73.712,0,0,0-47.987-22.261a73.711,73.711,0,0,0,73.712,73.71" transform="translate(561.719 1819.192)" fill="#f36f21"/>
    <path id="Path_482" data-name="Path 482" d="M25.725,51.449a73.711,73.711,0,0,0,73.712-73.71A73.712,73.712,0,0,0,25.725-95.973,73.712,73.712,0,0,0-47.987-22.261a73.711,73.711,0,0,0,73.712,73.71" transform="translate(813.986 1818.973)" fill="#f36f21"/>
    <path id="Path_389" data-name="Path 389" d="M0,133.093H655V-248.274H0Z" transform="translate(133 1737.548)" fill="none"/>
    <g id="Group_422" data-name="Group 422" transform="translate(214.943 1542.39)">
      <path id="Path_390" data-name="Path 390" d="M0,4.865c5.565,0,10.009-7.026,8.484-13.941" transform="translate(0 9.076)" fill="none" stroke="#fff" stroke-miterlimit="10" stroke-width="1.809"/>
    </g>
    <g id="Group_423" data-name="Group 423" transform="translate(206.683 1543.616)">
      <path id="Path_391" data-name="Path 391" d="M0,1.927C3.836,2.739,8.009.543,8.259-3.594" transform="translate(0 3.594)" fill="none" stroke="#fff" stroke-miterlimit="10" stroke-width="1.809"/>
    </g>
    <g id="Group_424" data-name="Group 424" transform="translate(206.683 1574.102)">
      <path id="Path_392" data-name="Path 392" d="M0,0C5.645,0,8.338,2.084,8.338,5.559" fill="none" stroke="#fff" stroke-miterlimit="10" stroke-width="1.809"/>
    </g>
    <g id="Group_425" data-name="Group 425" transform="translate(221.422 1552.59)">
      <path id="Path_393" data-name="Path 393" d="M0,0A7.08,7.08,0,0,1,4.742,6.224" fill="none" stroke="#fff" stroke-miterlimit="10" stroke-width="1.809"/>
    </g>
    <g id="Group_426" data-name="Group 426" transform="translate(187.014 1575.562)">
      <path id="Path_394" data-name="Path 394" d="M.429,3.151A8.891,8.891,0,0,1-.8-1.364,8.9,8.9,0,0,1,.429-5.877" transform="translate(0.801 5.877)" fill="none" stroke="#fff" stroke-miterlimit="10" stroke-width="1.809"/>
    </g>
    <g id="Group_427" data-name="Group 427" transform="translate(195.565 1554.003)">
      <path id="Path_395" data-name="Path 395" d="M1.527,0C-.934.622-2.849,2.276-2.849,4.813" transform="translate(2.849)" fill="none" stroke="#fff" stroke-miterlimit="10" stroke-width="1.809"/>
    </g>
    <g id="Group_428" data-name="Group 428" transform="translate(198.345 1543.529)">
      <path id="Path_396" data-name="Path 396" d="M2.91,4.85A8.311,8.311,0,0,1-5.428-3.488V-9.047" transform="translate(5.428 9.047)" fill="none" stroke="#fff" stroke-miterlimit="10" stroke-width="1.809"/>
    </g>
    <g id="Group_429" data-name="Group 429" transform="translate(187.226 1565.548)">
      <path id="Path_397" data-name="Path 397" d="M0,0C5.018,0,9.728,4.943,9.728,10.378v3.736" fill="none" stroke="#fff" stroke-miterlimit="10" stroke-width="1.809"/>
    </g>
    <g id="Group_430" data-name="Group 430" transform="translate(195.616 1567.154)">
      <path id="Path_398" data-name="Path 398" d="M0,1.15c2.263-2.485,6.493-3.8,11.066-3.112" transform="translate(0 2.144)" fill="none" stroke="#fff" stroke-miterlimit="10" stroke-width="1.809"/>
    </g>
    <g id="Group_431" data-name="Group 431" transform="translate(180.323 1553.332)">
      <path id="Path_399" data-name="Path 399" d="M3.087,1.029a4.065,4.065,0,0,1-5.9,0L-5.758-1.92" transform="translate(5.758 1.92)" fill="none" stroke="#fff" stroke-miterlimit="10" stroke-width="1.809"/>
    </g>
    <g id="Group_432" data-name="Group 432" transform="translate(177.477 1569.653)">
      <path id="Path_400" data-name="Path 400" d="M0,0A8.483,8.483,0,0,0,5.358,2.846" fill="none" stroke="#fff" stroke-miterlimit="10" stroke-width="1.809"/>
    </g>
    <path id="Path_401" data-name="Path 401" d="M24.481-159.041H96.693v-61.15H24.481Z" transform="translate(146.124 1752.602)" fill="none"/>
    <path id="Path_402" data-name="Path 402" d="M0,0V4.169" transform="translate(190.006 1542.139)" fill="none" stroke="#fff" stroke-miterlimit="10" stroke-width="1.809"/>
    <g id="Group_435" data-name="Group 435" transform="translate(206.683 1536.58)">
      <path id="Path_403" data-name="Path 403" d="M8.986,5.931c3.576,1.1,6.215,4.894,6.215,9.41A10.5,10.5,0,0,1,12.51,22.5a11.794,11.794,0,0,1,.124,3.547c-.667,5.779-5.352,9.991-10.468,9.425a9.63,9.63,0,0,1-9.189,6.276,9.454,9.454,0,0,1-9.74-9.315V-2.786a8.04,8.04,0,0,1,8.338-8.278c3.957,0,7.335,2.212,8.4,5.811C5.681-5.076,9.481.73,8.986,5.931Z" transform="translate(16.763 11.064)" fill="none" stroke="#fff" stroke-miterlimit="10" stroke-width="1.809"/>
    </g>
    <g id="Group_436" data-name="Group 436" transform="translate(210.852 1561.595)">
      <path id="Path_404" data-name="Path 404" d="M5.151,7.51C9.408-2.513,2.508-8.45-4.056-8.037c0-.393.006-1.358.006-1.8,0-3.409-3.018-4.169-5.559-4.169" transform="translate(9.609 14.009)" fill="none" stroke="#fff" stroke-miterlimit="10" stroke-width="1.809"/>
    </g>
    <g id="Group_437" data-name="Group 437" transform="translate(223.863 1564.935)">
      <path id="Path_405" data-name="Path 405" d="M0,1.81C2.6,1.2,4.651-1.04,4.651-3.376" transform="translate(0 3.376)" fill="none" stroke="#fff" stroke-miterlimit="10" stroke-width="1.809"/>
    </g>
    <g id="Group_438" data-name="Group 438" transform="translate(174.773 1536.58)">
      <path id="Path_406" data-name="Path 406" d="M.94,11.546A11.828,11.828,0,0,0,.714,15.57C1.371,21.349,5.987,25.56,11.033,25a9.948,9.948,0,0,0,9.395,6.275,9.837,9.837,0,0,0,9.728-9.728V-13.613c0-4.8-3.587-7.925-8.338-7.925-3.9,0-7.286,1.96-8.339,5.559-4.71.147-9.206,5.757-9.682,11.193C.56-3.449-1.753.156-1.753,4.389A10.491,10.491,0,0,0,.94,11.546" transform="translate(1.753 21.538)" fill="none" stroke="#fff" stroke-miterlimit="10" stroke-width="1.809"/>
    </g>
    <path id="Path_407" data-name="Path 407" d="M24.481-159.041H96.693v-61.15H24.481Z" transform="translate(146.124 1752.602)" fill="none"/>
    <g id="Group_440" data-name="Group 440" transform="translate(310.691 1774)">
      <path id="Path_408" data-name="Path 408" d="M13.337,6.669A19.11,19.11,0,0,1-5.771,25.778,19.108,19.108,0,0,1-24.88,6.669,19.106,19.106,0,0,1-5.771-12.44,19.108,19.108,0,0,1,13.337,6.669Z" transform="translate(24.88 12.44)" fill="none" stroke="#fff" stroke-miterlimit="10" stroke-width="3.317"/>
    </g>
    <g id="Group_441" data-name="Group 441" transform="translate(320.882 1784.19)">
      <path id="Path_409" data-name="Path 409" d="M0,3.557A10.191,10.191,0,0,1,10.192-6.635" transform="translate(0 6.635)" fill="none" stroke="#fff" stroke-linecap="round" stroke-miterlimit="10" stroke-width="3.317"/>
    </g>
    <g id="Group_442" data-name="Group 442" transform="translate(343.813 1807.122)">
      <path id="Path_410" data-name="Path 410" d="M0,0,12.739,12.739" fill="none" stroke="#fff" stroke-miterlimit="10" stroke-width="3.317"/>
    </g>
    <path id="Path_411" data-name="Path 411" d="M110.7-6.741h61.15v-61.15H110.7Z" transform="translate(192.345 1834.246)" fill="none"/>
    <g id="Group_444" data-name="Group 444" transform="translate(460.532 1530.598)">
      <path id="Path_412" data-name="Path 412" d="M0,0V11.516" fill="none" stroke="#fff" stroke-miterlimit="10" stroke-width="1.874"/>
    </g>
    <path id="Path_413" data-name="Path 413" d="M189.8-150.771h71.974v-73.412H189.8Z" transform="translate(234.746 1750.462)" fill="none"/>
    <path id="Path_414" data-name="Path 414" d="M0,0,8.143,8.143" transform="translate(438.14 1539.873)" fill="none" stroke="#fff" stroke-miterlimit="10" stroke-width="1.874"/>
    <g id="Group_447" data-name="Group 447" transform="translate(428.864 1562.266)">
      <path id="Path_415" data-name="Path 415" d="M0,0H11.516" fill="none" stroke="#fff" stroke-miterlimit="10" stroke-width="1.874"/>
    </g>
    <path id="Path_416" data-name="Path 416" d="M189.8-150.771h71.974v-73.412H189.8Z" transform="translate(234.746 1750.462)" fill="none"/>
    <path id="Path_417" data-name="Path 417" d="M0,2.842,8.143-5.3" transform="translate(438.14 1581.816)" fill="none" stroke="#fff" stroke-miterlimit="10" stroke-width="1.874"/>
    <path id="Path_418" data-name="Path 418" d="M2.841,2.842-5.3-5.3" transform="translate(480.083 1581.816)" fill="none" stroke="#fff" stroke-miterlimit="10" stroke-width="1.874"/>
    <g id="Group_451" data-name="Group 451" transform="translate(480.685 1562.266)">
      <path id="Path_419" data-name="Path 419" d="M4.019,0H-7.5" transform="translate(7.497)" fill="none" stroke="#fff" stroke-miterlimit="10" stroke-width="1.874"/>
    </g>
    <path id="Path_420" data-name="Path 420" d="M189.8-150.771h71.974v-73.412H189.8Z" transform="translate(234.746 1750.462)" fill="none"/>
    <path id="Path_421" data-name="Path 421" d="M2.841,0-5.3,8.143" transform="translate(480.083 1539.873)" fill="none" stroke="#fff" stroke-miterlimit="10" stroke-width="1.874"/>
    <g id="Group_454" data-name="Group 454" transform="translate(454.775 1593.933)">
      <path id="Path_422" data-name="Path 422" d="M4.019,0H2.58L1.14,1.439H-4.618L-6.058,0H-7.5" transform="translate(7.497)" fill="none" stroke="#fff" stroke-miterlimit="10" stroke-width="1.874"/>
    </g>
    <path id="Path_423" data-name="Path 423" d="M189.8-150.771h71.974v-73.412H189.8Z" transform="translate(234.746 1750.462)" fill="none"/>
    <path id="Path_424" data-name="Path 424" d="M0,0H17.273" transform="translate(451.895 1585.297)" fill="none" stroke="#fff" stroke-miterlimit="10" stroke-width="1.874"/>
    <path id="Path_425" data-name="Path 425" d="M0,0H14.395" transform="translate(453.335 1589.615)" fill="none" stroke="#fff" stroke-miterlimit="10" stroke-width="1.874"/>
    <g id="Group_458" data-name="Group 458" transform="translate(446.137 1547.87)">
      <path id="Path_426" data-name="Path 426" d="M7.536,12.057V9.178a9.573,9.573,0,0,1,2.708-6.837,14.572,14.572,0,0,0,4.49-10.436,14.4,14.4,0,0,0-14.4-14.4,14.4,14.4,0,0,0-14.395,14.4A14.577,14.577,0,0,0-9.569,2.341a9.575,9.575,0,0,1,2.71,6.837v2.879" transform="translate(14.057 22.491)" fill="none" stroke="#fff" stroke-miterlimit="10" stroke-width="1.874"/>
    </g>
    <path id="Path_427" data-name="Path 427" d="M189.8-150.771h71.974v-73.412H189.8Z" transform="translate(234.746 1750.462)" fill="none"/>
    <path id="Path_428" data-name="Path 428" d="M0,4.019V-7.5" transform="translate(460.532 1578.398)" fill="none" stroke="#fff" stroke-miterlimit="10" stroke-width="1.874"/>
    <path id="Path_429" data-name="Path 429" d="M0,0,2.879,2.879,5.757,0" transform="translate(457.653 1568.023)" fill="none" stroke="#fff" stroke-miterlimit="10" stroke-width="1.874"/>
    <path id="Path_430" data-name="Path 430" d="M0,0,2.2,5.319" transform="translate(450.617 1538.328)" fill="none" stroke="#fff" stroke-miterlimit="10" stroke-width="1.874"/>
    <path id="Path_431" data-name="Path 431" d="M0,0,5.321,2.2" transform="translate(436.594 1552.35)" fill="none" stroke="#fff" stroke-miterlimit="10" stroke-width="1.874"/>
    <path id="Path_432" data-name="Path 432" d="M0,.769l5.321-2.2" transform="translate(436.594 1571.412)" fill="none" stroke="#fff" stroke-miterlimit="10" stroke-width="1.874"/>
    <path id="Path_433" data-name="Path 433" d="M1.857.769l-5.321-2.2" transform="translate(482.614 1571.412)" fill="none" stroke="#fff" stroke-miterlimit="10" stroke-width="1.874"/>
    <path id="Path_434" data-name="Path 434" d="M1.857,0-3.464,2.2" transform="translate(482.614 1552.35)" fill="none" stroke="#fff" stroke-miterlimit="10" stroke-width="1.874"/>
    <path id="Path_435" data-name="Path 435" d="M.769,0l-2.2,5.319" transform="translate(469.679 1538.328)" fill="none" stroke="#fff" stroke-miterlimit="10" stroke-width="1.874"/>
    <path id="Path_436" data-name="Path 436" d="M0,0V3.261" transform="translate(713.334 1536.992)" fill="none" stroke="#fff" stroke-linejoin="round" stroke-miterlimit="10" stroke-width="2.123"/>
    <path id="Path_437" data-name="Path 437" d="M0,0V3.261" transform="translate(713.334 1543.514)" fill="none" stroke="#fff" stroke-linejoin="round" stroke-miterlimit="10" stroke-width="2.123"/>
    <path id="Path_438" data-name="Path 438" d="M1.138,0H-2.123" transform="translate(710.565 1541.884)" fill="none" stroke="#fff" stroke-linejoin="round" stroke-miterlimit="10" stroke-width="2.123"/>
    <path id="Path_439" data-name="Path 439" d="M1.138,0H-2.123" transform="translate(717.088 1541.884)" fill="none" stroke="#fff" stroke-linejoin="round" stroke-miterlimit="10" stroke-width="2.123"/>
    <path id="Path_440" data-name="Path 440" d="M0,0V4.892" transform="translate(739.425 1559.821)" fill="none" stroke="#fff" stroke-linejoin="round" stroke-miterlimit="10" stroke-width="2.123"/>
    <path id="Path_441" data-name="Path 441" d="M0,0V4.892" transform="translate(739.425 1571.235)" fill="none" stroke="#fff" stroke-linejoin="round" stroke-miterlimit="10" stroke-width="2.123"/>
    <path id="Path_442" data-name="Path 442" d="M1.707,0H-3.185" transform="translate(734.456 1567.974)" fill="none" stroke="#fff" stroke-linejoin="round" stroke-miterlimit="10" stroke-width="2.123"/>
    <path id="Path_443" data-name="Path 443" d="M1.707,0H-3.185" transform="translate(745.87 1567.974)" fill="none" stroke="#fff" stroke-linejoin="round" stroke-miterlimit="10" stroke-width="2.123"/>
    <path id="Path_444" data-name="Path 444" d="M1.138,0-2.123,3.261" transform="translate(728.503 1581.019)" fill="none" stroke="#fff" stroke-linejoin="round" stroke-miterlimit="10" stroke-width="2.123"/>
    <path id="Path_445" data-name="Path 445" d="M1.179,0-2.2,3.378" transform="translate(720.309 1589.172)" fill="none" stroke="#fff" stroke-linejoin="round" stroke-miterlimit="10" stroke-width="2.123"/>
    <path id="Path_446" data-name="Path 446" d="M1.179,1.138-2.2-2.123" transform="translate(720.309 1583.142)" fill="none" stroke="#fff" stroke-linejoin="round" stroke-miterlimit="10" stroke-width="2.123"/>
    <path id="Path_447" data-name="Path 447" d="M1.138,1.138-2.123-2.123" transform="translate(728.503 1591.295)" fill="none" stroke="#fff" stroke-linejoin="round" stroke-miterlimit="10" stroke-width="2.123"/>
    <path id="Path_448" data-name="Path 448" d="M1.138,0-2.123,3.261" transform="translate(700.897 1548.406)" fill="none" stroke="#fff" stroke-linejoin="round" stroke-miterlimit="10" stroke-width="2.123"/>
    <path id="Path_449" data-name="Path 449" d="M1.178,0-2.2,3.378" transform="translate(692.704 1556.559)" fill="none" stroke="#fff" stroke-linejoin="round" stroke-miterlimit="10" stroke-width="2.123"/>
    <path id="Path_450" data-name="Path 450" d="M1.178,1.138-2.2-2.123" transform="translate(692.704 1550.529)" fill="none" stroke="#fff" stroke-linejoin="round" stroke-miterlimit="10" stroke-width="2.123"/>
    <path id="Path_451" data-name="Path 451" d="M1.138,1.138-2.123-2.123" transform="translate(700.897 1558.683)" fill="none" stroke="#fff" stroke-linejoin="round" stroke-miterlimit="10" stroke-width="2.123"/>
    <g id="Group_484" data-name="Group 484" transform="translate(676.707 1579.335)">
      <path id="Path_452" data-name="Path 452" d="M0,3.506c6.462,6.341,13.266,7.049,17.929,5.8,6.332-1.694,8.024-6.464,7.009-10.253S20.64-7.674,14.8-6.112,7.647,2.739,0,3.506Z" transform="translate(0 6.54)" fill="none" stroke="#fff" stroke-linejoin="round" stroke-miterlimit="10" stroke-width="2.123"/>
    </g>
    <g id="Group_485" data-name="Group 485" transform="translate(696.967 1531.422)">
      <path id="Path_453" data-name="Path 453" d="M1.786,18.506,16.143,6.715C22.556.3,47.992-27.663,49.212-29.887a3.264,3.264,0,0,0-.306-3.851,3.266,3.266,0,0,0-3.849-.306c-2.224,1.22-30.19,26.652-36.6,33.066L-3.331,13.389" transform="translate(3.331 34.521)" fill="none" stroke="#fff" stroke-miterlimit="10" stroke-width="2.123"/>
    </g>
    <path id="Path_454" data-name="Path 454" d="M351.836-150.771h81.685v-73.412H351.836Z" transform="translate(321.61 1750.462)" fill="none"/>
    <path id="Path_455" data-name="Path 455" d="M2.259,2.249-4.214-4.195" transform="translate(714.342 1569.082)" fill="none" stroke="#fff" stroke-miterlimit="10" stroke-width="2.123"/>
    <g id="Group_488" data-name="Group 488" transform="translate(587.049 1805.216)">
      <path id="Path_456" data-name="Path 456" d="M7.519,0-14.026,9.943V11.6l9.945,6.63L17.462,8.287V6.63Z" transform="translate(14.026)" fill="none" stroke="#fff" stroke-linejoin="round" stroke-miterlimit="10" stroke-width="2.158"/>
    </g>
    <g id="Group_489" data-name="Group 489" transform="translate(565.505 1818.474)">
      <path id="Path_457" data-name="Path 457" d="M0,0V8.287L21.545,18.23,43.088,8.287V0" fill="none" stroke="#fff" stroke-linejoin="round" stroke-miterlimit="10" stroke-width="2.158"/>
    </g>
    <path id="Path_458" data-name="Path 458" d="M272.419,10.14h71.974V-76.037H272.419Z" transform="translate(279.036 1829.88)" fill="none"/>
    <path id="Path_459" data-name="Path 459" d="M.195,0,13.717,6.241V7.9L5.43,11.213-.363,8.539" transform="translate(603.164 1794.004)" fill="none" stroke="#fff" stroke-linecap="round" stroke-linejoin="round" stroke-miterlimit="10" stroke-width="2.158"/>
    <g id="Group_492" data-name="Group 492" transform="translate(557.384 1793.614)">
      <path id="Path_460" data-name="Path 460" d="M5.014,0-9.354,6.631V8.289L-1.068,11.6,5.168,8.725" transform="translate(9.354)" fill="none" stroke="#fff" stroke-linecap="round" stroke-linejoin="round" stroke-miterlimit="10" stroke-width="2.158"/>
    </g>
    <g id="Group_493" data-name="Group 493" transform="translate(587.05 1816.817)">
      <path id="Path_461" data-name="Path 461" d="M0,0V19.888" fill="none" stroke="#fff" stroke-linejoin="round" stroke-miterlimit="10" stroke-width="2.158"/>
    </g>
    <g id="Group_494" data-name="Group 494" transform="translate(555.562 1805.216)">
      <path id="Path_462" data-name="Path 462" d="M3.47,0,25.015,9.943V11.6L15.07,18.23-6.473,8.287V6.63Z" transform="translate(6.473)" fill="none" stroke="#fff" stroke-linejoin="round" stroke-miterlimit="10" stroke-width="2.158"/>
    </g>
    <g id="Group_495" data-name="Group 495" transform="translate(595.336 1770.414)">
      <path id="Path_463" data-name="Path 463" d="M0,11.567C0-8.919,6.663-16.767,11.636-19.919S24.78-21.593,24.78-16.667s-5.238,6.04-8.415,3.677" transform="translate(0 21.578)" fill="none" stroke="#fff" stroke-linecap="round" stroke-linejoin="round" stroke-miterlimit="10" stroke-width="2.158"/>
    </g>
    <g id="Group_496" data-name="Group 496" transform="translate(555.602 1777.043)">
      <path id="Path_464" data-name="Path 464" d="M8.662,9.832c0-18.725-6.488-24.632-11.6-27.139-4.972-2.439-11.964-.418-13.1,4.541-.946,4.127,4.143,7.224,6.576,3.021" transform="translate(16.157 18.341)" fill="none" stroke="#fff" stroke-linecap="round" stroke-linejoin="round" stroke-miterlimit="10" stroke-width="2.158"/>
    </g>
    <path id="Path_465" data-name="Path 465" d="M272.419,10.14h71.974V-76.037H272.419Z" transform="translate(279.036 1829.88)" fill="none"/>
    <path id="Path_466" data-name="Path 466" d="M1.157,0-2.158,3.315" transform="translate(579.264 1773.729)" fill="none" stroke="#fff" stroke-miterlimit="10" stroke-width="2.158"/>
    <path id="Path_467" data-name="Path 467" d="M1.157,0-2.158,3.315" transform="translate(587.55 1765.442)" fill="none" stroke="#fff" stroke-miterlimit="10" stroke-width="2.158"/>
    <path id="Path_468" data-name="Path 468" d="M0,0,3.315,3.315" transform="translate(585.392 1773.729)" fill="none" stroke="#fff" stroke-miterlimit="10" stroke-width="2.158"/>
    <path id="Path_469" data-name="Path 469" d="M0,0,3.315,3.315" transform="translate(577.106 1765.442)" fill="none" stroke="#fff" stroke-miterlimit="10" stroke-width="2.158"/>
    <path id="Path_470" data-name="Path 470" d="M0,0V3.315" transform="translate(587.05 1783.672)" fill="none" stroke="#fff" stroke-miterlimit="10" stroke-width="2.158"/>
    <path id="Path_471" data-name="Path 471" d="M0,0V3.315" transform="translate(587.05 1790.302)" fill="none" stroke="#fff" stroke-miterlimit="10" stroke-width="2.158"/>
    <path id="Path_472" data-name="Path 472" d="M1.157,0H-2.158" transform="translate(584.235 1788.644)" fill="none" stroke="#fff" stroke-miterlimit="10" stroke-width="2.158"/>
    <path id="Path_473" data-name="Path 473" d="M1.157,0H-2.158" transform="translate(590.865 1788.644)" fill="none" stroke="#fff" stroke-miterlimit="10" stroke-width="2.158"/>
    <g id="Group_506" data-name="Group 506" transform="translate(562.19 1758.813)">
      <path id="Path_474" data-name="Path 474" d="M0,0V3.315" fill="none" stroke="#fff" stroke-miterlimit="10" stroke-width="2.158"/>
    </g>
    <path id="Path_475" data-name="Path 475" d="M272.419,10.14h71.974V-76.037H272.419Z" transform="translate(279.036 1829.88)" fill="none"/>
    <path id="Path_476" data-name="Path 476" d="M0,0V3.315" transform="translate(562.19 1765.442)" fill="none" stroke="#fff" stroke-miterlimit="10" stroke-width="2.158"/>
    <g id="Group_509" data-name="Group 509" transform="translate(557.218 1763.785)">
      <path id="Path_477" data-name="Path 477" d="M1.157,0H-2.158" transform="translate(2.158)" fill="none" stroke="#fff" stroke-miterlimit="10" stroke-width="2.158"/>
    </g>
    <path id="Path_478" data-name="Path 478" d="M272.419,10.14h71.974V-76.037H272.419Z" transform="translate(279.036 1829.88)" fill="none"/>
    <path id="Path_479" data-name="Path 479" d="M1.157,0H-2.158" transform="translate(566.005 1763.785)" fill="none" stroke="#fff" stroke-miterlimit="10" stroke-width="2.158"/>
    <g id="Group_512" data-name="Group 512" transform="translate(596.993 1760.471)">
      <path id="Path_480" data-name="Path 480" d="M0,3.47A22.529,22.529,0,0,1,11.6-6.473" transform="translate(0 6.473)" fill="none" stroke="#fff" stroke-linecap="round" stroke-miterlimit="10" stroke-width="2.158"/>
    </g>
    <path id="Path_481" data-name="Path 481" d="M272.419,10.14h71.974V-76.037H272.419Z" transform="translate(279.036 1829.88)" fill="none"/>
    <g id="Group_514" data-name="Group 514" transform="translate(132 1430)">
      <text id="Analysis" fill="#555" font-size="30" font-family="ITCAvantGardePro-Bold, ITC Avant Garde Gothic Pro" font-weight="700"><tspan x="10.355" y="22">Analysis</tspan></text>
    </g>
    <g id="Group_517" data-name="Group 517" transform="translate(259 1902)">
      <text id="Research" fill="#555" font-size="30" font-family="ITCAvantGardePro-Bold, ITC Avant Garde Gothic Pro" font-weight="700"><tspan x="2.42" y="22">Research</tspan></text>
    </g>
    <g id="Group_518" data-name="Group 518" transform="translate(513 1902)">
      <text id="Conceptualize" transform="translate(-43)" fill="#555" font-size="30" font-family="ITCAvantGardePro-Bold, ITC Avant Garde Gothic Pro" font-weight="700"><tspan x="5.01" y="22">Conceptualize</tspan></text>
    </g>
    <g id="Group_519" data-name="Group 519" transform="translate(774 1902)">
      <text id="Analyse" transform="translate(-43)" fill="#555" font-size="30" font-family="ITCAvantGardePro-Bold, ITC Avant Garde Gothic Pro" font-weight="700"><tspan x="55.44" y="22">Analyse</tspan></text>
    </g>
    <g id="Group_515" data-name="Group 515" transform="translate(389 1430)">
      <text id="Ideate" fill="#555" font-size="30" font-family="ITCAvantGardePro-Bold, ITC Avant Garde Gothic Pro" font-weight="700"><tspan x="23.63" y="22">Ideate</tspan></text>
    </g>
    <g id="Group_516" data-name="Group 516" transform="translate(643 1430)">
      <text id="Execute" fill="#555" font-size="30" font-family="ITCAvantGardePro-Bold, ITC Avant Garde Gothic Pro" font-weight="700"><tspan x="13.22" y="22">Execute</tspan></text>
    </g>
    <g id="Group_520" data-name="Group 520" transform="translate(526.171 1553.9)">
      <path id="Path_484" data-name="Path 484" d="M309.562,485.7a1.733,1.733,0,0,1-1.733-1.733V469.833a1.733,1.733,0,1,1,3.466,0v14.133A1.733,1.733,0,0,1,309.562,485.7Z" transform="translate(-23.781 -214.879)" fill="#fff"/>
      <path id="Path_485" data-name="Path 485" d="M382.631,375.286a1.733,1.733,0,0,1-1.733-1.733V339.833a1.733,1.733,0,1,1,3.466,0v33.721A1.733,1.733,0,0,1,382.631,375.286Z" transform="translate(-85.84 -104.467)" fill="#fff"/>
      <path id="Path_486" data-name="Path 486" d="M455.7,434.739a1.733,1.733,0,0,1-1.733-1.733V409.833a1.733,1.733,0,1,1,3.466,0v23.174A1.733,1.733,0,0,1,455.7,434.739Z" transform="translate(-147.899 -163.92)" fill="#fff"/>
      <path id="Path_487" data-name="Path 487" d="M528.767,485.7a1.733,1.733,0,0,1-1.733-1.733V469.833a1.733,1.733,0,1,1,3.466,0v14.133A1.733,1.733,0,0,1,528.767,485.7Z" transform="translate(-209.957 -214.879)" fill="#fff"/>
      <path id="Path_488" data-name="Path 488" d="M601.835,426.246a1.733,1.733,0,0,1-1.733-1.733v-24.68a1.733,1.733,0,0,1,3.466,0v24.68A1.733,1.733,0,0,1,601.835,426.246Z" transform="translate(-272.016 -155.426)" fill="#fff"/>
      <path id="Path_489" data-name="Path 489" d="M674.9,358.3a1.733,1.733,0,0,1-1.733-1.733V319.833a1.733,1.733,0,1,1,3.466,0v36.734A1.733,1.733,0,0,1,674.9,358.3Z" transform="translate(-334.075 -87.48)" fill="#fff"/>
      <path id="Path_490" data-name="Path 490" d="M547.139,279.42a1.733,1.733,0,0,1-1.294-2.885l16.847-18.93a1.733,1.733,0,0,1,2.589,2.3l-16.847,18.93A1.729,1.729,0,0,1,547.139,279.42Z" transform="translate(-225.562 -35.608)" fill="#fff"/>
      <path id="Path_491" data-name="Path 491" d="M411.954,288.468a1.728,1.728,0,0,1-1.251-.533l-15.821-16.491a1.733,1.733,0,1,1,2.5-2.4L413.2,285.535a1.733,1.733,0,0,1-1.25,2.932Z" transform="translate(-97.308 -45.363)" fill="#fff"/>
      <path id="Path_492" data-name="Path 492" d="M315.94,292.82a1.734,1.734,0,0,1-1.561-2.483l8.007-16.694a1.733,1.733,0,1,1,3.125,1.5L317.5,291.837A1.733,1.733,0,0,1,315.94,292.82Z" transform="translate(-29.199 -48.887)" fill="#fff"/>
      <path id="Path_493" data-name="Path 493" d="M654.52,225.8a5.349,5.349,0,1,1,5.349-5.349A5.355,5.355,0,0,1,654.52,225.8Zm0-7.232a1.883,1.883,0,1,0,1.883,1.883A1.886,1.886,0,0,0,654.52,218.566Z" transform="translate(-313.691 0)" fill="#fff"/>
      <path id="Path_494" data-name="Path 494" d="M508.383,384.8a5.349,5.349,0,1,1,5.349-5.349A5.355,5.355,0,0,1,508.383,384.8Zm0-7.232a1.883,1.883,0,1,0,1.883,1.883,1.859,1.859,0,0,0-.441-1.211A1.881,1.881,0,0,0,508.383,377.566Z" transform="translate(-189.574 -135.043)" fill="#fff"/>
      <path id="Path_495" data-name="Path 495" d="M359.247,237.8a5.349,5.349,0,1,1,5.349-5.349A5.355,5.355,0,0,1,359.247,237.8Zm0-7.232a1.883,1.883,0,1,0,1.883,1.883A1.885,1.885,0,0,0,359.247,230.566Z" transform="translate(-62.909 -10.192)" fill="#fff"/>
      <path id="Path_496" data-name="Path 496" d="M285.178,391.8a5.349,5.349,0,1,1,5.349-5.349A5.355,5.355,0,0,1,285.178,391.8Zm0-7.232a1.883,1.883,0,1,0,1.883,1.883A1.886,1.886,0,0,0,285.178,384.566Z" transform="translate(0 -140.988)" fill="#fff"/>
    </g>
  </g>
</svg>
