<svg xmlns="http://www.w3.org/2000/svg" width="102.5" height="109.527" viewBox="0 0 102.5 109.527">
  <g id="Group_387" data-name="Group 387" transform="translate(-917.137 -403.775)" opacity="0.45">
    <g id="Group_385" data-name="Group 385" transform="translate(949.471 403.775)">
      <rect id="Rectangle_184" data-name="Rectangle 184" width="3.423" height="3.423" transform="translate(37.65 29.094)" fill="#f36f21"/>
      <rect id="Rectangle_185" data-name="Rectangle 185" width="3.423" height="3.423" transform="translate(44.495 29.094)" fill="#f36f21"/>
      <rect id="Rectangle_186" data-name="Rectangle 186" width="3.423" height="3.423" transform="translate(51.341 29.094)" fill="#f36f21"/>
      <path id="Path_349" data-name="Path 349" d="M966.835,470.384a30.8,30.8,0,0,1,0-61.609V412.2a27.382,27.382,0,1,0,23.721,41.072l2.961,1.715A30.92,30.92,0,0,1,966.835,470.384Z" transform="translate(-936.031 -400.218)" fill="#f36f21"/>
      <path id="Path_350" data-name="Path 350" d="M986.5,463.448,953.887,444.62l-.856-1.484v-37.65l1.711-1.711a39.373,39.373,0,0,1,34.094,59.047Zm-30.046-21.3,30.241,17.458a35.955,35.955,0,0,0-30.241-52.367Z" transform="translate(-923.938 -403.775)" fill="#f36f21"/>
      <rect id="Rectangle_187" data-name="Rectangle 187" width="37.65" height="3.423" transform="translate(30.805 37.65)" fill="#f36f21"/>
    </g>
    <g id="Group_386" data-name="Group 386" transform="translate(917.137 403.775)">
      <path id="Path_351" data-name="Path 351" d="M954.54,512.061l-3.293-.94,2.8-9.8H935.78c-6.079,0-8.557-2.478-8.557-8.557V479.074h-8.557l-1.53-2.476c.741-1.484,1.645-3.229,2.6-5.083,2.8-5.413,7.486-14.475,7.486-16.4v-10.27c0-22.646,19.193-41.071,42.784-41.071h6.845V407.2h-6.845c-21.7,0-39.361,16.891-39.361,37.648v10.27c0,2.565-3.115,8.783-7.867,17.973-.457.885-.9,1.746-1.323,2.564h7.479l1.711,1.711v15.4c0,4.224.911,5.134,5.134,5.134h20.536l1.646,2.182Z" transform="translate(-917.137 -403.775)" fill="#f36f21"/>
      <rect id="Rectangle_188" data-name="Rectangle 188" width="3.423" height="3.423" transform="translate(23.778 47.917)" fill="#f36f21"/>
      <rect id="Rectangle_189" data-name="Rectangle 189" width="3.423" height="49.629" transform="translate(88.809 59.898)" fill="#f36f21"/>
    </g>
  </g>
</svg>
