<svg xmlns="http://www.w3.org/2000/svg" width="128.9" height="107.417" viewBox="0 0 128.9 107.417">
  <g id="Group_611" data-name="Group 611" opacity="0.45">
    <g id="Group_611-2" data-name="Group 611" transform="translate(32.225 16.112)">
      <path id="Path_704" data-name="Path 704" d="M-261.61-36.444a2.685,2.685,0,0,1-2.685-2.685V-50.3a8.156,8.156,0,0,0-5.014-7.541l-11.518-4.836a8.047,8.047,0,0,1-4.952-7.441,2.884,2.884,0,0,1,.755-1.947c3.072-3.177,3.3-9.743,3.273-16.76a9.4,9.4,0,0,0-9.4-9.386,9.4,9.4,0,0,0-9.4,9.375c-.024,7.044.207,13.62,3.276,16.8a2.69,2.69,0,0,1,.752,1.866,8.058,8.058,0,0,1-4.963,7.5l-11.507,4.828A8.16,8.16,0,0,0-318-50.3v11.169a2.683,2.683,0,0,1-2.685,2.685,2.685,2.685,0,0,1-2.685-2.685V-50.3a13.52,13.52,0,0,1,8.306-12.493l11.523-4.834a2.675,2.675,0,0,0,1.533-1.694c-3.639-4.691-3.934-11.913-3.907-19.526a14.773,14.773,0,0,1,14.77-14.735,14.774,14.774,0,0,1,14.77,14.746c.029,7.586-.263,14.791-3.9,19.485a2.708,2.708,0,0,0,1.531,1.721l11.52,4.836A13.516,13.516,0,0,1-258.925-50.3v11.169A2.683,2.683,0,0,1-261.61-36.444Z" transform="translate(323.375 103.579)" fill="#f36f21"/>
    </g>
    <g id="Group_612" data-name="Group 612" transform="translate(0 0)">
      <path id="Path_705" data-name="Path 705" d="M-209.16-26.331H-332.69a2.685,2.685,0,0,1-2.685-2.685v-77.877a2.686,2.686,0,0,1,2.685-2.685H-209.16a2.685,2.685,0,0,1,2.685,2.685v77.877A2.683,2.683,0,0,1-209.16-26.331ZM-330-31.7h118.158v-72.506H-330Z" transform="translate(335.375 109.579)" fill="#f36f21"/>
    </g>
    <g id="Group_613" data-name="Group 613" transform="translate(0 77.877)">
      <path id="Path_706" data-name="Path 706" d="M-209.16-64.467H-332.69a2.685,2.685,0,0,1-2.685-2.685V-77.894a2.686,2.686,0,0,1,2.685-2.685H-209.16a2.685,2.685,0,0,1,2.685,2.685v10.742A2.683,2.683,0,0,1-209.16-64.467ZM-330-69.837h118.158v-5.371H-330Z" transform="translate(335.375 80.579)" fill="#f36f21"/>
    </g>
    <g id="Group_614" data-name="Group 614" transform="translate(61.765 88.619)">
      <path id="Path_707" data-name="Path 707" d="M-309.69-57.781a2.685,2.685,0,0,1-2.685-2.685V-73.894a2.686,2.686,0,0,1,2.685-2.685A2.685,2.685,0,0,1-307-73.894v13.427A2.683,2.683,0,0,1-309.69-57.781Z" transform="translate(312.375 76.579)" fill="#f36f21"/>
    </g>
    <g id="Group_615" data-name="Group 615" transform="translate(29.54 102.046)">
      <path id="Path_708" data-name="Path 708" d="M-257.24-66.208h-64.45a2.685,2.685,0,0,1-2.685-2.685,2.686,2.686,0,0,1,2.685-2.685h64.45a2.685,2.685,0,0,1,2.685,2.685A2.683,2.683,0,0,1-257.24-66.208Z" transform="translate(324.375 71.579)" fill="#f36f21"/>
    </g>
  </g>
</svg>
