<svg xmlns="http://www.w3.org/2000/svg" width="118.959" height="109.353" viewBox="0 0 118.959 109.353">
  <g id="Group_540" data-name="Group 540" transform="translate(-867.751 -196.725)" opacity="0.45">
    <path id="Path_585" data-name="Path 585" d="M979.145,196.725H875.316a7.573,7.573,0,0,0-7.565,7.565V276.25a10.432,10.432,0,0,0,10.42,10.42h34.241v2.593a6.463,6.463,0,0,1-6.456,6.456H897.92a1.855,1.855,0,0,0-1.856,1.856v6.65a1.855,1.855,0,0,0,1.856,1.856h58.621a1.856,1.856,0,0,0,1.856-1.856v-6.65a1.856,1.856,0,0,0-1.856-1.856h-8.036a6.463,6.463,0,0,1-6.456-6.456v-2.593H976.29a10.432,10.432,0,0,0,10.42-10.42V204.29A7.573,7.573,0,0,0,979.145,196.725Zm-37.1,86.233H878.171a6.716,6.716,0,0,1-6.709-6.709V204.29a3.858,3.858,0,0,1,3.854-3.854H979.145A3.858,3.858,0,0,1,983,204.29V276.25a6.716,6.716,0,0,1-6.709,6.709Zm6.456,16.471h6.18v2.938h-54.91v-2.938h6.18a10.178,10.178,0,0,0,10.167-10.167v-2.593h22.215v2.593A10.178,10.178,0,0,0,948.505,299.429Z" transform="translate(0 0)" fill="#3fb549"/>
    <path id="Path_586" data-name="Path 586" d="M996.513,223.533H896.78a1.856,1.856,0,0,0-1.856,1.856v59.376a1.856,1.856,0,0,0,1.856,1.856h99.734a1.856,1.856,0,0,0,1.856-1.856V225.389A1.856,1.856,0,0,0,996.513,223.533Zm-1.856,59.376H898.635V227.244h96.022Z" transform="translate(-19.416 -19.155)" fill="#3fb549"/>
    <path id="Path_587" data-name="Path 587" d="M1205.378,451.331a5.734,5.734,0,1,0,5.734,5.734A5.741,5.741,0,0,0,1205.378,451.331Zm0,7.757a2.023,2.023,0,1,1,2.023-2.023A2.025,2.025,0,0,1,1205.378,459.088Z" transform="translate(-237.146 -181.923)" fill="#3fb549"/>
    <path id="Path_588" data-name="Path 588" d="M924.656,299.96a1.854,1.854,0,0,0,1.327.561h54.6a2.637,2.637,0,0,0,2.31-2.134v-9.035l3.538,9.188,2.182-2.182,6.017,6.017,1.312-1.312,1.312-1.312-6.017-6.017,2.182-2.182L982.895,287.5v-31.95a1.856,1.856,0,0,0-1.856-1.856h-55.4a1.856,1.856,0,0,0-1.856,1.856v42.836A1.853,1.853,0,0,0,924.656,299.96Zm4.61-3.428,2.23-4.075.26.1a1.854,1.854,0,0,0,1.544-.084l1.928-1.014.73.546a1.856,1.856,0,0,0,2.059.109l.551-.327-2.885,4.742-.169.278h-6.4Zm7.828-14.3a.41.41,0,0,1,.092-.092l.013-.008a.485.485,0,0,1,.106-.053l.011,0a.591.591,0,0,1,.1-.023h.006a.723.723,0,0,1,.08-.005h0a.6.6,0,0,1,.269.062.414.414,0,0,1,.165.153l2.8,4.6h0a1.855,1.855,0,0,0-1.468.186l-2.085,1.238-.675-.5a1.855,1.855,0,0,0-1.975-.156l-.564.3-.512.269,3.609-5.933.008-.011Zm29.357.318,1.016-1.67a.685.685,0,0,1,.595-.3l.053,0h.015l.051.005.025,0,.05.01.03.009.052.016.033.015c.016.007.033.013.05.022s.023.014.035.021.032.019.047.03.022.019.034.029a.545.545,0,0,1,.043.04c.011.011.021.025.031.038a.636.636,0,0,1,.038.051l.007.01.983,1.616c-.04-.022-.083-.037-.124-.055a1.852,1.852,0,0,0-1.954.267l-.394.331a1.851,1.851,0,0,0-.716-.49Zm10.991,14.257h-8.715l-.169-.278-5.306-8.721.5-.815,1.231-.444.144.242a1.856,1.856,0,0,0,2.79.472l.932-.784,1.421,1.025a1.843,1.843,0,0,0,2.076.059l4.948,8.966Zm-21.892-14.52a1.856,1.856,0,0,0-1.014.469l-1.179,1.074-1.77-1.116a1.855,1.855,0,0,0-1.932-.03l-1.879,1.106h0l3.432-5.641a1.11,1.11,0,0,1,1.824,0Zm-9.821,5.637h0l.161.1a1.856,1.856,0,0,0,1.943.037l2.731-1.608,2.008,1.267a1.856,1.856,0,0,0,2.24-.2l1.425-1.3,2.136.7.536.882,1.086,1.785,1.086,1.785,3.134,5.151.169.278H939.857l.169-.278,2.618-4.3.678-1.114.562-.923.524-.862.983-1.617Zm-18.234-30.521h51.691v34.88l-4.288-7.772a1.847,1.847,0,0,0-.268-.955l-2.8-4.6a4.441,4.441,0,0,0-7.53,0l-3.216,5.287-4.877-8.017a4.818,4.818,0,0,0-8.165,0l-4.715,7.75-2.213-3.638a4.161,4.161,0,0,0-.487-.649,4.105,4.105,0,0,0-.593-.533q-.134-.1-.275-.186a4.15,4.15,0,0,0-.984-.444,4.343,4.343,0,0,0-1.266-.186h0a4.322,4.322,0,0,0-1.527.277,4.124,4.124,0,0,0-2.077,1.721l-5.267,8.658a1.855,1.855,0,0,0-.224,1.372l-.916,1.673Z" transform="translate(-40.036 -40.707)" fill="#3fb549"/>
    <path id="Path_589" data-name="Path 589" d="M1038.895,288.716a6.5,6.5,0,1,0-4.6-1.9A6.459,6.459,0,0,0,1038.895,288.716Zm-1.972-8.473a2.789,2.789,0,1,1-.817,1.972A2.771,2.771,0,0,1,1036.922,280.242Z" transform="translate(-117.642 -56.44)" fill="#3fb549"/>
    <path id="Path_590" data-name="Path 590" d="M1166.16,274.08v-11.8h-25.027v29.4h25.027Zm-3.711-7.993v4.282h-17.6v-4.282Zm0,16.025h-17.6v-2.284h17.6Zm-17.6,3.711h17.6v2.151h-17.6Zm17.6-9.706h-17.6V274.08h17.6Z" transform="translate(-195.339 -46.841)" fill="#3fb549"/>
  </g>
</svg>
