<svg xmlns="http://www.w3.org/2000/svg" width="128.961" height="112.788" viewBox="0 0 128.961 112.788">
  <g id="Group_610" data-name="Group 610" opacity="0.45">
    <g id="Group_596" data-name="Group 596" transform="translate(0 96.675)">
      <path id="Path_690" data-name="Path 690" d="M-151.222-58.467H-258.638A10.753,10.753,0,0,1-269.38-69.208v-2.685a2.685,2.685,0,0,1,2.685-2.685h123.529a2.686,2.686,0,0,1,2.685,2.685v2.685A10.754,10.754,0,0,1-151.222-58.467ZM-264.009-69.208a5.376,5.376,0,0,0,5.371,5.371h107.417a5.376,5.376,0,0,0,5.371-5.371Z" transform="translate(269.38 74.579)" fill="#5a99d2"/>
    </g>
    <g id="Group_597" data-name="Group 597" transform="translate(8.059 29.338)">
      <path id="Path_691" data-name="Path 691" d="M-250.269-94.283h-13.424a2.686,2.686,0,0,1-2.685-2.685,2.686,2.686,0,0,1,2.685-2.685h13.424a2.686,2.686,0,0,1,2.685,2.685A2.686,2.686,0,0,1-250.269-94.283Z" transform="translate(266.379 99.654)" fill="#5a99d2"/>
    </g>
    <g id="Group_598" data-name="Group 598" transform="translate(8.059 18.597)">
      <path id="Path_692" data-name="Path 692" d="M-263.694-20.406a2.686,2.686,0,0,1-2.685-2.685V-92.912a10.756,10.756,0,0,1,10.742-10.742h5.368a2.686,2.686,0,0,1,2.685,2.685,2.686,2.686,0,0,1-2.685,2.685h-5.368a5.376,5.376,0,0,0-5.371,5.371v69.821A2.686,2.686,0,0,1-263.694-20.406Z" transform="translate(266.379 103.654)" fill="#5a99d2"/>
    </g>
    <g id="Group_599" data-name="Group 599" transform="translate(115.476 39.226)">
      <path id="Path_693" data-name="Path 693" d="M-223.694-33.353a2.686,2.686,0,0,1-2.685-2.685V-93.287a2.686,2.686,0,0,1,2.685-2.685,2.686,2.686,0,0,1,2.685,2.685v57.248A2.686,2.686,0,0,1-223.694-33.353Z" transform="translate(226.379 95.972)" fill="#5a99d2"/>
    </g>
    <g id="Group_600" data-name="Group 600" transform="translate(59.078 34.741)">
      <path id="Path_694" data-name="Path 694" d="M-244.694-43.765a2.684,2.684,0,0,1-1.9-.787,2.682,2.682,0,0,1-.7-2.575l4.375-16.752a2.677,2.677,0,0,1,.7-1.222l31.752-31.755a2.694,2.694,0,0,1,1.9-.787h0a2.69,2.69,0,0,1,1.9.787l12.377,12.377a2.687,2.687,0,0,1,0,3.8l-31.755,31.755a2.653,2.653,0,0,1-1.219.7l-16.749,4.377A2.678,2.678,0,0,1-244.694-43.765Zm6.786-18.054-3.029,11.612,11.609-3.032,29.341-29.341-8.58-8.58Zm9.963,10.994h0Z" transform="translate(247.381 97.642)" fill="#5a99d2"/>
    </g>
    <g id="Group_601" data-name="Group 601" transform="translate(104.651 18.709)">
      <path id="Path_695" data-name="Path 695" d="M-215.347-79.277a2.667,2.667,0,0,1-1.9-.787l-12.377-12.377a2.678,2.678,0,0,1-.787-1.9,2.683,2.683,0,0,1,.787-1.9l4.254-4.251a10.651,10.651,0,0,1,7.619-3.123h.005a11.709,11.709,0,0,1,8.236,3.448,11.288,11.288,0,0,1,.287,15.874l-4.227,4.227A2.671,2.671,0,0,1-215.347-79.277Zm-8.58-15.062,8.58,8.58,2.323-2.323a5.908,5.908,0,0,0-.293-8.293,6.3,6.3,0,0,0-4.428-1.866h0a5.321,5.321,0,0,0-3.819,1.544Z" transform="translate(230.41 103.612)" fill="#5a99d2"/>
    </g>
    <g id="Group_602" data-name="Group 602" transform="translate(95.207 25.328)">
      <path id="Path_696" data-name="Path 696" d="M-218.865-73.986h0a2.678,2.678,0,0,1-1.9-.787L-233.141-87.15a2.687,2.687,0,0,1,0-3.8l9.445-9.445a2.764,2.764,0,0,1,3.8,0l12.377,12.377a2.687,2.687,0,0,1,0,3.8l-9.445,9.445A2.683,2.683,0,0,1-218.865-73.986Zm-8.58-15.063,8.58,8.58,5.647-5.647-8.58-8.58Z" transform="translate(233.926 101.147)" fill="#5a99d2"/>
    </g>
    <g id="Group_603" data-name="Group 603" transform="translate(63.453 66.496)">
      <path id="Path_697" data-name="Path 697" d="M-230.691-68.069a2.678,2.678,0,0,1-1.9-.787l-12.374-12.377a2.682,2.682,0,0,1,0-3.8,2.682,2.682,0,0,1,3.8,0l12.374,12.377a2.682,2.682,0,0,1,0,3.8A2.678,2.678,0,0,1-230.691-68.069Z" transform="translate(245.751 85.817)" fill="#5a99d2"/>
    </g>
    <g id="Group_604" data-name="Group 604" transform="translate(21.483 0)">
      <path id="Path_698" data-name="Path 698" d="M-258.695-8.533a2.683,2.683,0,0,1-2.685-2.685v-96.675a2.685,2.685,0,0,1,2.685-2.685h80.563a2.686,2.686,0,0,1,2.685,2.685v27.9a2.686,2.686,0,0,1-2.685,2.685,2.685,2.685,0,0,1-2.685-2.685v-25.219h-75.192v93.99A2.685,2.685,0,0,1-258.695-8.533Z" transform="translate(261.38 110.579)" fill="#5a99d2"/>
    </g>
    <g id="Group_605" data-name="Group 605" transform="translate(102.046 52.656)">
      <path id="Path_699" data-name="Path 699" d="M-228.695-41.581a2.683,2.683,0,0,1-2.685-2.685V-88.286a2.685,2.685,0,0,1,2.685-2.685,2.686,2.686,0,0,1,2.685,2.685v44.019A2.685,2.685,0,0,1-228.695-41.581Z" transform="translate(231.38 90.971)" fill="#5a99d2"/>
    </g>
    <g id="Group_606" data-name="Group 606" transform="translate(34.91 16.112)">
      <path id="Path_700" data-name="Path 700" d="M-199.986-99.208h-53.708a2.683,2.683,0,0,1-2.685-2.685,2.685,2.685,0,0,1,2.685-2.685h53.708a2.686,2.686,0,0,1,2.685,2.685A2.685,2.685,0,0,1-199.986-99.208Z" transform="translate(256.38 104.579)" fill="#5a99d2"/>
    </g>
    <g id="Group_607" data-name="Group 607" transform="translate(34.91 34.91)">
      <path id="Path_701" data-name="Path 701" d="M-213.413-92.208h-40.281a2.683,2.683,0,0,1-2.685-2.685,2.685,2.685,0,0,1,2.685-2.685h40.281a2.686,2.686,0,0,1,2.685,2.685A2.685,2.685,0,0,1-213.413-92.208Z" transform="translate(256.38 97.579)" fill="#5a99d2"/>
    </g>
    <g id="Group_608" data-name="Group 608" transform="translate(34.91 45.652)">
      <path id="Path_702" data-name="Path 702" d="M-224.155-88.208h-29.54a2.683,2.683,0,0,1-2.685-2.685,2.685,2.685,0,0,1,2.685-2.685h29.54a2.686,2.686,0,0,1,2.685,2.685A2.685,2.685,0,0,1-224.155-88.208Z" transform="translate(256.38 93.579)" fill="#5a99d2"/>
    </g>
    <g id="Group_609" data-name="Group 609" transform="translate(34.91 56.394)">
      <path id="Path_703" data-name="Path 703" d="M-234.9-84.208h-18.8a2.683,2.683,0,0,1-2.685-2.685,2.685,2.685,0,0,1,2.685-2.685h18.8a2.686,2.686,0,0,1,2.685,2.685A2.685,2.685,0,0,1-234.9-84.208Z" transform="translate(256.38 89.579)" fill="#5a99d2"/>
    </g>
  </g>
</svg>
