<svg xmlns="http://www.w3.org/2000/svg" width="124.755" height="100.566" viewBox="0 0 124.755 100.566">
  <g id="_12" data-name="12" transform="translate(0)" opacity="0.45">
    <g id="Group_655" data-name="Group 655" transform="translate(0 0)">
      <path id="Path_745" data-name="Path 745" d="M601.542-218.164H480.99a2.1,2.1,0,0,1-2.1-2.1v-96.364a2.1,2.1,0,0,1,2.1-2.1H601.542a2.1,2.1,0,0,1,2.1,2.1v96.364A2.1,2.1,0,0,1,601.542-218.164Zm-118.451-4.2h116.35v-92.162H483.091Z" transform="translate(-478.889 318.73)" fill="#f36f21"/>
    </g>
    <g id="Group_656" data-name="Group 656" transform="translate(0 13.315)">
      <path id="Path_746" data-name="Path 746" d="M588.77-306.188H480.99a2.1,2.1,0,0,1-2.1-2.1,2.1,2.1,0,0,1,2.1-2.1H588.77a2.1,2.1,0,0,1,2.1,2.1A2.1,2.1,0,0,1,588.77-306.188Z" transform="translate(-478.889 310.39)" fill="#f36f21"/>
    </g>
    <g id="Group_657" data-name="Group 657" transform="translate(7.566 6.852)">
      <path id="Path_747" data-name="Path 747" d="M490.073-310.238h-4.346a2.1,2.1,0,0,1-2.1-2.1,2.1,2.1,0,0,1,2.1-2.1h4.346a2.1,2.1,0,0,1,2.1,2.1A2.1,2.1,0,0,1,490.073-310.238Z" transform="translate(-483.628 314.438)" fill="#f36f21"/>
    </g>
    <g id="Group_658" data-name="Group 658" transform="translate(16.256 6.852)">
      <path id="Path_748" data-name="Path 748" d="M495.518-310.238h-4.346a2.1,2.1,0,0,1-2.1-2.1,2.1,2.1,0,0,1,2.1-2.1h4.346a2.1,2.1,0,0,1,2.1,2.1A2.1,2.1,0,0,1,495.518-310.238Z" transform="translate(-489.071 314.438)" fill="#f36f21"/>
    </g>
    <g id="Group_659" data-name="Group 659" transform="translate(24.947 6.852)">
      <path id="Path_749" data-name="Path 749" d="M500.962-310.238h-4.346a2.1,2.1,0,0,1-2.1-2.1,2.1,2.1,0,0,1,2.1-2.1h4.346a2.1,2.1,0,0,1,2.1,2.1A2.1,2.1,0,0,1,500.962-310.238Z" transform="translate(-494.515 314.438)" fill="#f36f21"/>
    </g>
    <g id="Group_660" data-name="Group 660" transform="translate(12.772 24.89)">
      <path id="Path_750" data-name="Path 750" d="M584-275.525a2.1,2.1,0,0,1-2.1-2.1v-21.312H491.091v19.211h84.354a2.1,2.1,0,0,1,2.1,2.1,2.1,2.1,0,0,1-2.1,2.1H488.99a2.1,2.1,0,0,1-2.1-2.1v-23.413a2.1,2.1,0,0,1,2.1-2.1H584a2.1,2.1,0,0,1,2.1,2.1v23.413A2.1,2.1,0,0,1,584-275.525Z" transform="translate(-486.889 303.14)" fill="#f36f21"/>
    </g>
    <g id="Group_661" data-name="Group 661" transform="translate(12.772 58.449)">
      <path id="Path_751" data-name="Path 751" d="M512.72-267.084H488.99a2.1,2.1,0,0,1-2.1-2.1v-10.834a2.1,2.1,0,0,1,2.1-2.1h23.73a2.1,2.1,0,0,1,2.1,2.1v10.834A2.1,2.1,0,0,1,512.72-267.084Zm-21.629-4.2h19.53v-6.633h-19.53Z" transform="translate(-486.889 282.12)" fill="#f36f21"/>
    </g>
    <g id="Group_662" data-name="Group 662" transform="translate(48.411 58.449)">
      <path id="Path_752" data-name="Path 752" d="M535.043-267.084h-23.73a2.1,2.1,0,0,1-2.1-2.1v-10.834a2.1,2.1,0,0,1,2.1-2.1h23.73a2.1,2.1,0,0,1,2.1,2.1v10.834A2.1,2.1,0,0,1,535.043-267.084Zm-21.629-4.2h19.528v-6.633H513.414Z" transform="translate(-509.212 282.12)" fill="#f36f21"/>
    </g>
    <g id="Group_663" data-name="Group 663" transform="translate(84.049 58.449)">
      <path id="Path_753" data-name="Path 753" d="M557.366-267.084h-23.73a2.1,2.1,0,0,1-2.1-2.1v-10.834a2.1,2.1,0,0,1,2.1-2.1h23.73a2.1,2.1,0,0,1,2.1,2.1v10.834A2.1,2.1,0,0,1,557.366-267.084Zm-21.629-4.2h19.528v-6.633H535.737Z" transform="translate(-531.535 282.12)" fill="#f36f21"/>
    </g>
    <g id="Group_664" data-name="Group 664" transform="translate(12.772 77.109)">
      <path id="Path_754" data-name="Path 754" d="M512.72-266.23H488.99a2.1,2.1,0,0,1-2.1-2.1,2.1,2.1,0,0,1,2.1-2.1h23.73a2.1,2.1,0,0,1,2.1,2.1A2.1,2.1,0,0,1,512.72-266.23Z" transform="translate(-486.889 270.432)" fill="#f36f21"/>
    </g>
    <g id="Group_665" data-name="Group 665" transform="translate(12.772 84.933)">
      <path id="Path_755" data-name="Path 755" d="M501.165-261.329H488.99a2.1,2.1,0,0,1-2.1-2.1,2.1,2.1,0,0,1,2.1-2.1h12.175a2.1,2.1,0,0,1,2.1,2.1A2.1,2.1,0,0,1,501.165-261.329Z" transform="translate(-486.889 265.531)" fill="#f36f21"/>
    </g>
    <g id="Group_666" data-name="Group 666" transform="translate(48.411 77.109)">
      <path id="Path_756" data-name="Path 756" d="M535.043-266.23h-23.73a2.1,2.1,0,0,1-2.1-2.1,2.1,2.1,0,0,1,2.1-2.1h23.73a2.1,2.1,0,0,1,2.1,2.1A2.1,2.1,0,0,1,535.043-266.23Z" transform="translate(-509.212 270.432)" fill="#f36f21"/>
    </g>
    <g id="Group_667" data-name="Group 667" transform="translate(48.411 84.933)">
      <path id="Path_757" data-name="Path 757" d="M523.488-261.329H511.313a2.1,2.1,0,0,1-2.1-2.1,2.1,2.1,0,0,1,2.1-2.1h12.175a2.1,2.1,0,0,1,2.1,2.1A2.1,2.1,0,0,1,523.488-261.329Z" transform="translate(-509.212 265.531)" fill="#f36f21"/>
    </g>
    <g id="Group_668" data-name="Group 668" transform="translate(84.049 77.109)">
      <path id="Path_758" data-name="Path 758" d="M557.366-266.23h-23.73a2.1,2.1,0,0,1-2.1-2.1,2.1,2.1,0,0,1,2.1-2.1h23.73a2.1,2.1,0,0,1,2.1,2.1A2.1,2.1,0,0,1,557.366-266.23Z" transform="translate(-531.535 270.432)" fill="#f36f21"/>
    </g>
    <g id="Group_669" data-name="Group 669" transform="translate(84.049 84.933)">
      <path id="Path_759" data-name="Path 759" d="M545.811-261.329H533.636a2.1,2.1,0,0,1-2.1-2.1,2.1,2.1,0,0,1,2.1-2.1h12.175a2.1,2.1,0,0,1,2.1,2.1A2.1,2.1,0,0,1,545.811-261.329Z" transform="translate(-531.535 265.531)" fill="#f36f21"/>
    </g>
  </g>
</svg>
