<svg xmlns="http://www.w3.org/2000/svg" width="123.776" height="114.147" viewBox="0 0 123.776 114.147">
  <g id="Group_588" data-name="Group 588" transform="translate(116.233 -84.647)" opacity="0.45">
    <path id="Path_673" data-name="Path 673" d="M-1.293,91.818a5.051,5.051,0,0,0-3.593-1.487,5.047,5.047,0,0,0-3.592,1.488l-8.04,8.039h0L-69,152.337a2,2,0,0,0-.485.787L-75.248,170.6a2,2,0,0,0,.486,2.041,2,2,0,0,0,1.414.586,2,2,0,0,0,.627-.1l17.473-5.767a2,2,0,0,0,.788-.486L6.059,106.356a5.093,5.093,0,0,0,0-7.188Zm-7.765,24-8.88-8.881L-15.1,104.1l8.88,8.88Zm-55.695,37.935,43.986-43.988,8.881,8.881L-55.874,162.63Zm-1.947,3.71,7.116,7.117-10.621,3.5ZM3.23,103.528l-6.625,6.625-8.881-8.88,6.625-6.625a1.111,1.111,0,0,1,1.53,0L3.228,102A1.087,1.087,0,0,1,3.23,103.528Z" fill="#3fb549"/>
    <path id="Path_674" data-name="Path 674" d="M-110.436,110.227v8.037a2,2,0,0,0,2,2,2,2,0,0,0,2-2v-8.037a2,2,0,0,0-2-2A2,2,0,0,0-110.436,110.227Z" fill="#3fb549"/>
    <path id="Path_675" data-name="Path 675" d="M-110.436,128.956v7.408a2,2,0,0,0,2,2,2,2,0,0,0,2-2v-7.408a2,2,0,0,0-2-2A2,2,0,0,0-110.436,128.956Z" fill="#3fb549"/>
    <path id="Path_676" data-name="Path 676" d="M-110.436,146.583v8.666a2,2,0,0,0,2,2,2,2,0,0,0,2-2v-8.666a2,2,0,0,0-2-2A2,2,0,0,0-110.436,146.583Z" fill="#3fb549"/>
    <path id="Path_677" data-name="Path 677" d="M-110.436,165.47v7.722a2,2,0,0,0,2,2,2,2,0,0,0,2-2V165.47a2,2,0,0,0-2-2A2,2,0,0,0-110.436,165.47Z" fill="#3fb549"/>
    <path id="Path_678" data-name="Path 678" d="M-26.529,145.608a2,2,0,0,0-2,2v45a2.19,2.19,0,0,1-2.189,2.187H-88.732V88.647h58.014a2.191,2.191,0,0,1,2.189,2.188v11.244a2,2,0,0,0,2,2,2,2,0,0,0,2-2V90.835a6.2,6.2,0,0,0-6.189-6.188h-73.528a6.2,6.2,0,0,0-6.19,6.188v8.86a2,2,0,0,0,2,2,2,2,0,0,0,2-2v-8.86a2.191,2.191,0,0,1,2.19-2.188h11.514V194.794h-11.514a2.191,2.191,0,0,1-2.19-2.187v-9.2a2,2,0,0,0-2-2,2,2,0,0,0-2,2v9.2a6.2,6.2,0,0,0,6.19,6.187h73.528a6.194,6.194,0,0,0,6.189-6.187v-45A2,2,0,0,0-26.529,145.608Z" fill="#3fb549"/>
    <path id="Path_679" data-name="Path 679" d="M-100.861,178.428a2,2,0,0,0-2-2h-11.372a2,2,0,0,0-2,2,2,2,0,0,0,2,2h11.372A2,2,0,0,0-100.861,178.428Z" fill="#3fb549"/>
    <path id="Path_680" data-name="Path 680" d="M-114.233,162.087h11.372a2,2,0,0,0,2-2,2,2,0,0,0-2-2h-11.372a2,2,0,0,0-2,2A2,2,0,0,0-114.233,162.087Z" fill="#3fb549"/>
    <path id="Path_681" data-name="Path 681" d="M-114.233,143.721h11.372a2,2,0,0,0,2-2,2,2,0,0,0-2-2h-11.372a2,2,0,0,0-2,2A2,2,0,0,0-114.233,143.721Z" fill="#3fb549"/>
    <path id="Path_682" data-name="Path 682" d="M-114.233,125.355h11.372a2,2,0,0,0,2-2,2,2,0,0,0-2-2h-11.372a2,2,0,0,0-2,2A2,2,0,0,0-114.233,125.355Z" fill="#3fb549"/>
    <path id="Path_683" data-name="Path 683" d="M-116.233,105.013a2,2,0,0,0,2,2h11.372a2,2,0,0,0,2-2,2,2,0,0,0-2-2h-11.372A2,2,0,0,0-116.233,105.013Z" fill="#3fb549"/>
  </g>
</svg>
