<svg xmlns="http://www.w3.org/2000/svg" width="104.105" height="88.505" viewBox="0 0 104.105 88.505">
  <g id="Group_559" data-name="Group 559" transform="translate(-193.712 -507.948)" opacity="0.45">
    <path id="Path_610" data-name="Path 610" d="M202.538,507.948l-3.436.7-2.805,1.907-1.888,2.829-.7,3.467v42.426l.7,3.467,1.888,2.829,2.805,1.907,3.436.7H288.99l3.436-.7,2.8-1.909.7-1.05H202.538l-2.014-.414-1.654-1.13-1.117-1.667-.412-2.032V516.848l.412-2.029,1.117-1.667,1.654-1.13,2.014-.414h93.4l-.706-1.055-2.8-1.907-3.436-.7Z" transform="translate(0.002)" fill="#fd2c2c"/>
    <path id="Path_611" data-name="Path 611" d="M230.291,509.353l2.013.414,1.654,1.13,1.117,1.667.412,2.029V557.02l-.412,2.032-1.117,1.667-1.654,1.13-2.013.414h6.942l1.185-1.779.7-3.464V514.593l-.7-3.467-1.182-1.774Z" transform="translate(58.701 2.254)" fill="#fd2c2c"/>
    <path id="Path_612" data-name="Path 612" d="M211.252,513.365l-.945.706v31.007l1.568.794,8.591-5.78h-6.528V518.65H220.5l-7.692-5.17-.3-.083-.154-.005h-.154Z" transform="translate(26.63 8.694)" fill="#fd2c2c" fill-rule="evenodd"/>
    <path id="Path_613" data-name="Path 613" d="M218.261,515.394H211.7l15.954,10.721L211.7,536.839h6.53l14.808-9.961.005-1.534-1.12-.761Z" transform="translate(28.866 11.95)" fill="#fd2c2c" fill-rule="evenodd"/>
    <path id="Path_614" data-name="Path 614" d="M211.185,513.378l-.154-.005Z" transform="translate(27.793 8.707)" fill="#fd2c2c"/>
    <path id="Path_615" data-name="Path 615" d="M222.419,538.653l-1.664,3.511H194.5l-.792.8v2.053l.8.807h26.246l.393,1.13,1.274,2.383,1.9,1.878,2.4,1.232,2.748.443,2.753-.443,2.394-1.232,1.9-1.881.052-.1h-7.1l-2.014-.417-1.651-1.128-1.123-1.664L224.274,544l.409-2.032,1.123-1.67,1.651-1.128,2.014-.414h7.1l-.052-.1-1.9-1.883-2.394-1.232-2.753-.443Z" transform="translate(0 43.561)" fill="#fd2c2c"/>
    <path id="Path_616" data-name="Path 616" d="M207.44,536.5l2.013.414,1.651,1.13,1.115,1.67.412,2.029-.412,2.032L211.1,545.44l-1.651,1.125-2.011.414h7.1l1.216-2.282.4-1.13h58.836l.8-.8v-2.055l-.8-.8H216.153l-.4-1.13-1.216-2.282Z" transform="translate(22.031 45.817)" fill="#fd2c2c"/>
  </g>
</svg>
