<svg id="Layer_1" data-name="Layer 1" xmlns="http://www.w3.org/2000/svg" viewBox="0 0 699.79 623.85"><defs><style>.cls-1{fill:#95f3fd;}.cls-2{fill:#5db1ff;}.cls-3{fill:#f1679e;}.cls-4{fill:#f7ea5c;}.cls-5{fill:#a581fd;}.cls-6{fill:#ef649c;}.cls-7{fill:#6856d6;}.cls-8{opacity:0.04;}.cls-9{fill:#8b75dd;}.cls-10{fill:#93f4fe;}</style></defs><title>Artboard 13 copy</title><path class="cls-1" d="M146.39,224l-17.17-21.74L151,185.07l17.18,21.75Zm-8.13-20.68L147.45,215l11.64-9.2-9.19-11.63Z"/><path class="cls-1" d="M582.85,314.88l-17.17-21.74L587.42,276l17.18,21.74Zm-8.13-20.68,9.2,11.64,11.63-9.19L586.36,285Z"/><path class="cls-2" d="M359.19,179a13.83,13.83,0,0,1-9.8-4h0a13.88,13.88,0,1,1,9.8,4Zm0-21.26A7.4,7.4,0,0,0,354,170.34h0a7.42,7.42,0,0,0,10.48,0,7.41,7.41,0,0,0-5.24-12.65Z"/><path class="cls-1" d="M373,27.7a13.78,13.78,0,0,1-9.79-4.06h0A13.87,13.87,0,1,1,373,27.7Zm0-21.26a7.41,7.41,0,0,0-5.24,12.65h0A7.42,7.42,0,1,0,373,6.44Z"/><path class="cls-2" d="M512.49,204.53a13.82,13.82,0,0,1-9.8-4.05h0a13.87,13.87,0,1,1,9.8,4.05Zm0-21.26a7.42,7.42,0,0,0-5.25,12.66h0a7.42,7.42,0,1,0,5.25-12.66Z"/><path class="cls-2" d="M443.25,384.15a13.79,13.79,0,0,1-9.79-4h0a13.88,13.88,0,1,1,9.8,4Zm-5.24-8.6a7.42,7.42,0,1,0,0-10.49A7.43,7.43,0,0,0,438,375.55Z"/><path class="cls-3" d="M361.64,359.33l-2.45-5.95c5.69-2.35,21-10.65,23.35-20.63,1-4.24-.35-8.45-4.15-12.86a28.76,28.76,0,0,1-6.66-24.59c1.29-6,4.17-10.51,8.56-13.49,8.14-5.52,19.41-3.21,25.11,5.17,4.39,6.45,11.42,14.59,20,16.72,5.75,1.43,11.51-1,14-5.81s.93-10.54-4.52-17.11a45.45,45.45,0,0,1-6.65-10.51c-5.47-12.36-3.12-22.5,6.59-28.54a21,21,0,0,1,16.18-2.29c6.86,2,12.49,7.73,16.74,17.06,1.63,3.23,7,11.73,12.7,13a6.8,6.8,0,0,0,6-1.74c1.16-.93,2.48-2,3.9-3l18.65-12.53,3.59,5.34-18.65,12.53c-1.18.8-2.33,1.73-3.45,2.63a13.25,13.25,0,0,1-11.39,3c-9.74-2.14-16.38-15-17.1-16.44l0-.1c-3.44-7.57-7.71-12.15-12.7-13.59a14.66,14.66,0,0,0-10.92,1.52c-6.91,4.3-8.3,11.19-4.18,20.51a38.85,38.85,0,0,0,5.73,9c9,10.88,7.86,19.14,5.29,24.15-3.85,7.53-12.61,11.28-21.28,9.12-10.5-2.61-18.69-12-23.71-19.33a11.72,11.72,0,0,0-16.17-3.47c-3,2-5,5.22-5.88,9.52a22.25,22.25,0,0,0,5.24,19c5.17,6,7,12.25,5.53,18.56C385.16,349.48,362.6,358.93,361.64,359.33Z"/><path class="cls-3" d="M281.56,36.65l-4.29-.56c-.22,4.49-2,16.94-7.78,20.6-2.45,1.55-5.4,1.42-9-.39-5.71-2.87-12.05-2.81-17,.15a13.75,13.75,0,0,0-6.58,8.73,14.53,14.53,0,0,0,8.84,16.73c5,1.84,11.72,5.2,15,10.81,2.19,3.78,2,8.33-.54,11s-6.42,2.74-11.76.19a29.47,29.47,0,0,0-8.1-2.63c-9-1.42-14.85,2.24-16.49,10.31a17.21,17.21,0,0,0,2.17,11.9c2.77,4.46,7.64,7.31,14.45,8.47,2.39.51,8.94,2.63,11,6.42a5.43,5.43,0,0,1,.24,4.56c-.33,1-.71,2.15-1,3.34L247,162l4.16,1.48,3.74-15.67c.24-1,.57-2,.88-3a10.71,10.71,0,0,0-.64-8.65c-3.51-6.48-13.06-8.63-14.14-8.85l-.08,0c-5.53-.93-9.35-3-11.37-6.29a12,12,0,0,1-1.47-8c1.17-5.74,5.19-8.08,12-7a25.4,25.4,0,0,1,6.94,2.27c8.85,4.23,13.79,1.77,16.37-1,3.88-4.21,4.29-11.15,1-16.86-4-6.91-11.69-10.85-17.44-12.95a9.35,9.35,0,0,1-5.78-10.75,9.59,9.59,0,0,1,4.68-6c3.77-2.28,8.68-2.3,13.14-.06,4.92,2.47,9.27,2.55,12.9.24C280.6,55.23,281.52,37.4,281.56,36.65Z"/><path class="cls-4" d="M33.72,278.62l-3-5.67C43.19,266.23,48,257.58,45,247.23a23.82,23.82,0,0,0-4.16-8,94.3,94.3,0,0,1-11-17.87c-11.37-3.59-19.58-9.89-24.5-18.82C-7.23,179.91,6.37,149,7,147.66l5.88,2.63c-.18.4-12.85,29.39-1.93,49.18,3.38,6.11,8.74,10.78,16,14-1.1-4.39-1.33-8.74,0-12.61,1.8-5.37,6.18-9,13-10.86,12.25-3.3,18.32,1.24,21.25,5.62,3.81,5.68,3.75,12.77-.14,18.95a20.12,20.12,0,0,1-19.78,9.39c-1.1-.15-2.18-.33-3.24-.53a95.26,95.26,0,0,0,7.91,11.9,30.24,30.24,0,0,1,5.25,10.12C53.4,253.11,54.13,267.66,33.72,278.62ZM34.48,216a69,69,0,0,0,7.65,1.52,13.7,13.7,0,0,0,13.42-6.45c2.5-4,2.59-8.43.24-11.94-.95-1.43-3.86-5.78-14.23-3-4.69,1.26-7.5,3.45-8.59,6.71C31.78,206.42,32.56,211.06,34.48,216ZM12.83,150.29,9.89,149l2.94,1.32Z"/><path class="cls-4" d="M699.91,413l-6.43.36c-.8-14.17-6.62-22.18-17.28-23.81a24.1,24.1,0,0,0-9,.4,93.88,93.88,0,0,1-20.87,2.48c-8.06,8.78-17.24,13.56-27.4,14.25-25.8,1.75-48.11-23.64-49.05-24.73l4.87-4.21c.29.33,21.22,24.06,43.76,22.51,7-.47,13.47-3.36,19.42-8.6-4.44-.85-8.48-2.48-11.44-5.29-4.11-3.91-5.57-9.42-4.35-16.39,2.19-12.5,8.87-16.09,14.08-16.89,6.76-1,13.15,2,17.11,8.13a20.13,20.13,0,0,1,.17,21.9c-.61.93-1.23,1.83-1.85,2.71a94.3,94.3,0,0,0,14.12-2.15,30.55,30.55,0,0,1,11.39-.48C685.1,384.34,698.6,389.82,699.91,413ZM643.5,385.83a71.62,71.62,0,0,0,4.62-6.29,13.7,13.7,0,0,0-.19-14.89c-2.54-3.94-6.55-5.91-10.72-5.26-1.7.26-6.86,1.06-8.72,11.64-.83,4.78,0,8.25,2.45,10.62C633.64,384.22,638.18,385.47,643.5,385.83Zm-68.74-8.14-2.43,2.11,2.43-2.11Z"/><path class="cls-5" d="M504.57,523.6l-5.71-3c4.7-9,18.1-13,28.91-12.34,3.65.24,8.26-2.95,10.61-7.42a12.06,12.06,0,0,0-1.24-13.68c-1.12-1.43-4.53-5.77-2.19-9.6,2-3.34,7.23-4.07,16.33-2.29a1.28,1.28,0,0,0,1.19-.42,1.11,1.11,0,0,0,.21-1.13c-.07-.21-.15-.41-.23-.6a9.94,9.94,0,0,0-1.25-2.06,11.12,11.12,0,0,1,.73-14.33l4.7,4.39L554.28,459l2.38,2.17a4.7,4.7,0,0,0-.3,6.11,16.3,16.3,0,0,1,2,3.36c.13.31.26.62.38,1a7.49,7.49,0,0,1-1.38,7.5,7.68,7.68,0,0,1-7.31,2.55c-5.33-1-8.13-.88-9.27-.61a10.4,10.4,0,0,0,1.42,2.21,18.39,18.39,0,0,1,1.88,20.66c-3.58,6.79-10.49,11.25-16.73,10.85C518.71,514.15,507.84,517.33,504.57,523.6Z"/><path class="cls-2" d="M145.19,29.63l6.14-1.93c3,9.7-3.59,22-11.72,29.16-2.75,2.42-3.75,7.93-2.25,12.76a12,12,0,0,0,10.55,8.79c1.8.22,7.28.88,8.33,5.24.92,3.81-2.23,8-9.92,13.17a1.25,1.25,0,0,0-.54,1.14,1.07,1.07,0,0,0,.64,1c.2.09.4.18.59.25a9.74,9.74,0,0,0,2.34.58A11.13,11.13,0,0,1,159,110.39l-6.44.22,3.22-.11-3.22.14a4.69,4.69,0,0,0-4.11-4.53,16.39,16.39,0,0,1-3.79-1c-.3-.13-.62-.26-.94-.41a7.47,7.47,0,0,1-4.33-6.28,7.69,7.69,0,0,1,3.36-7c4.5-3,6.38-5.12,7-6.12a11.46,11.46,0,0,0-2.57-.56,18.35,18.35,0,0,1-15.93-13.27c-2.28-7.34-.54-15.37,4.15-19.5C141.87,46.31,147.31,36.38,145.19,29.63Z"/><path class="cls-6" d="M416.08,508.87l-15.85-37.39L433,480.77Zm-4.68-27.54,5.69,13.41,6.08-10.08Z"/><path class="cls-5" d="M260.33,241l-7.88-31.86,37.65,15.23Zm1.4-21.16,2.83,11.43,10.68-6Z"/><path class="cls-4" d="M416.64,572.86l17-28.1,15.85,37.39Zm15.95-14L426.51,569l11.77,3.33Z"/><path class="cls-4" d="M441.17,107.67,473,99.79,457.8,137.44Zm21.16,1.4-11.43,2.82,6,10.68Z"/><path class="cls-5" d="M626.52,160.28l31.86-7.88-15.23,37.65Zm21.16,1.4-11.43,2.82,6,10.68Z"/><path class="cls-5" d="M361.32,522.63a18.88,18.88,0,0,1-5.22,3.66l-3.22,1.23L111.11,620.11c-44.57,17.07-87.94-27.48-69.67-71.58l98-236.54.36-.88a18.92,18.92,0,0,1,4-6C164.16,284.76,229.36,317,289.42,377S381.67,502.27,361.32,522.63Z"/><path class="cls-7" d="M59.27,505.51l-3.82,9.21a371.19,371.19,0,0,0,67.71,36.17c36,14.56,71.67,21.85,106.54,21.85,1.76,0,3.51,0,5.26-.06l33.32-12.76C182.68,574,107.35,538.1,59.27,505.51Z"/><path class="cls-7" d="M37.42,574.75a52.9,52.9,0,0,0,3.26,13.74A366.46,366.46,0,0,0,98,617.9c3.08,1.24,6.16,2.41,9.23,3.55,1.3-.39,2.61-.84,3.91-1.34l10.22-3.91C88.74,605.44,60.21,589.87,37.42,574.75Z"/><path class="cls-8" d="M352.88,527.52l3.22-1.23a18.88,18.88,0,0,0,5.22-3.66c12-12,5.75-39.51-13.65-72.38C276,571.08,99.88,609.85,40.59,588.28c9.93,26.25,39.94,43.55,70.52,31.83Z"/><path class="cls-7" d="M330,423.76c-87.88,18.92-165.93-16.29-216.31-49.56l-3.81,9.19a369.45,369.45,0,0,0,63.68,33.5c36,14.56,71.67,21.84,106.55,21.84a246.28,246.28,0,0,0,56-6.44Q333.17,428.06,330,423.76Z"/><path class="cls-7" d="M86.47,439.86l-3.82,9.2a370.16,370.16,0,0,0,65.7,34.83c36,14.56,71.67,21.85,106.55,21.85a246.62,246.62,0,0,0,70.85-10.38L323,486.11C226.53,514.89,140.16,475.79,86.47,439.86Z"/><ellipse class="cls-9" cx="252.56" cy="413.83" rx="52.13" ry="153.8" transform="translate(-218.65 299.8) rotate(-45)"/><path class="cls-3" d="M180.85,452.41a8.6,8.6,0,0,1-.18-12c43.78-46.59,62.79-87.68,56.5-122.13-6.54-35.77-39.5-52.27-39.83-52.44a8.58,8.58,0,0,1,7.48-15.45c1.66.8,41,20.2,49.19,64.55,7.46,40.17-13,86.34-60.83,137.23a8.59,8.59,0,0,1-12.13.38Z"/><path class="cls-4" d="M197.71,458.48A8.4,8.4,0,0,1,196,456a8.58,8.58,0,0,1,4.19-11.38h0c.26-.12,26.75-12.71,55.5-46.72,26.58-31.44,60.61-88.16,71.78-179.88a8.58,8.58,0,1,1,17,2.07c-11.76,96.54-48.05,156.47-76.43,189.75-31.14,36.51-59.5,49.82-60.7,50.37A8.59,8.59,0,0,1,197.71,458.48Z"/><path class="cls-10" d="M208.5,469.27a8.59,8.59,0,0,1,3.88-14.37c8.2-2.17,201.67-53,263.87-29.74a8.58,8.58,0,0,1-6,16.08c-23.22-8.69-74.16-6.29-147.32,6.92-56.14,10.14-105.64,23.21-106.13,23.34A8.59,8.59,0,0,1,208.5,469.27Z"/><path class="cls-5" d="M260.05,489.26a424.6,424.6,0,0,1-45.34-39.52c-8.83-8.83-17.05-17.77-24.6-26.66,0,0-23.26,42.66-22.76,43.17a319.42,319.42,0,0,1,31.71,20.24S263.18,491.6,260.05,489.26Z"/></svg>