<svg id="_3ecf9745-447a-4766-8a86-6837975429df" data-name="3ecf9745-447a-4766-8a86-6837975429df" xmlns="http://www.w3.org/2000/svg" xmlns:xlink="http://www.w3.org/1999/xlink" viewBox="0 0 1080 1080"><defs><style>.cls-1{fill:#4e98ea;}.cls-2{fill:#f2f8ff;stroke-dasharray:12;}.cls-2,.cls-4,.cls-5,.cls-6,.cls-9{stroke:#62a5fe;stroke-miterlimit:10;stroke-width:2px;}.cls-3{fill:#d6eaff;}.cls-4,.cls-5,.cls-6,.cls-9{fill:none;}.cls-5{stroke-dasharray:12.1 12.1;}.cls-6{stroke-dasharray:11.41 11.41;}.cls-7{fill:#e8ab2d;}.cls-8{fill:#e4f1ff;}.cls-9{stroke-dasharray:12.1 12.1;}.cls-10{fill:#216ef4;}.cls-11{fill:#fff;}.cls-12{fill:#ededfa;}.cls-13{fill:#398dd8;}.cls-14{fill:#76b8ff;}.cls-15{fill:#62a5fe;}.cls-16{opacity:0.5;}.cls-17{clip-path:url(#clip-path);}</style><clipPath id="clip-path"><rect class="cls-1" x="373.68" y="556.76" width="326.94" height="217.46" rx="9.92"/></clipPath></defs><title>12</title><polygon class="cls-2" points="876.84 900.14 761 900.14 761 419.89 977.3 419.89 876.84 900.14"/><rect class="cls-3" x="210.32" y="195.1" width="484.04" height="183.19" transform="translate(-60.49 132.38) rotate(-15.62)"/><polyline class="cls-4" points="196.21 269.43 194.6 263.65 200.38 262.03"/><line class="cls-5" x1="212.03" y1="258.78" x2="649.15" y2="136.56"/><polyline class="cls-4" points="654.98 134.94 660.76 133.32 662.38 139.1"/><line class="cls-6" x1="665.45" y1="150.09" x2="706.93" y2="298.47"/><polyline class="cls-4" points="708.47 303.97 710.09 309.75 704.31 311.36"/><line class="cls-5" x1="692.65" y1="314.62" x2="255.53" y2="436.83"/><polyline class="cls-4" points="249.7 438.46 243.92 440.08 242.31 434.3"/><line class="cls-6" x1="239.23" y1="423.31" x2="197.75" y2="274.92"/><circle class="cls-7" cx="294.68" cy="326.49" r="21.68"/><rect class="cls-8" x="352.33" y="255.87" width="484.04" height="183.19" transform="translate(-83.88 229.2) rotate(-20.42)"/><polyline class="cls-4" points="337.68 351.69 335.58 346.07 341.21 343.97"/><line class="cls-9" x1="352.55" y1="339.75" x2="777.91" y2="181.39"/><polyline class="cls-4" points="783.58 179.28 789.21 177.19 791.3 182.81"/><line class="cls-6" x1="795.28" y1="193.5" x2="849.04" y2="337.9"/><polyline class="cls-4" points="851.03 343.24 853.12 348.87 847.5 350.96"/><line class="cls-9" x1="836.16" y1="355.18" x2="410.79" y2="513.54"/><polyline class="cls-4" points="405.12 515.65 399.5 517.75 397.41 512.12"/><line class="cls-6" x1="393.43" y1="501.43" x2="339.67" y2="357.04"/><rect class="cls-10" x="479.11" y="338.83" width="121.78" height="9.29" transform="matrix(0.94, -0.35, 0.35, 0.94, -85.9, 209.99)"/><rect class="cls-10" x="492.08" y="373.64" width="121.78" height="9.29" transform="translate(-97.24 216.7) rotate(-20.42)"/><rect class="cls-10" x="485.2" y="343.55" width="196.3" height="9.32" transform="translate(-84.84 225.44) rotate(-20.42)"/><circle class="cls-7" cx="440.57" cy="400.32" r="21.68"/><rect class="cls-2" x="653.82" y="187.68" width="183.19" height="484.04" transform="translate(191.65 1088.22) rotate(-79.9)"/><rect class="cls-10" x="695.98" y="337.77" width="9.29" height="121.78" transform="translate(185.28 1018.52) rotate(-79.9)"/><rect class="cls-11" x="689.47" y="374.36" width="9.29" height="121.78" transform="translate(143.89 1042.28) rotate(-79.9)"/><rect class="cls-10" x="729.11" y="325.59" width="9.29" height="195.7" transform="translate(188.2 1071.56) rotate(-79.9)"/><circle class="cls-7" cx="586.11" cy="397.13" r="21.68" transform="translate(92.35 904.51) rotate(-79.9)"/><ellipse class="cls-12" cx="540" cy="912.32" rx="510.61" ry="30.89"/><polygon class="cls-1" points="384.47 419.89 305.92 365.67 197.18 365.67 197.18 419.89 197.18 446.45 197.18 900.14 876.84 900.14 876.84 419.89 384.47 419.89"/><path class="cls-13" d="M226.81,466.6H846.93a29.91,29.91,0,0,1,29.91,29.91V900.14a0,0,0,0,1,0,0H196.91a0,0,0,0,1,0,0V496.51A29.91,29.91,0,0,1,226.81,466.6Z"/><path class="cls-14" d="M226.9,472H847.4a29.72,29.72,0,0,1,29.72,29.72V900.14a0,0,0,0,1,0,0H197.18a0,0,0,0,1,0,0V501.72A29.72,29.72,0,0,1,226.9,472Z"/><path class="cls-15" d="M722.79,788.15a8.16,8.16,0,0,1-8.08,8.24H359.56a8.15,8.15,0,0,1-8.07-8.24V542.84a8.17,8.17,0,0,1,8.07-8.25H714.71a8.18,8.18,0,0,1,8.08,8.25"/><path class="cls-14" d="M718.61,784.27a7.9,7.9,0,0,1-7.85,7.94H363.52a7.9,7.9,0,0,1-7.85-7.94V546.72a7.9,7.9,0,0,1,7.85-8h347.2a7.9,7.9,0,0,1,7.84,8"/><g id="_114cebd5-d8fe-4021-8e49-fe55d7dac6be" data-name="114cebd5-d8fe-4021-8e49-fe55d7dac6be"><g class="cls-16"><path class="cls-11" d="M379.45,552.63h315.4a9.84,9.84,0,0,1,9.91,9.75V768.6a9.84,9.84,0,0,1-9.91,9.76H379.45a9.84,9.84,0,0,1-9.91-9.76V562.38A9.84,9.84,0,0,1,379.45,552.63Z"/></g></g><rect class="cls-1" x="373.68" y="556.76" width="326.94" height="217.46" rx="9.92"/><g class="cls-17"><g class="cls-16"><rect class="cls-11" x="363.06" y="699.22" width="255.34" height="255.34" rx="35.51" transform="translate(-458.75 675.06) rotate(-50.23)"/></g><rect class="cls-11" x="486.42" y="677" width="255.34" height="255.34" rx="35.51" transform="translate(-397.23 761.87) rotate(-50.23)"/></g><circle class="cls-11" cx="413.04" cy="591.62" r="20.24"/></svg>